<svg width="68" height="54" fill="none" xmlns="http://www.w3.org/2000/svg"><path d="M23.947 11.54c1.648-3.233 6.279-3.233 7.927 0l2.052 4.023a4.446 4.446 0 0 0 3.262 2.37l4.484.713c3.58.57 5.009 4.944 2.451 7.507l-3.228 3.235a4.427 4.427 0 0 0-1.24 3.816l.709 4.5c.564 3.578-3.18 6.285-6.415 4.638l-4.017-2.045a4.458 4.458 0 0 0-4.044 0l-4.016 2.045c-3.235 1.647-6.979-1.06-6.415-4.638l.71-4.5a4.427 4.427 0 0 0-1.242-3.817l-3.227-3.234c-2.558-2.563-1.13-6.937 2.45-7.507l4.484-.714a4.446 4.446 0 0 0 3.263-2.369l2.052-4.024Z" fill="#FFE550"/><path d="m2.817 34.079-.035.008c.004.12-.002.608-.02 1.463-.005.852-.007 1.412-.005 1.678 0 .256-.006.464-.017.624l.002.547a3.675 3.675 0 0 1-.033.481l-.03.336c-.023.212-.069.326-.138.343-.15.035-.384-.08-.703-.345-.321-.276-.506-.518-.555-.725-.05-.207-.06-1.724-.034-4.55.038-2.828-.037-4.688-.223-5.58a.674.674 0 0 1 .023-.443c.058-.27.358-.522.899-.76.552-.24 1.376-.49 2.472-.749 1.108-.262 1.987-.41 2.637-.442.662-.035 1.017.051 1.066.259.033.138-.042.259-.225.363a9.59 9.59 0 0 1-.486.26c-.145.06-.334.134-.568.226a44.8 44.8 0 0 0-.659.229c-.205.06-.47.148-.797.262-.315.11-.607.216-.875.316-.272.089-.637.218-1.097.387-.46.17-.757.277-.892.32.02.033.037.083.054.152.127.541.196 1.837.206 3.889a17.946 17.946 0 0 0 2.29-.596c.814-.266 1.314-.42 1.498-.464.439-.104.68-.064.723.12.085.357-.347.775-1.293 1.254-.935.477-1.997.855-3.185 1.137ZM14.115 30.895a3.262 3.262 0 0 0-.452-1.06c-.211-.327-.457-.542-.738-.646-.744.407-1.285 1.185-1.622 2.334-.329 1.136-.388 2.146-.179 3.033.21.886.56 1.386 1.05 1.501.792-.357 1.363-1.088 1.711-2.191.357-1.118.434-2.108.23-2.971ZM9.6 32.127c.191-.993.542-1.854 1.052-2.583.52-.742 1.119-1.194 1.8-1.355.692-.164 1.338-.007 1.938.47.598.467.996 1.12 1.195 1.96.196.83.195 1.729-.002 2.699-.2.959-.59 1.81-1.168 2.555-.57.73-1.254 1.19-2.05 1.379-.588.139-1.143-.015-1.663-.464-.52-.448-.878-1.086-1.074-1.915-.199-.84-.208-1.755-.028-2.746ZM21.956 29.039a3.266 3.266 0 0 0-.451-1.06c-.211-.327-.457-.542-.738-.646-.744.407-1.285 1.185-1.622 2.335-.329 1.135-.388 2.146-.179 3.032.21.886.56 1.386 1.05 1.502.792-.358 1.363-1.089 1.71-2.192.358-1.118.434-2.108.23-2.971Zm-4.514 1.232c.191-.993.542-1.854 1.052-2.582.519-.743 1.119-1.195 1.8-1.356.692-.164 1.338-.007 1.938.471.598.466.996 1.12 1.194 1.96.196.828.196 1.728-.001 2.698a6.14 6.14 0 0 1-1.169 2.555c-.57.731-1.253 1.19-2.05 1.379-.588.14-1.142-.015-1.662-.463-.52-.449-.878-1.087-1.074-1.916-.199-.84-.208-1.755-.028-2.746ZM30.142 18.898c.184-.044.45.076.797.358.356.268.57.552.64.851.07.3.128 1.185.172 2.658.04 1.46.047 2.984.02 4.57-.036 3.558-.186 5.368-.452 5.431-.161.038-.363-.017-.606-.166-.233-.164-.368-.32-.403-.47-.035-.15-.066-.459-.091-.927-.859 1.419-1.71 2.228-2.551 2.427-.508.12-1.024 0-1.548-.363-.513-.365-.828-.794-.945-1.29-.168-.713-.178-1.604-.029-2.672a9.12 9.12 0 0 1 1.042-3.09c.537-.979 1.215-1.564 2.034-1.758.819-.194 1.505.16 2.06 1.062.011-2.58-.121-4.584-.398-6.013-.082-.345.004-.548.258-.608Zm.1 8.927c-.146-.621-.38-1.12-.7-1.493-.308-.377-.612-.53-.912-.459-.496.118-.932.543-1.307 1.276a7.58 7.58 0 0 0-.748 2.4c-.115.855-.104 1.57.032 2.145a.64.64 0 0 0 .343.447c.18.091.374.112.582.063.45-.107.979-.572 1.588-1.397.62-.827 1-1.72 1.14-2.676l.003-.22-.02-.086ZM41.289 26.779c.223.944-.016 1.839-.717 2.685-.704.835-1.61 1.384-2.718 1.646-1.096.26-2.068.192-2.917-.203-.851-.406-1.337-.862-1.457-1.369-.081-.345-.018-.542.19-.591.184-.044.613.146 1.286.57.254.147.574.265.961.356.398.088.794.086 1.186-.007.808-.191 1.474-.568 2-1.13.536-.564.747-1.088.633-1.571-.074-.311-.375-.66-.905-1.044-.53-.385-1.099-.73-1.707-1.036a13.39 13.39 0 0 1-1.698-1.075c-.532-.397-.833-.74-.9-1.027a2.793 2.793 0 0 1-.044-.956c.04-.35.11-.615.214-.798.333-.601.923-1.221 1.771-1.86.86-.64 1.613-1.037 2.259-1.19.334-.08.643-.037.925.127.283.164.452.367.51.609.027.115-.072.236-.299.362a25.81 25.81 0 0 1-1.042.539c-.46.218-.862.447-1.208.687-1.207.82-1.755 1.466-1.643 1.938.06.253.902.801 2.527 1.644.625.326 1.216.74 1.773 1.24.566.486.906.97 1.02 1.454ZM45.262 27.643c.052.219.205.298.459.238.438-.104.94-.35 1.506-.74.575-.403.897-.612.966-.629.208-.05.337.036.39.254.078.334-.177.802-.766 1.403-.577.598-1.148.964-1.714 1.098-.553.131-1.05.09-1.49-.121-.443-.223-.702-.496-.779-.819-.076-.322-.103-.747-.082-1.274.019-.54.059-1.248.12-2.125.069-.892.114-1.626.136-2.202-.512.255-.86.404-1.045.448-.184.044-.39-.005-.619-.145-.22-.155-.35-.319-.39-.491-.066-.276.622-.719 2.062-1.327-.018-1.004-.115-1.875-.289-2.611-.081-.346-.007-.546.224-.6.196-.047.468.023.817.207.345.174.555.416.628.727.074.31.105.88.094 1.71a19.514 19.514 0 0 1 1.554-.46c.692-.163 1.074-.096 1.145.204.04.172-.116.361-.47.566-.341.203-1.084.567-2.227 1.093-.027.966-.086 2.08-.178 3.342-.094 1.25-.111 2.001-.052 2.254ZM53.004 18.592c.519-.123 1.06.028 1.624.454.56.414.892.834.992 1.26.098.415.055.874-.13 1.38.179.14.283.273.313.4.077.322.132.892.167 1.71.047.816.081 1.349.104 1.598.034.248.057.449.07.604.01.143.013.288.011.435.022.298-.048.467-.21.505-.207.05-.422-.088-.645-.412-.214-.339-.4-.793-.56-1.363-.72 1.544-1.517 2.42-2.394 2.627-.53.125-1.109.025-1.734-.3-.617-.341-.982-.753-1.096-1.236-.164-.69-.111-1.603.157-2.736.265-1.144.708-2.209 1.328-3.194.62-.986 1.287-1.563 2.003-1.732Zm1.514 2.85c-.253-1.07-.593-1.555-1.02-1.454-.45.107-.898.553-1.346 1.34a9.592 9.592 0 0 0-1.013 2.518c-.225.904-.281 1.592-.17 2.064a.605.605 0 0 0 .357.426c.189.077.393.09.612.037.542-.128 1.068-.635 1.577-1.521.507-.898.769-1.902.786-3.012-.006-.181.068-.308.221-.38l-.004-.018Z" fill="#2C2C2C"/><path d="M50.97 33.459a1.492 1.492 0 0 0-1.047.98c-3.099 9.184-11.776 15.79-21.985 15.79-6.191 0-11.82-2.43-15.982-6.392a1.495 1.495 0 0 0-1.385-.38c-1.041.258-1.436 1.515-.665 2.259A25.88 25.88 0 0 0 27.938 53c11.504 0 21.262-7.484 24.677-17.852.336-1.017-.603-1.947-1.646-1.69ZM4.03 23.991c.564-.14.982-.608 1.085-1.178C7.085 11.977 16.561 3.772 27.94 3.772c7.398 0 13.993 3.47 18.243 8.877.358.456.947.676 1.511.536.951-.235 1.381-1.337.782-2.11C43.723 4.945 36.291 1 27.938 1 15.129 1 4.485 10.28 2.35 22.488c-.168.963.729 1.739 1.68 1.503ZM67 9.664c-6.14 11.766-8.834 4.005-17.477 8.564C50.388 4.57 59.541 12.88 67 9.664Z" fill="#BBF330"/><path d="m23.947 11.54.445.226-.445-.227Zm7.927 0-.445.226.445-.227Zm2.052 4.023-.446.227.446-.227Zm3.262 2.37.08-.495-.08.494Zm4.484.713-.078.494.078-.494Zm2.451 7.507.354.353-.354-.353Zm-3.228 3.235.354.353-.354-.354Zm-1.24 3.816.493-.078-.494.078Zm.709 4.5.494-.078-.494.078Zm-6.415 4.638-.227.445.227-.445Zm-4.017-2.045-.227.445.227-.445Zm-4.044 0 .227.445-.227-.445Zm-4.016 2.045-.227-.446.227.446Zm-6.415-4.638-.494-.078.494.078Zm.71-4.5-.495-.078.494.078Zm-1.242-3.817.354-.353-.354.354Zm-3.227-3.234-.354.353.354-.353Zm2.45-7.507.08.494-.08-.494Zm4.484-.714-.078-.494.078.494Zm3.263-2.369-.445-.227.445.227ZM2.817 34.08l.115.486-.115-.486Zm-.035.008-.115-.487a.5.5 0 0 0-.385.504l.5-.017Zm-.02 1.463-.5-.01v.007l.5.003Zm-.005 1.678.5.002v-.006l-.5.004Zm-.017.624-.499-.033a.5.5 0 0 0 0 .036l.5-.003Zm.002.547.5.007v-.007h-.5Zm-.033.481-.494-.074a.51.51 0 0 0-.004.03l.498.044Zm-.03.336.497.054.001-.01-.498-.044Zm-.138.343.115.486-.115-.486Zm-.703-.345-.326.38.006.005.32-.385Zm-.59-5.275-.5-.006v.002l.5.004Zm-.222-5.58.49-.102-.004-.013-.486.115Zm.023-.443.454.208a.5.5 0 0 0 .035-.102l-.49-.106Zm.899-.76-.2-.458h-.001l.2.458Zm2.472-.749-.115-.486.115.486Zm2.637-.442.025.5h.001l-.026-.5Zm1.066.259-.487.115.487-.115Zm-.711.624.187.463a.515.515 0 0 0 .034-.015l-.221-.448Zm-.568.225.16.474a.565.565 0 0 0 .022-.008l-.182-.466Zm-.659.229.142.48a.484.484 0 0 0 .026-.01l-.168-.47Zm-.797.262-.164-.473-.002.001.166.472Zm-.875.316.155.476a.645.645 0 0 0 .019-.007l-.174-.469Zm-1.99.708-.155-.476a.5.5 0 0 0-.27.74l.426-.264Zm.055.151.486-.115-.486.115Zm.206 3.889-.5.002a.5.5 0 0 0 .592.49l-.092-.492Zm2.29-.596-.155-.476.155.476Zm1.498-.464-.115-.487.115.486Zm.723.12.487-.115-.487.115Zm-1.293 1.254-.226-.446h-.001l.227.446Zm8.113-2.047-.487.115.487-.116Zm-.452-1.06-.42.271.003.004.417-.275Zm-.738-.646.174-.47a.5.5 0 0 0-.413.031l.24.439Zm-1.622 2.334-.48-.14v.002l.48.138Zm-.179 3.033.487-.115-.487.114Zm1.05 1.501-.114.487a.5.5 0 0 0 .32-.031l-.206-.456Zm1.711-2.191-.476-.152v.001l.476.15ZM9.6 32.127l-.491-.095-.001.006.492.09Zm1.052-2.583.41.287-.41-.287Zm1.8-1.355-.116-.487.116.487Zm1.938.47-.311.392.004.003.307-.394Zm1.195 1.96-.487.116.487-.115Zm-.002 2.699.49.102v-.003l-.49-.099Zm-1.168 2.555.394.308-.394-.308Zm-2.05 1.379.115.486-.115-.486Zm-1.663-.464-.326.38.326-.38Zm-1.074-1.915.486-.115-.486.115Zm12.328-5.834-.486.115.486-.115Zm-.451-1.06-.42.271.003.005.417-.276Zm-.738-.646.174-.469a.5.5 0 0 0-.414.03l.24.439Zm-1.622 2.335-.48-.141v.002l.48.139Zm-.179 3.032.487-.115-.487.115Zm1.05 1.502-.114.486a.5.5 0 0 0 .32-.03l-.206-.456Zm1.71-2.192-.475-.152v.001l.476.15Zm-4.284-1.739-.491-.094-.001.005.492.09Zm1.052-2.582.41.287v-.001l-.41-.286Zm1.8-1.356-.116-.486.115.486Zm1.938.471-.311.391.003.003.308-.394Zm1.194 1.96-.486.115.486-.115Zm-.001 2.698.49.102v-.002l-.49-.1Zm-1.169 2.555.395.308-.395-.308Zm-2.05 1.379.116.486-.115-.486Zm-1.662-.463-.327.378.327-.378Zm-1.074-1.916.486-.115-.486.115Zm12.672-14.12.115.487-.115-.486Zm.797.359-.315.388.014.011.301-.399Zm.812 3.509.5-.014v-.001l-.5.015Zm.02 4.57-.5-.008v.004l.5.005Zm-.452 5.431.115.487-.115-.487Zm-.606-.166-.286.41a.492.492 0 0 0 .024.015l.262-.425Zm-.403-.47-.487.115.487-.115Zm-.091-.927.5-.027a.5.5 0 0 0-.928-.231l.428.258Zm-2.551 2.427.115.487-.115-.487Zm-1.548-.363-.29.408.006.004.284-.412Zm-.945-1.29.487-.114-.487.115Zm-.029-2.672-.494-.073v.003l.494.07Zm1.042-3.09.439.24-.439-.24Zm2.034-1.758.115.486-.115-.486Zm2.06 1.062-.426.262a.5.5 0 0 0 .926-.26l-.5-.002Zm-.398-6.013.49-.095a.705.705 0 0 0-.004-.02l-.486.115Zm.358 8.32.487-.116-.487.115Zm-.7-1.494-.387.317.007.008.38-.325Zm-.912-.459-.115-.486.115.486Zm-2.055 3.677-.495-.07v.003l.495.067Zm.032 2.144-.487.115.487-.115Zm.343.447.226-.446-.226.446Zm.582.063-.116-.487.116.487Zm1.588-1.397-.4-.3-.002.003.402.297Zm1.14-2.676.495.072a.51.51 0 0 0 .005-.065l-.5-.007Zm.003-.22.5.007a.503.503 0 0 0-.014-.121l-.486.114Zm11.026-1.132-.487.115.487-.115Zm-.717 2.685.382.323.003-.004-.385-.319Zm-2.718 1.646-.115-.486.115.486Zm-2.917-.203-.215.451.004.002.211-.453Zm-1.457-1.369-.486.115.486-.115Zm.19-.591.115.486-.116-.486Zm1.286.57-.267.423a.415.415 0 0 0 .017.01l.25-.433Zm.961.356-.114.487.006.001.108-.488Zm1.186-.007-.115-.487.115.487Zm2-1.13-.363-.344-.003.003.365.341Zm.633-1.571-.487.115.486-.115Zm-.905-1.044-.294.404.294-.404Zm-1.707-1.036-.236.44.011.006.225-.446Zm-1.698-1.075.299-.401-.299.4Zm-.9-1.027-.487.115.486-.115Zm.17-1.754.435.246.002-.004-.437-.242Zm1.771-1.86-.299-.4-.002.001.301.4Zm2.259-1.19-.115-.487.115.487Zm.925.127.251-.432-.25.432Zm.51.609.486-.115-.486.115Zm-.299.362-.244-.436.244.436Zm-1.042.539.215.451.007-.003-.222-.448Zm-1.208.687.281.413.004-.003-.285-.41ZM35.97 22.44l-.487.115.487-.115Zm2.527 1.644.23-.443-.23.443Zm1.773 1.24-.334.372.008.007.326-.38Zm4.993 2.318-.486.115.486-.115Zm.459.238.115.487-.115-.487Zm1.506-.74.284.413.003-.003-.287-.41Zm.966-.629-.115-.486.115.486Zm.39.254.486-.115-.487.115Zm-.766 1.403-.357-.35-.003.003.36.347Zm-1.714 1.098-.115-.486.115.486Zm-1.49-.121-.226.447.009.003.217-.45Zm-.779-.819.487-.115-.487.116Zm-.082-1.274.5.02v-.003l-.5-.017Zm.12-2.125-.5-.039v.005l.5.034Zm.136-2.202.5.02a.5.5 0 0 0-.722-.468l.222.448Zm-1.045.448.115.486-.115-.486Zm-.619-.145-.288.408a.51.51 0 0 0 .026.018l.262-.426Zm-.39-.491.486-.115-.486.115Zm2.062-1.327.194.46a.5.5 0 0 0 .306-.469l-.5.01Zm-.289-2.611.487-.116-.487.116Zm.224-.6-.115-.487.115.487Zm.817.207-.235.442.01.005.225-.447Zm.722 2.437-.5-.007a.5.5 0 0 0 .657.481l-.157-.474Zm1.554-.46.115.487-.115-.486Zm1.145.204.486-.115-.486.115Zm-.47.566-.25-.432-.004.002.255.43Zm-2.227 1.093-.208-.455a.5.5 0 0 0-.291.44l.5.015Zm-.178 3.342.499.037v-.001l-.499-.036Zm7.69-6.797.115.486-.115-.486Zm1.624.454-.301.4.004.002.297-.402Zm.992 1.26.487-.115-.487.115Zm-.13 1.38-.47-.172a.5.5 0 0 0 .162.566l.308-.394Zm.313.4.487-.115-.487.115Zm.167 1.71-.5.022.001.007.5-.028Zm.104 1.598-.498.045.003.024.495-.069Zm.07.604.498-.034v-.006l-.498.04Zm.011.435-.5-.007.001.043.499-.036Zm-.21.505-.115-.487.116.487Zm-.645-.412-.423.267a.44.44 0 0 0 .01.016l.413-.283Zm-.56-1.363.482-.134a.5.5 0 0 0-.935-.077l.453.211Zm-2.394 2.627.115.486-.115-.486Zm-1.734-.3-.242.437.01.006.232-.444Zm-1.096-1.236-.487.115.487-.115Zm.157-2.736.487.116v-.003l-.487-.113Zm1.328-3.194-.423-.267.423.267Zm3.517 1.118.487-.115-.487.115Zm-1.02-1.454.115.486-.115-.486Zm-1.346 1.34.432.25.002-.003-.434-.247Zm-1.013 2.518-.485-.12.485.12Zm-.17 2.064.487-.115-.487.115Zm.357.426-.21.454a.55.55 0 0 0 .021.009l.189-.463Zm.612.037-.115-.486.115.486Zm1.577-1.521.434.249.002-.004-.436-.245Zm.786-3.012.5.008v-.025l-.5.017Zm.221-.38.215.451a.5.5 0 0 0 .272-.567l-.487.115ZM50.97 33.458l-.12-.486.12.486Zm-1.046.98-.474-.16.474.16Zm-37.967 9.398-.345.362.345-.362Zm-1.385-.38-.12-.485.12.485Zm-.665 2.259-.347.36.347-.36Zm42.71-10.568.474.156-.475-.156ZM4.03 23.991l-.12-.485.12.485Zm1.085-1.178-.492-.09.492.09ZM46.182 12.65l.393-.31-.393.31Zm1.511.536-.12-.485.12.485Zm.782-2.11-.395.307.395-.307ZM2.35 22.488l.493.086-.493-.086ZM67 9.664l.443.23a.5.5 0 0 0-.641-.69l.198.46Zm-17.477 8.564-.499-.031a.5.5 0 0 0 .733.474l-.234-.443Zm-25.13-6.462c1.462-2.868 5.573-2.868 7.036 0l.89-.454c-1.833-3.596-6.984-3.596-8.818 0l.891.454Zm7.036 0 2.051 4.024.891-.454-2.052-4.024-.89.454Zm2.051 4.024a4.946 4.946 0 0 0 3.63 2.636l.157-.988a3.945 3.945 0 0 1-2.896-2.102l-.89.454Zm3.63 2.636 4.483.714.158-.988-4.484-.714-.157.988Zm4.483.714c3.18.506 4.444 4.387 2.176 6.66l.708.706c2.847-2.853 1.255-7.72-2.726-8.354l-.157.988Zm2.176 6.66-3.228 3.234.708.707 3.228-3.235-.708-.706Zm-3.228 3.234a4.927 4.927 0 0 0-1.38 4.248l.987-.156a3.927 3.927 0 0 1 1.101-3.385l-.708-.707Zm-1.38 4.248.709 4.5.988-.156-.71-4.5-.987.156Zm.709 4.5c.5 3.172-2.82 5.577-5.694 4.114l-.454.891c3.596 1.831 7.764-1.176 7.136-5.161l-.988.156Zm-5.694 4.114-4.017-2.045-.454.891 4.017 2.045.454-.891Zm-4.017-2.045a4.958 4.958 0 0 0-4.497 0l.453.891a3.957 3.957 0 0 1 3.59 0l.454-.891Zm-4.497 0-4.017 2.045.454.891 4.016-2.045-.453-.891Zm-4.017 2.045c-2.874 1.463-6.194-.942-5.694-4.115l-.988-.155c-.628 3.985 3.54 6.992 7.136 5.161l-.454-.891Zm-5.694-4.115.71-4.5-.989-.155-.709 4.5.988.155Zm.71-4.5a4.927 4.927 0 0 0-1.382-4.247l-.707.707a3.927 3.927 0 0 1 1.1 3.385l.988.156Zm-1.382-4.247L12.052 25.8l-.708.706 3.228 3.235.707-.707ZM12.052 25.8c-2.268-2.273-1.004-6.154 2.175-6.66l-.157-.988c-3.982.634-5.574 5.5-2.726 8.354l.708-.706Zm2.175-6.66 4.484-.714-.157-.988-4.484.714.157.988Zm4.484-.714a4.946 4.946 0 0 0 3.63-2.636l-.892-.454a3.945 3.945 0 0 1-2.895 2.102l.157.988Zm3.63-2.636 2.051-4.024-.89-.454-2.052 4.024.89.454ZM2.7 33.592l-.034.008.23.974.035-.009-.23-.973Zm-.419.512c.004.103-.002.571-.02 1.436l1 .02c.017-.845.025-1.352.02-1.49l-1 .034Zm-.02 1.443c-.005.851-.007 1.414-.005 1.686l1-.009c-.002-.262 0-.818.006-1.67l-1-.007Zm-.005 1.68c0 .25-.006.446-.016.592l.998.067c.012-.176.018-.396.018-.657l-1-.002Zm-.017.628.002.544h1c0-.208 0-.39-.002-.55l-1 .006Zm.002.537a3.198 3.198 0 0 1-.027.414l.989.149a4.16 4.16 0 0 0 .038-.55l-1-.013Zm-.03.443-.031.336.996.09.03-.335-.996-.09Zm-.03.327c-.01.089-.02.117-.018.111.001-.004.014-.036.05-.076a.409.409 0 0 1 .212-.125l.23.973c.28-.066.395-.298.435-.397.048-.12.072-.255.085-.378l-.994-.108Zm.244-.09a.212.212 0 0 1 .087-.005c.005.001-.008-.001-.04-.017-.067-.033-.17-.1-.315-.22l-.64.769c.174.145.347.267.515.35.155.075.38.154.623.096l-.23-.973Zm-.262-.237c-.307-.264-.384-.418-.395-.461l-.973.23c.088.37.38.701.716.99l.652-.759Zm-.395-.461c.002.007-.008-.069-.016-.303-.008-.21-.013-.501-.016-.879a208.12 208.12 0 0 1 .012-3.248l-1-.01A209.048 209.048 0 0 0 .738 37.2c.002.38.008.683.015.905.007.197.017.388.043.499l.973-.23Zm-.02-4.428c.037-2.818-.034-4.734-.234-5.69l-.979.205c.174.829.25 2.632.213 5.472l1 .013Zm-.237-5.702a.361.361 0 0 1-.01-.116.039.039 0 0 1 .001-.004l-.909-.416a1.17 1.17 0 0 0-.055.766l.973-.23Zm.026-.222c-.003.01.002-.031.102-.116.1-.084.262-.184.508-.292l-.401-.916c-.295.13-.552.275-.753.444-.199.169-.373.389-.434.668l.978.212Zm.609-.407c.511-.222 1.3-.464 2.388-.721l-.23-.973c-1.105.261-1.963.519-2.557.777l.399.917Zm2.388-.721c1.097-.26 1.941-.4 2.547-.43l-.05-.998c-.695.035-1.608.19-2.727.454l.23.974Zm2.548-.43c.315-.016.512 0 .619.026.052.012.054.02.033.006a.276.276 0 0 1-.099-.157l.974-.23c-.093-.393-.45-.537-.673-.591-.248-.06-.56-.07-.907-.052l.053.999Zm.553-.125a.246.246 0 0 1 .03-.184c.023-.037.035-.032-.015-.003l.495.87c.131-.076.273-.183.37-.34a.747.747 0 0 0 .094-.573l-.974.23Zm.015-.187c-.177.1-.33.183-.46.247l.442.897c.153-.075.324-.168.513-.275l-.495-.869Zm-.427.232c-.142.058-.33.132-.563.224l.365.93c.235-.091.426-.167.573-.227l-.375-.927Zm-.541.216c-.239.08-.46.158-.666.231l.336.942c.2-.071.417-.147.651-.226l-.321-.947Zm-.64.223c-.216.063-.49.154-.82.268l.33.945c.322-.113.58-.197.774-.255l-.284-.958Zm-.821.269a53.03 53.03 0 0 0-.884.32l.349.937c.266-.1.555-.204.867-.314l-.332-.943Zm-.864.313c-.28.091-.653.223-1.115.393l.346.938c.457-.168.816-.295 1.079-.38l-.31-.951Zm-1.115.393c-.462.17-.75.274-.875.315l.31.95c.147-.048.454-.158.911-.327l-.346-.938ZM2.1 28.851a.246.246 0 0 1-.015-.027l-.003-.006a.235.235 0 0 1 .01.036l.973-.23a1.016 1.016 0 0 0-.115-.3l-.85.527Zm-.008.003c.053.223.1.643.135 1.29.034.637.053 1.465.058 2.486l1-.005a54.592 54.592 0 0 0-.06-2.535c-.034-.649-.085-1.148-.16-1.466l-.973.23Zm.785 4.266c.748-.14 1.533-.345 2.353-.613l-.31-.95c-.786.256-1.527.45-2.226.58l.183.983Zm2.353-.613c.823-.269 1.299-.415 1.458-.453l-.23-.973c-.21.05-.733.212-1.538.475l.31.95Zm1.458-.453a1.66 1.66 0 0 1 .224-.04.399.399 0 0 1 .089-.001c.004 0-.035-.004-.084-.043a.306.306 0 0 1-.107-.167l.973-.23a.694.694 0 0 0-.247-.389.808.808 0 0 0-.371-.157c-.22-.037-.468-.003-.707.054l.23.973Zm.122-.25c-.02-.083.051-.062-.122.106-.162.157-.454.355-.911.586l.452.892c.49-.248.886-.499 1.155-.76.258-.25.503-.616.399-1.055l-.973.23Zm-1.034.693c-.895.455-1.918.822-3.073 1.095l.23.973c1.22-.289 2.321-.68 3.297-1.177l-.454-.891Zm8.826-1.718a3.764 3.764 0 0 0-.521-1.22l-.834.551c.174.264.302.562.382.9l.973-.23Zm-.518-1.216c-.252-.39-.575-.692-.984-.843l-.347.938c.152.056.32.185.491.448l.84-.543Zm-1.397-.813c-.902.493-1.504 1.41-1.863 2.633l.96.281c.315-1.075.795-1.715 1.382-2.037l-.48-.877Zm-1.863 2.634c-.346 1.194-.42 2.295-.185 3.287l.973-.23c-.185-.782-.14-1.702.172-2.779l-.96-.277Zm-.185 3.287c.217.917.632 1.688 1.422 1.873l.228-.973c-.19-.045-.475-.276-.677-1.13l-.973.23Zm1.742 1.842c.96-.434 1.606-1.305 1.982-2.497l-.954-.3c-.32 1.014-.816 1.604-1.44 1.886l.412.911Zm1.981-2.495c.377-1.177.47-2.263.24-3.239l-.973.23c.178.751.119 1.646-.22 2.705l.953.304Zm-4.27-1.796c.18-.934.506-1.727.97-2.39l-.818-.574c-.556.793-.931 1.722-1.134 2.774l.982.19Zm.971-2.391c.47-.673.975-1.03 1.505-1.155l-.23-.974c-.833.197-1.527.743-2.095 1.556l.82.573Zm1.505-1.155c.53-.126 1.02-.016 1.512.375l.623-.782c-.71-.565-1.511-.769-2.366-.567l.23.973Zm1.516.378c.495.387.839.935 1.015 1.68l.973-.23c-.22-.934-.674-1.693-1.373-2.238l-.615.788Zm1.015 1.68c.177.748.18 1.574-.005 2.485l.98.198c.21-1.03.213-2.003-.002-2.913l-.973.23Zm-.004 2.482a5.643 5.643 0 0 1-1.074 2.35l.79.614a6.643 6.643 0 0 0 1.263-2.76l-.98-.204Zm-1.073 2.35c-.51.653-1.1 1.04-1.771 1.2l.23.972c.921-.218 1.698-.75 2.329-1.557l-.788-.615Zm-1.771 1.2c-.41.096-.804.004-1.222-.356l-.652.757c.622.537 1.337.753 2.104.571l-.23-.973Zm-1.222-.356c-.422-.365-.736-.9-.914-1.652l-.973.23c.215.907.617 1.647 1.235 2.18l.652-.758Zm-.914-1.652c-.18-.763-.192-1.608-.022-2.541l-.984-.18c-.19 1.048-.184 2.034.033 2.951l.973-.23Zm12.329-5.834a3.765 3.765 0 0 0-.521-1.221l-.834.552c.174.263.302.561.382.899l.973-.23Zm-.518-1.217c-.253-.39-.576-.692-.984-.843l-.347.938c.152.056.32.185.49.448l.84-.543Zm-1.398-.813c-.901.493-1.503 1.41-1.862 2.633l.96.281c.315-1.075.795-1.715 1.382-2.036l-.48-.878Zm-1.863 2.635c-.345 1.194-.419 2.294-.184 3.286l.973-.23c-.185-.781-.14-1.702.172-2.778l-.96-.278Zm-.184 3.286c.216.918.632 1.688 1.421 1.873l.229-.973c-.191-.045-.475-.276-.677-1.13l-.973.23Zm1.741 1.842c.962-.434 1.607-1.305 1.983-2.497l-.954-.3c-.32 1.014-.816 1.604-1.44 1.886l.411.911Zm1.982-2.495c.376-1.177.47-2.263.24-3.238l-.973.23c.177.75.119 1.645-.22 2.704l.953.304Zm-4.27-1.796c.18-.934.506-1.727.97-2.39l-.819-.574c-.555.793-.93 1.722-1.133 2.775l.982.189Zm.97-2.391c.47-.672.976-1.03 1.506-1.155l-.23-.974c-.833.197-1.527.744-2.095 1.556l.82.573Zm1.506-1.155c.53-.126 1.02-.016 1.512.375l.623-.782c-.71-.565-1.511-.769-2.366-.567l.23.974Zm1.515.378c.496.387.84.935 1.016 1.68l.973-.23c-.221-.934-.674-1.692-1.373-2.238l-.616.788Zm1.016 1.68c.177.748.18 1.574-.005 2.485l.98.199c.209-1.03.213-2.004-.002-2.913l-.973.23Zm-.005 2.482a5.642 5.642 0 0 1-1.073 2.35l.79.614a6.641 6.641 0 0 0 1.262-2.76l-.979-.204Zm-1.073 2.35c-.51.653-1.1 1.04-1.77 1.2l.23.973c.921-.219 1.698-.75 2.329-1.558l-.789-.615Zm-1.77 1.2c-.41.096-.804.004-1.222-.356l-.653.757c.623.537 1.338.753 2.105.572l-.23-.974Zm-1.222-.356c-.423-.364-.736-.9-.914-1.652l-.973.23c.214.907.617 1.647 1.234 2.18l.653-.758Zm-.914-1.652c-.18-.763-.192-1.607-.022-2.541l-.984-.18c-.19 1.048-.184 2.034.033 2.951l.973-.23Zm12.301-13.518c-.059.014-.066-.01.018.027.078.035.193.106.349.233l.63-.776a2.658 2.658 0 0 0-.57-.37c-.182-.081-.414-.144-.657-.087l.23.973Zm.381.271c.304.23.42.423.454.567l.974-.23c-.108-.454-.418-.828-.826-1.135l-.602.798Zm.454.567c.025.103.055.357.084.806.028.435.053 1.018.075 1.752l1-.03a53.656 53.656 0 0 0-.077-1.786c-.028-.437-.062-.775-.108-.972l-.974.23Zm.159 2.557c.04 1.453.047 2.969.02 4.548l1 .017a102.4 102.4 0 0 0-.02-4.593l-1 .028Zm.02 4.552c-.018 1.775-.064 3.102-.138 3.989-.037.446-.08.762-.124.963a.92.92 0 0 1-.047.163c-.003.007.005-.015.033-.045a.406.406 0 0 1 .21-.122l.23.974a.595.595 0 0 0 .306-.186.8.8 0 0 0 .124-.192c.053-.112.09-.244.12-.375.06-.268.106-.638.145-1.097.076-.924.123-2.28.141-4.062l-1-.01Zm-.067 4.948c.02-.004.016.003-.025-.008a.829.829 0 0 1-.203-.097l-.525.851c.28.173.627.312.983.228l-.23-.974ZM31 32.19a.998.998 0 0 1-.183-.155c-.033-.038-.026-.044-.02-.02l-.974.23c.08.337.346.584.604.765l.573-.82Zm-.203-.174c-.024-.099-.053-.363-.079-.839l-.998.055c.024.46.056.813.103 1.014l.974-.23Zm-1.006-1.07c-.846 1.397-1.604 2.048-2.239 2.199l.23.973c1.051-.249 1.993-1.215 2.865-2.655l-.856-.517Zm-2.239 2.199c-.34.08-.712.013-1.148-.288l-.568.823c.613.423 1.272.597 1.947.438l-.23-.973Zm-1.142-.284c-.438-.312-.665-.647-.748-.997l-.973.23c.151.639.554 1.164 1.141 1.582l.58-.815Zm-.748-.997c-.15-.632-.165-1.456-.02-2.49l-.99-.138c-.155 1.104-.151 2.062.037 2.858l.973-.23Zm-.02-2.486a8.624 8.624 0 0 1 .985-2.922l-.877-.481a9.621 9.621 0 0 0-1.098 3.258l.99.145Zm.985-2.922c.491-.896 1.07-1.36 1.71-1.512l-.23-.973c-.998.236-1.776.944-2.357 2.004l.877.48Zm1.71-1.512c.304-.072.557-.039.785.078.238.123.488.359.734.76l.852-.524c-.308-.501-.679-.893-1.128-1.125a2.09 2.09 0 0 0-1.473-.162l.23.973Zm2.445.578c.011-2.591-.121-4.633-.408-6.11l-.981.19c.267 1.382.4 3.348.389 5.916l1 .004Zm-.412-6.13a.494.494 0 0 1-.016-.113c0-.018.003-.01-.007.012a.193.193 0 0 1-.058.075c-.025.02-.04.022-.032.02l-.23-.974a.84.84 0 0 0-.6.488c-.104.243-.081.504-.03.722l.973-.23Zm.359 8.32c-.16-.678-.422-1.254-.807-1.704l-.76.65c.255.298.46.717.594 1.283l.973-.23Zm-.8-1.696c-.352-.43-.834-.766-1.414-.628l.23.973c.02-.005.146-.034.41.289l.774-.634Zm-1.414-.628c-.707.167-1.236.75-1.637 1.534l.89.456c.349-.682.691-.95.977-1.017l-.23-.973Zm-1.637 1.534a8.082 8.082 0 0 0-.798 2.558l.99.142c.116-.817.35-1.564.698-2.244l-.89-.456Zm-.799 2.562c-.12.89-.114 1.67.041 2.326l.973-.23c-.117-.496-.133-1.144-.022-1.962l-.992-.134Zm.041 2.326c.08.341.285.616.604.778l.452-.892c-.04-.02-.065-.044-.083-.116l-.973.23Zm.604.778c.292.148.607.178.923.103l-.23-.973a.328.328 0 0 1-.241-.022l-.452.892Zm.923.103c.335-.079.652-.279.95-.54.3-.264.608-.616.925-1.046l-.804-.594a5.715 5.715 0 0 1-.782.89c-.233.204-.405.29-.52.317l.23.974Zm1.873-1.583c.667-.89 1.082-1.859 1.235-2.904l-.99-.144c-.126.868-.47 1.683-1.045 2.448l.8.6Zm1.24-2.97.003-.219-1-.013-.003.22 1 .013Zm-.01-.34-.021-.087-.973.23.02.086.973-.23Zm10.052-.903c.182.77.001 1.507-.615 2.251l.77.638c.786-.949 1.083-2.001.819-3.12l-.974.23Zm-.613 2.248c-.632.75-1.442 1.243-2.45 1.482l.23.973c1.207-.286 2.209-.89 2.985-1.81l-.765-.645Zm-2.45 1.482c-1.01.239-1.864.168-2.591-.17l-.422.906c.97.452 2.06.517 3.243.237l-.23-.974Zm-2.587-.168c-.819-.391-1.12-.758-1.185-1.033l-.973.23c.174.739.844 1.284 1.728 1.705l.43-.902Zm-1.185-1.033a.709.709 0 0 1-.021-.133c0-.027.003-.026-.003-.006a.234.234 0 0 1-.066.097.22.22 0 0 1-.092.052l-.23-.973a.761.761 0 0 0-.565.52c-.072.226-.045.468.004.673l.973-.23Zm-.182.01c-.065.015-.092 0-.047.011.036.009.097.029.189.07.182.08.434.22.762.426l.533-.846a7.36 7.36 0 0 0-.89-.495 2.147 2.147 0 0 0-.362-.128.902.902 0 0 0-.416-.011l.23.973Zm.92.517c.31.178.679.312 1.098.41l.228-.974a3.062 3.062 0 0 1-.825-.302l-.5.866Zm1.104.411c.471.104.943.102 1.41-.009l-.231-.973a2.127 2.127 0 0 1-.963.006l-.216.976Zm1.41-.009c.895-.212 1.65-.635 2.248-1.274l-.73-.683c-.453.484-1.03.814-1.75.984l.231.973Zm2.245-1.271c.584-.614.93-1.306.758-2.032l-.973.23c.057.242-.02.598-.51 1.113l.726.689Zm.758-2.032c-.118-.5-.556-.94-1.097-1.333l-.588.81c.518.376.683.632.712.754l.973-.23Zm-1.097-1.333a12.743 12.743 0 0 0-1.777-1.078l-.449.893c.585.294 1.131.626 1.638.994l.588-.809Zm-1.766-1.073a12.873 12.873 0 0 1-1.634-1.034l-.598.802c.553.412 1.14.783 1.761 1.115l.471-.883Zm-1.634-1.034a3.59 3.59 0 0 1-.547-.483c-.123-.14-.158-.225-.166-.258l-.973.23c.06.255.21.485.387.687.18.207.419.415.701.626l.598-.802Zm-.713-.74a2.295 2.295 0 0 1-.033-.786l-.994-.111a3.29 3.29 0 0 0 .054 1.126l.973-.23Zm-.033-.786c.036-.322.097-.51.152-.608l-.87-.492c-.152.268-.233.611-.276.988l.994.112Zm.154-.612c.285-.515.815-1.085 1.635-1.702l-.602-.799c-.876.66-1.527 1.33-1.908 2.017l.875.484Zm1.633-1.7c.835-.623 1.524-.975 2.075-1.105l-.23-.974c-.741.176-1.558.617-2.443 1.277l.598.802Zm2.075-1.105a.72.72 0 0 1 .56.073l.501-.865c-.399-.232-.84-.288-1.291-.182l.23.974Zm.56.073c.202.117.257.221.273.291l.973-.23c-.098-.414-.383-.716-.745-.926l-.502.865Zm.273.291a.335.335 0 0 1 .005-.174.241.241 0 0 1 .041-.082c.007-.007.004-.003-.014.011a.747.747 0 0 1-.088.056l.489.873c.136-.077.279-.175.386-.304a.698.698 0 0 0 .154-.61l-.973.23Zm-.056-.19c-.214.12-.553.296-1.02.528l.444.896c.47-.234.827-.418 1.065-.55l-.489-.873Zm-1.012.524c-.48.227-.907.47-1.279.728l.57.821a8.044 8.044 0 0 1 1.138-.646l-.429-.903Zm-1.275.725c-.618.42-1.1.817-1.416 1.19-.302.356-.545.801-.433 1.277l.974-.23s-.002-.006 0-.019a.28.28 0 0 1 .019-.07c.028-.073.088-.176.202-.311.231-.273.627-.61 1.216-1.01l-.562-.827Zm-1.849 2.467a.791.791 0 0 0 .152.302c.057.072.125.14.194.202.14.124.325.258.545.401.442.288 1.075.644 1.893 1.068l.46-.887c-.807-.42-1.407-.758-1.808-1.02a3.755 3.755 0 0 1-.425-.31.612.612 0 0 1-.071-.07c-.011-.014.017.016.034.084l-.974.23Zm2.783 1.973a8.104 8.104 0 0 1 1.67 1.168l.668-.744a9.105 9.105 0 0 0-1.876-1.311l-.462.887Zm1.678 1.175c.524.45.779.85.86 1.19l.973-.23c-.149-.627-.573-1.196-1.181-1.719l-.652.759Zm4.833 2.054a.812.812 0 0 0 .41.552.932.932 0 0 0 .65.058l-.23-.973c-.069.016-.033-.01.04.028a.24.24 0 0 1 .087.075c.016.024.018.039.016.03l-.973.23Zm1.06.61c.522-.124 1.082-.407 1.675-.814l-.567-.824c-.539.37-.983.58-1.338.665l.23.973Zm1.678-.817c.286-.2.505-.35.659-.45a4.029 4.029 0 0 1 .202-.124c.01-.006-.018.01-.067.022l-.23-.973a.693.693 0 0 0-.143.052c-.03.015-.062.033-.092.05-.06.035-.133.08-.216.135-.169.11-.398.267-.687.47l.574.818Zm.794-.552c.022-.006-.048.016-.136-.042-.082-.053-.086-.116-.076-.076l.973-.23a.849.849 0 0 0-.35-.53.812.812 0 0 0-.641-.095l.23.973Zm-.212-.118c-.002-.004.015.064-.085.247-.096.177-.272.407-.551.691l.714.7c.31-.317.557-.622.715-.912.155-.285.26-.618.18-.956l-.974.23Zm-.639.94c-.538.558-1.029.855-1.469.96l.23.973c.691-.164 1.343-.599 1.96-1.238l-.72-.694Zm-1.469.96c-.461.109-.838.069-1.158-.085l-.434.9c.56.27 1.176.31 1.822.158l-.23-.973Zm-1.15-.081c-.378-.19-.489-.368-.517-.488l-.973.23c.124.526.532.894 1.04 1.15l.45-.892Zm-.517-.488c-.061-.26-.09-.633-.07-1.14l-.998-.04c-.023.55.004 1.026.095 1.41l.973-.23Zm-.07-1.142c.02-.531.059-1.233.119-2.108l-.998-.069c-.06.88-.1 1.595-.12 2.142l1 .035Zm.119-2.103c.07-.895.116-1.636.138-2.222l-1-.038a57.366 57.366 0 0 1-.135 2.182l.997.078Zm-.584-2.689c-.522.26-.819.381-.938.41l.23.973c.25-.06.65-.237 1.153-.487l-.445-.896Zm-.938.41c-.01.002-.08.015-.242-.085l-.524.852c.294.18.637.29.996.206l-.23-.974Zm-.216-.068c-.169-.119-.19-.191-.192-.197l-.973.23c.08.34.32.594.589.784l.576-.817Zm-.192-.197c.04.169-.06.254-.016.204.032-.037.11-.107.267-.208.306-.197.806-.446 1.52-.747l-.39-.921c-.727.307-1.29.583-1.671.827-.188.121-.359.252-.482.394-.112.13-.273.374-.2.68l.972-.23Zm2.076-1.22c-.019-1.03-.118-1.938-.302-2.718l-.973.23c.163.692.257 1.526.275 2.505l1-.018Zm-.302-2.718a.598.598 0 0 1-.019-.124c0-.022.004-.017-.005.004a.214.214 0 0 1-.124.121l-.23-.973a.799.799 0 0 0-.583.503c-.087.236-.062.487-.012.699l.973-.23Zm-.148.001c-.005.002.026-.007.113.015.085.022.202.067.354.148l.47-.883c-.368-.195-.783-.344-1.167-.253l.23.973Zm.477.168c.244.123.334.258.367.395l.973-.23c-.115-.485-.444-.834-.891-1.058l-.449.893Zm.367.395c.057.243.09.755.08 1.588l1 .013c.01-.825-.018-1.453-.107-1.831l-.973.23Zm.737 2.07c.638-.212 1.14-.36 1.512-.448l-.23-.973c-.413.098-.947.256-1.596.47l.314.95Zm1.512-.448c.326-.077.514-.082.603-.066.039.007.028.012 0-.01a.18.18 0 0 1-.06-.092l.973-.23a.82.82 0 0 0-.283-.455.988.988 0 0 0-.455-.198c-.293-.052-.642-.009-1.008.078l.23.973Zm.543-.168a.256.256 0 0 1 .004-.135c.01-.03.02-.04.01-.028a.484.484 0 0 1-.074.068c-.042.033-.1.071-.173.114l.502.865c.198-.115.384-.249.516-.41.137-.165.257-.413.188-.704l-.973.23Zm-.237.021c-.316.187-1.034.54-2.181 1.068l.418.909c1.137-.524 1.904-.898 2.272-1.116l-.51-.86Zm-2.472 1.509a76.117 76.117 0 0 1-.178 3.32l.998.072c.092-1.267.152-2.388.18-3.364l-1-.028Zm-.177 3.318a30.532 30.532 0 0 0-.085 1.527c-.009.367-.002.681.045.88l.973-.23c-.013-.054-.028-.242-.019-.627.009-.363.036-.854.083-1.475l-.997-.075Zm8.303-6.273c.33-.078.722 0 1.208.367l.602-.798c-.641-.484-1.333-.71-2.04-.542l.23.973Zm1.212.37c.519.383.741.714.803.973l.973-.23c-.14-.592-.58-1.102-1.182-1.547l-.594.804Zm.803.973c.07.297.046.655-.114 1.093l.94.344c.209-.573.273-1.135.147-1.667l-.973.23Zm.048 1.66a.753.753 0 0 1 .127.119c.02.026.014.026.008 0l.973-.23c-.07-.293-.284-.515-.493-.678l-.615.788Zm.135.12c.064.27.119.798.154 1.617l.999-.043c-.035-.817-.092-1.43-.18-1.804l-.973.23Zm.154 1.624c.047.814.082 1.355.105 1.614l.996-.09c-.022-.24-.056-.764-.103-1.581l-.998.057Zm.108 1.638c.033.242.055.433.066.574l.997-.079c-.013-.168-.038-.38-.073-.632l-.99.137Zm.066.568c.008.13.012.262.01.395l1 .013a5.897 5.897 0 0 0-.013-.474l-.997.066Zm.011.438a.662.662 0 0 1 0 .112c-.002.023-.004.024.001.01a.265.265 0 0 1 .173-.14l.23.973a.742.742 0 0 0 .52-.45c.079-.188.087-.395.074-.578l-.998.073Zm.174-.018a.142.142 0 0 1 .06 0c.017.003.02.007.007 0a.776.776 0 0 1-.185-.209l-.824.567c.235.342.63.744 1.173.615l-.23-.973Zm-.108-.193c-.178-.282-.349-.686-.5-1.23l-.964.27c.167.596.37 1.1.62 1.495l.844-.535Zm-1.435-1.306c-.708 1.52-1.418 2.2-2.056 2.351l.23.973c1.116-.264 2.002-1.334 2.732-2.902l-.906-.422Zm-2.056 2.351c-.383.09-.837.03-1.388-.257l-.462.887c.7.364 1.402.504 2.08.343l-.23-.973Zm-1.378-.252c-.545-.3-.78-.616-.85-.912l-.974.23c.158.67.654 1.179 1.341 1.558l.483-.875Zm-.85-.912c-.138-.582-.104-1.405.157-2.505l-.974-.23c-.276 1.165-.346 2.165-.157 2.965l.973-.23Zm.157-2.508a9.847 9.847 0 0 1 1.264-3.041l-.846-.532a10.846 10.846 0 0 0-1.392 3.348l.974.225Zm1.264-3.041c.59-.937 1.164-1.386 1.695-1.512l-.23-.973c-.9.213-1.66.919-2.311 1.953l.846.532Zm3.58.737c-.13-.553-.296-1.017-.521-1.338a1.255 1.255 0 0 0-.457-.414.934.934 0 0 0-.643-.074l.23.973c.002 0-.004.002-.014 0a.064.064 0 0 1-.02-.005c-.002 0 .03.016.085.094.114.163.245.477.368.994l.973-.23Zm-1.62-1.826c-.669.159-1.209.774-1.667 1.58l.87.494c.437-.768.794-1.046 1.026-1.1l-.23-.974Zm-1.664 1.575c-.475.818-.83 1.701-1.066 2.65l.97.24c.214-.86.535-1.655.96-2.387l-.864-.503Zm-1.066 2.65c-.23.922-.311 1.706-.171 2.299l.973-.23c-.083-.352-.052-.943.168-1.828l-.97-.242Zm-.171 2.299c.083.353.31.616.633.765l.42-.908c-.06-.028-.071-.05-.08-.087l-.973.23Zm.654.774c.295.12.607.134.916.06l-.23-.972a.487.487 0 0 1-.309-.014l-.377.926Zm.916.06c.753-.177 1.37-.844 1.896-1.758l-.867-.499c-.493.858-.928 1.206-1.26 1.285l.231.973Zm1.898-1.762c.55-.976.831-2.062.85-3.25l-1-.015c-.016 1.033-.259 1.954-.721 2.774l.87.491Zm.85-3.274c0-.019.004.002-.017.037a.164.164 0 0 1-.032.04c-.01.009-.017.012-.015.011l-.43-.904a.875.875 0 0 0-.387.351.92.92 0 0 0-.118.499l1-.034Zm.208-.479-.004-.017-.973.23.004.017.973-.23Zm-4.16 11.63c-.67.165-1.186.67-1.4 1.305l.948.32a.992.992 0 0 1 .693-.655l-.24-.97Zm-1.4 1.305c-3.032 8.987-11.524 15.45-21.51 15.45v1c10.429 0 19.293-6.749 22.458-16.13l-.948-.32Zm-21.51 15.45A22.608 22.608 0 0 1 12.3 43.474l-.69.724a23.608 23.608 0 0 0 16.328 6.53v-1ZM12.3 43.474a1.995 1.995 0 0 0-1.85-.503l.24.97c.32-.079.668.017.92.257l.69-.724Zm-1.85-.503c-1.382.342-1.975 2.058-.892 3.103l.694-.719c-.458-.442-.262-1.24.438-1.413l-.24-.971Zm-.892 3.103a26.38 26.38 0 0 0 18.38 7.425v-1a25.38 25.38 0 0 1-17.686-7.144l-.694.72Zm18.38 7.425c11.726 0 21.67-7.629 25.151-18.196l-.95-.312C48.79 45.162 39.22 52.5 27.94 52.5v1ZM53.09 35.304c.472-1.43-.859-2.672-2.24-2.33l.24.97c.702-.174 1.25.444 1.05 1.048l.95.313ZM4.15 24.477a1.975 1.975 0 0 0 1.457-1.574l-.984-.18a.975.975 0 0 1-.713.783l.24.97Zm1.457-1.574C7.534 12.299 16.807 4.272 27.94 4.272v-1c-11.624 0-21.304 8.382-23.316 19.452l.984.179ZM27.94 4.272c7.238 0 13.69 3.394 17.85 8.686l.786-.618c-4.34-5.523-11.078-9.068-18.637-9.068v1Zm17.85 8.686a1.98 1.98 0 0 0 2.024.712l-.24-.97a.979.979 0 0 1-.998-.36l-.787.618Zm2.024.712c1.27-.314 1.898-1.817 1.057-2.901l-.79.613c.358.461.125 1.161-.507 1.318l.24.97Zm1.057-2.901C44.027 4.522 36.452.5 27.94.5v1c8.19 0 15.48 3.868 20.141 9.882l.79-.613ZM27.94.5C14.88.5 4.033 9.958 1.858 22.402l.985.172C4.936 10.6 15.376 1.5 27.939 1.5v-1ZM1.858 22.402c-.237 1.351 1.022 2.389 2.292 2.075l-.24-.971c-.633.156-1.168-.356-1.067-.932l-.985-.172Zm64.699-12.97c-1.523 2.918-2.803 4.568-3.974 5.502-1.148.916-2.219 1.168-3.403 1.215-2.4.096-5.436-.713-9.89 1.637l.467.884c4.188-2.209 6.82-1.416 9.463-1.522 1.338-.053 2.632-.351 3.986-1.432 1.331-1.063 2.69-2.855 4.237-5.821l-.886-.463ZM50.022 18.26c.214-3.375.936-5.276 1.916-6.342.96-1.044 2.251-1.373 3.855-1.388.803-.008 1.664.064 2.578.153.907.09 1.87.197 2.843.254 1.95.115 4.013.036 5.984-.814l-.396-.918c-1.759.758-3.637.846-5.529.734-.947-.056-1.88-.16-2.804-.251-.917-.09-1.824-.166-2.685-.158-1.725.016-3.35.372-4.582 1.712-1.213 1.318-1.959 3.5-2.178 6.955l.998.063Z" fill="#000"/></svg>