<svg aria-hidden="true" style="width:0;height:0;position:absolute;overflow:hidden" xmlns="http://www.w3.org/2000/svg"><defs><symbol id="icon-star" viewBox="0 0 36 32"><path fill="#ffe550" style="fill:var(--color1,#ffe550)" d="M15.777 1.037c.593-1.383 2.611-1.383 3.204 0l3.498 8.164c.25.583.815.982 1.463 1.032l9.079.707c1.538.12 2.162 1.983.99 2.958l-6.918 5.752a1.656 1.656 0 0 0-.559 1.67l2.113 8.6c.358 1.457-1.275 2.609-2.592 1.828l-7.773-4.609a1.781 1.781 0 0 0-1.809 0L8.7 31.748c-1.317.781-2.95-.371-2.592-1.828l2.113-8.6a1.656 1.656 0 0 0-.559-1.67L.744 13.898c-1.172-.975-.548-2.838.99-2.958l9.079-.707a1.73 1.73 0 0 0 1.463-1.032l3.498-8.164z"/></symbol><symbol id="icon-warning" viewBox="0 0 32 32"><path fill="none" stroke="#ff705d" style="stroke:var(--color2,#ff705d)" stroke-linejoin="round" stroke-linecap="round" stroke-width="2.286" d="M16 11.429v6.857M16.002 26.286a1.143 1.143 0 1 0 0-2.287 1.143 1.143 0 0 0 0 2.287z"/><path fill="none" stroke="#ff705d" style="stroke:var(--color2,#ff705d)" stroke-linejoin="round" stroke-linecap="round" stroke-width="2.286" d="M18.036 2.4a2.286 2.286 0 0 0-4.068 0L1.397 27.543a2.281 2.281 0 0 0 .094 2.224 2.287 2.287 0 0 0 1.941 1.09h25.143a2.28 2.28 0 0 0 1.941-1.09 2.292 2.292 0 0 0 .093-2.224L18.038 2.4z"/></symbol><symbol id="icon-touch" viewBox="0 0 24 32"><path fill="#7eb101" style="fill:var(--color3,#7eb101)" d="M11.587.368c2.231 0 4.138.779 5.72 2.336s2.372 3.451 2.372 5.683c0 1.275-.276 2.477-.828 3.605s-1.33 2.084-2.336 2.869h-1.251v-1.839c.711-.564 1.257-1.251 1.637-2.06s.57-1.667.57-2.575c0-1.618-.576-2.992-1.729-4.12s-2.538-1.692-4.156-1.692c-1.618 0-3.004.564-4.156 1.692s-1.729 2.501-1.729 4.12c0 .907.19 1.766.57 2.575s.926 1.496 1.637 2.06v2.648c-1.373-.711-2.452-1.717-3.237-3.016S3.494 9.932 3.494 8.387c0-2.231.791-4.126 2.372-5.683S9.354.368 11.586.368zm-1.398 30.896a3.032 3.032 0 0 1-2.133-.883L.479 22.804l2.06-2.133c.343-.343.73-.607 1.159-.791s.877-.215 1.343-.092l2.869.662V8.459c0-1.03.356-1.9 1.067-2.611s1.582-1.067 2.612-1.067 1.9.356 2.611 1.067 1.067 1.582 1.067 2.611v6.326h.956c.123 0 .233.024.331.073s.208.098.331.147l5.444 2.648c.588.27 1.024.705 1.306 1.306s.362 1.22.239 1.857l-1.324 8.018c-.123.711-.466 1.293-1.03 1.747s-1.202.68-1.913.68h-9.416zm-.294-2.207h10.336l1.582-9.159-6.731-3.347h-2.023V8.459c0-.441-.135-.797-.405-1.067s-.625-.405-1.067-.405-.797.135-1.067.405c-.27.27-.405.625-.405 1.067v14.676l-5.664-1.214-.846.846 6.29 6.29zm10.335 0z"/></symbol><symbol id="icon-rocket" viewBox="0 0 32 32"><path fill="#7eb101" style="fill:var(--color3,#7eb101)" d="m4.838 13.295 4.038 1.714c.457-.914.946-1.816 1.467-2.705s1.073-1.74 1.657-2.552l-3.01-.61-4.152 4.152zm5.867 3.086 5.067 5.067c1.448-.66 2.806-1.41 4.076-2.248s2.298-1.651 3.086-2.438c2.057-2.057 3.568-4.165 4.533-6.324s1.486-4.597 1.562-7.314c-2.718.076-5.156.597-7.314 1.562s-4.267 2.476-6.324 4.533c-.787.787-1.6 1.816-2.438 3.086s-1.587 2.629-2.248 4.076zm8.724-3.657c-.508-.508-.762-1.137-.762-1.886s.254-1.378.762-1.886 1.136-.762 1.886-.762c.749 0 1.378.254 1.886.762s.762 1.136.762 1.886c0 .749-.254 1.378-.762 1.886s-1.136.762-1.886.762-1.378-.254-1.886-.762zm-.572 14.59 4.152-4.152-.61-3.009c-.813.584-1.664 1.136-2.552 1.657s-1.791 1.009-2.705 1.467l1.714 4.038zM31.276.876c.229 3.454-.203 6.603-1.295 9.448s-2.895 5.524-5.41 8.038l-.152.152.838 4.191c.076.381.057.749-.057 1.105s-.311.673-.59.952l-6.514 6.552-3.238-7.543-6.476-6.476-7.543-3.238 6.552-6.514c.279-.279.597-.476.952-.59s.724-.133 1.105-.057l4.19.838c.025-.025.051-.044.076-.057s.051-.032.076-.057c2.514-2.514 5.194-4.324 8.038-5.429S27.822.648 31.276.877zM3.39 21.905c.889-.889 1.975-1.34 3.257-1.352s2.368.425 3.257 1.314c.889.889 1.327 1.974 1.314 3.257s-.463 2.368-1.352 3.257c-.66.66-1.683 1.206-3.067 1.638s-3.46.838-6.229 1.219c.381-2.768.781-4.851 1.2-6.248s.959-2.425 1.619-3.086zm1.6 1.638c-.356.381-.673.978-.952 1.791s-.521 1.854-.724 3.124c1.27-.203 2.311-.444 3.124-.724s1.41-.597 1.79-.952c.483-.432.73-.971.743-1.619s-.21-1.213-.667-1.695c-.483-.457-1.048-.679-1.695-.667s-1.187.26-1.619.743z"/></symbol><symbol id="icon-arrow-to" viewBox="0 0 18 32"><path d="M17.653 15.035 2.792.875a1.334 1.334 0 0 0-1.84 0L.936.891a1.222 1.222 0 0 0-.282 1.373c.065.153.162.291.282.405l13.995 13.333L.936 29.33a1.212 1.212 0 0 0-.381.889 1.236 1.236 0 0 0 .381.889l.016.016a1.334 1.334 0 0 0 1.84 0l14.861-14.16a1.331 1.331 0 0 0 0-1.93z"/></symbol><symbol id="icon-arrow-from" viewBox="0 0 18 32"><path d="m.48 16.965 14.861 14.16a1.334 1.334 0 0 0 1.84 0l.016-.016a1.237 1.237 0 0 0 .382-.889 1.22 1.22 0 0 0-.382-.889L3.202 15.998 17.197 2.67a1.222 1.222 0 0 0 .282-1.373 1.231 1.231 0 0 0-.282-.405l-.016-.016a1.336 1.336 0 0 0-1.84 0L.48 15.036a1.331 1.331 0 0 0 0 1.93z"/></symbol><symbol id="icon-page-logo" viewBox="0 0 41 32"><path fill="#ffe550" style="fill:var(--color1,#ffe550)" d="M14.613 6.456c1.013-1.982 3.846-1.982 4.86 0l1.283 2.51a2.731 2.731 0 0 0 2.002 1.453l2.78.441c2.202.35 3.078 3.049 1.501 4.625l-1.984 1.983a2.728 2.728 0 0 0-.766 2.356l.438 2.773c.348 2.2-1.945 3.868-3.931 2.859l-2.517-1.278a2.73 2.73 0 0 0-2.471 0l-2.517 1.278c-1.986 1.009-4.279-.659-3.931-2.859l.438-2.773a2.732 2.732 0 0 0-.766-2.356l-1.984-1.983c-1.577-1.576-.701-4.275 1.501-4.625l2.78-.441a2.731 2.731 0 0 0 2.002-1.453l1.283-2.51z"/><path fill="#2c2c2c" style="fill:var(--color4,#2c2c2c)" d="m1.593 20.533-.021.005a31 31 0 0 1-.011.9c-.003.524-.004.868-.002 1.032 0 .157-.004.285-.01.384l.001.336c-.001.12-.008.219-.02.296l-.018.206c-.014.13-.042.201-.085.211-.092.022-.236-.049-.432-.212-.197-.17-.311-.319-.341-.447s-.038-1.06-.024-2.798c.021-1.74-.025-2.884-.141-3.432a.415.415 0 0 1 .014-.273c.036-.165.219-.321.551-.467.339-.147.845-.3 1.518-.459.68-.161 1.219-.25 1.619-.27.406-.021.625.032.655.159.02.085-.026.159-.138.223s-.212.117-.299.16a28.49 28.49 0 0 1-.349.138c-.145.049-.28.096-.404.14a11.76 11.76 0 0 0-.489.16c-.193.068-.372.133-.537.194-.167.054-.391.133-.673.237s-.465.169-.548.197c.012.02.023.051.033.093.079.333.122 1.13.129 2.392.444-.082.913-.204 1.405-.365.5-.163.806-.258.92-.284.269-.064.417-.039.444.075.052.219-.212.476-.793.77a8.668 8.668 0 0 1-1.955.697zM8.528 18.582a2.015 2.015 0 0 0-.278-.652c-.13-.201-.281-.334-.453-.398-.457.25-.788.728-.995 1.435-.201.698-.237 1.32-.108 1.865s.344.853.645.924c.486-.219.836-.668 1.049-1.347.219-.687.265-1.296.139-1.827zm-2.771.755c.117-.611.332-1.14.644-1.588.318-.456.686-.734 1.104-.833.425-.1.822-.003 1.191.291.367.287.612.689.735 1.206.121.51.121 1.063.001 1.66a3.774 3.774 0 0 1-.716 1.571c-.35.449-.769.731-1.258.846-.361.085-.702-.01-1.021-.286s-.54-.669-.661-1.179c-.123-.517-.129-1.08-.019-1.689zM13.342 17.445a2.015 2.015 0 0 0-.278-.652c-.13-.201-.281-.334-.453-.398-.457.25-.788.728-.995 1.435-.201.698-.237 1.32-.108 1.865s.344.853.645.924c.486-.22.836-.669 1.049-1.347.219-.687.265-1.296.139-1.827zm-2.771.756c.117-.611.332-1.14.644-1.588.318-.456.686-.734 1.104-.833.425-.1.822-.003 1.191.291.367.287.612.689.735 1.206.121.51.121 1.063.001 1.66a3.774 3.774 0 0 1-.716 1.571c-.35.449-.769.731-1.258.846-.361.085-.702-.01-1.021-.286s-.54-.669-.661-1.179c-.123-.517-.129-1.08-.019-1.689zM18.361 11.213c.113-.027.277.047.49.221.219.165.35.34.393.524s.079.729.107 1.635c.026.899.031 1.836.016 2.811-.02 2.188-.111 3.301-.274 3.34-.099.023-.223-.011-.372-.103-.144-.101-.226-.197-.248-.289s-.041-.282-.057-.57c-.526.872-1.048 1.369-1.565 1.491-.312.074-.628-.001-.951-.224-.315-.225-.509-.489-.581-.794-.104-.439-.111-.987-.02-1.644.097-.666.309-1.299.638-1.9s.744-.961 1.247-1.08.925.1 1.266.655c.005-1.586-.077-2.819-.248-3.699-.05-.212.002-.337.158-.374zm.068 5.491c-.091-.382-.234-.689-.431-.919-.19-.232-.376-.326-.561-.283-.305.072-.572.333-.801.784s-.382.943-.458 1.476c-.07.525-.063.965.021 1.319.03.127.101.219.211.275s.23.069.357.039c.276-.065.601-.351.974-.858a3.565 3.565 0 0 0 .698-1.645l.002-.135-.013-.053zM25.211 16.068c.138.581-.009 1.131-.439 1.651-.432.513-.988.85-1.668 1.011-.673.159-1.27.117-1.791-.127-.523-.25-.821-.531-.895-.843-.05-.212-.012-.334.116-.364.113-.027.377.091.79.352.156.09.353.163.59.219.245.054.487.053.728-.004a2.382 2.382 0 0 0 1.227-.693c.329-.347.458-.669.388-.966-.045-.191-.231-.405-.556-.643s-.675-.45-1.049-.639c-.368-.197-.716-.418-1.043-.662s-.512-.455-.554-.632c-.042-.177-.051-.373-.027-.588s.067-.379.13-.491c.204-.37.566-.751 1.087-1.143.527-.394.989-.637 1.386-.731.205-.048.395-.022.568.079s.278.226.313.375c.017.071-.044.145-.183.223s-.352.188-.64.33a5.273 5.273 0 0 0-.741.422c-.741.504-1.077.901-1.008 1.191.037.156.554.493 1.553 1.013.384.201.747.455 1.09.763.348.299.557.598.627.895zM27.651 16.602c.032.135.126.183.282.147.269-.064.577-.215.924-.454.353-.248.55-.377.593-.387.128-.03.207.022.239.157.049.205-.108.493-.469.862-.354.368-.705.593-1.052.674-.34.08-.645.055-.915-.075-.272-.138-.431-.306-.478-.504s-.064-.46-.051-.784c.011-.332.035-.767.072-1.307.042-.548.07-1 .083-1.354-.314.156-.528.248-.642.275s-.24-.003-.38-.09c-.135-.095-.215-.196-.24-.302-.04-.17.381-.441 1.265-.815a7.64 7.64 0 0 0-.179-1.606c-.05-.212-.005-.335.137-.369.12-.028.288.014.502.128.212.107.341.256.386.447s.065.542.059 1.052c.395-.131.713-.225.954-.281.425-.1.659-.058.703.126.025.106-.071.222-.288.348-.21.124-.665.348-1.367.67-.016.595-.052 1.28-.107 2.055-.057.769-.067 1.231-.03 1.387zM32.399 11.04c.319-.075.651.018.998.28.345.255.548.514.61.776.06.255.034.538-.079.849.11.086.175.168.193.246.047.198.081.549.104 1.052.029.502.051.829.065.983a3.387 3.387 0 0 1 .05.638c.014.184-.029.287-.128.311-.127.03-.26-.055-.397-.254-.132-.208-.246-.488-.345-.838-.441.949-.93 1.487-1.468 1.614-.326.077-.681.015-1.065-.186-.379-.21-.603-.463-.674-.761-.101-.425-.069-.986.095-1.682.162-.704.433-1.358.813-1.964s.79-.96 1.229-1.064zm.932 1.754c-.156-.659-.365-.957-.627-.895-.276.065-.551.339-.826.823-.276.476-.483.993-.62 1.548s-.172.979-.103 1.269c.029.12.102.208.219.262a.606.606 0 0 0 .376.023c.333-.079.655-.39.968-.935.31-.552.471-1.169.481-1.852-.004-.111.041-.189.135-.234l-.002-.011z"/><path fill="#bbf330" style="fill:var(--color5,#bbf330)" d="M31.275 19.973a.916.916 0 0 0-.643.602c-1.911 5.65-7.264 9.719-13.571 9.719a14.284 14.284 0 0 1-9.867-3.935.915.915 0 0 0-.848-.232c-.641.158-.883.934-.408 1.392a15.988 15.988 0 0 0 11.122 4.48c7.097 0 13.116-4.605 15.224-10.986.207-.626-.369-1.199-1.009-1.041zM2.304 14.15a.907.907 0 0 0 .667-.725c1.214-6.664 7.058-11.72 14.089-11.72 4.571 0 8.641 2.137 11.262 5.464.22.279.58.414.925.328.585-.144.85-.825.48-1.301A16.01 16.01 0 0 0 17.059-.002c-7.903 0-14.47 5.711-15.786 13.224-.104.592.446 1.07 1.03.926zM41.158 5.332c-3.787 7.241-5.45 2.465-10.782 5.271.533-8.406 6.18-3.291 10.782-5.271z"/></symbol><symbol id="icon-burger" viewBox="0 0 43 32"><path d="M.592 3.556a2.073 2.073 0 0 1 2.074-2.074h37.333a2.075 2.075 0 0 1 0 4.148H2.666A2.073 2.073 0 0 1 .592 3.556zm0 12.51a2.073 2.073 0 0 1 2.074-2.074h37.333a2.075 2.075 0 0 1 0 4.148H2.666a2.075 2.075 0 0 1-2.074-2.074zm2.074 10.437a2.073 2.073 0 0 0-1.467 3.541c.389.389.917.607 1.467.607h37.333A2.075 2.075 0 1 0 40 26.503H2.667z"/></symbol><symbol id="futer_logo" viewBox="0 0 43 32"><path fill="#ffe550" style="fill:var(--color1,#ffe550)" d="M14.733 8.449c1.446-2.817 5.48-2.817 6.926 0a3.904 3.904 0 0 0 2.826 2.058l.022.003c3.118.493 4.381 4.322 2.144 6.549a3.848 3.848 0 0 0-1.085 3.362l-.003-.022c.494 3.117-2.785 5.468-5.601 4.043-.514-.264-1.122-.419-1.766-.419s-1.252.155-1.788.429l.022-.01c-2.816 1.424-6.096-.927-5.601-4.043a3.847 3.847 0 0 0-1.088-3.341c-2.237-2.227-.975-6.057 2.144-6.55a3.9 3.9 0 0 0 2.838-2.039l.01-.021z"/><path fill="#2c2c2c" style="fill:var(--color2,#2c2c2c)" d="m2.709 20.651-.021.005a83.319 83.319 0 0 0-.014 1.928c0 .157-.004.284-.01.383l.001.335c-.002.12-.008.218-.02.296l-.019.206c-.014.131-.042.201-.085.21-.093.022-.237-.048-.433-.211-.198-.169-.312-.318-.343-.445s-.038-1.057-.022-2.792c.022-1.736-.024-2.878-.139-3.425a.392.392 0 0 1 .015-.274l-.001.003c.036-.165.22-.32.553-.466.341-.147.849-.301 1.525-.459.682-.161 1.224-.251 1.625-.27.408-.021.626.031.657.159.02.085-.026.159-.139.223s-.213.117-.3.16l-.35.138c-.146.049-.281.096-.406.14-.125.038-.29.091-.491.161-.194.068-.374.132-.54.194-.168.054-.393.133-.676.237s-.467.169-.55.196c.013.019.023.05.033.093.079.333.122 1.128.129 2.386a10.961 10.961 0 0 0 1.49-.388l-.078.023c.502-.163.809-.257.923-.284.27-.063.418-.039.446.075.052.219-.213.475-.797.769a8.702 8.702 0 0 1-1.963.696zm6.963-1.95a2 2 0 0 0-.283-.658l.005.007c-.13-.201-.282-.333-.455-.397-.459.25-.792.727-1 1.432-.202.696-.238 1.316-.109 1.86s.345.851.648.922c.489-.22.84-.668 1.054-1.345.22-.686.267-1.294.141-1.823zm-2.782.755c.117-.609.333-1.138.648-1.584.32-.456.689-.733 1.109-.831.427-.1.825-.004 1.195.29.368.286.614.687.737 1.203.121.508.121 1.06 0 1.656a3.748 3.748 0 0 1-.726 1.575l.006-.008c-.351.449-.772.73-1.262.846-.363.085-.705-.01-1.025-.285s-.542-.668-.663-1.176c-.122-.516-.129-1.077-.018-1.685zm7.615-1.891a2 2 0 0 0-.283-.658l.005.007c-.13-.201-.282-.333-.455-.397-.459.25-.792.727-1 1.432-.202.696-.238 1.316-.109 1.86s.345.851.648.922c.488-.22.84-.668 1.054-1.345.22-.686.267-1.293.141-1.823zm-2.782.755c.118-.609.334-1.138.648-1.584.319-.456.689-.733 1.109-.831.427-.1.824-.004 1.195.29.369.286.615.687.737 1.203.121.508.12 1.06 0 1.656a3.748 3.748 0 0 1-.726 1.575l.006-.008c-.351.448-.772.73-1.263.845-.363.085-.704-.01-1.025-.285-.32-.275-.541-.667-.663-1.176-.122-.516-.129-1.077-.018-1.685zm7.825-6.976c.113-.026.277.047.491.22.22.165.351.339.395.523s.078.728.106 1.631a60.649 60.649 0 0 1 .014 2.862l.001-.057c-.021 2.183-.113 3.294-.277 3.332-.1.024-.225-.011-.374-.102-.144-.1-.227-.196-.248-.289s-.041-.281-.056-.568c-.529.87-1.053 1.366-1.572 1.488-.313.073-.631-.001-.954-.223-.317-.224-.511-.488-.584-.792-.104-.438-.11-.985-.019-1.64.107-.71.332-1.349.656-1.924l-.014.028c.33-.6.747-.959 1.252-1.078s.929.099 1.271.653c.006-1.583-.077-2.813-.248-3.689-.05-.213.003-.337.159-.373zm.064 5.479c-.091-.381-.235-.687-.432-.917-.19-.232-.378-.325-.562-.282-.306.073-.574.333-.805.783a4.54 4.54 0 0 0-.458 1.449l-.003.024c-.07.523-.064.962.02 1.315.031.127.101.219.212.275s.23.069.358.039c.277-.065.604-.351.979-.857a3.53 3.53 0 0 0 .701-1.641l.002-.135-.013-.053zm6.809-.639c.138.579-.009 1.129-.441 1.648a3.047 3.047 0 0 1-1.675 1.009c-.675.159-1.274.117-1.798-.125-.525-.249-.824-.53-.898-.841-.05-.211-.012-.333.116-.363.114-.027.378.09.793.351.157.09.355.163.593.218.245.055.489.053.731-.004a2.393 2.393 0 0 0 1.232-.693c.331-.346.461-.668.39-.964-.046-.191-.232-.405-.558-.641s-.678-.449-1.052-.636a8.27 8.27 0 0 1-1.069-.676l.022.016c-.328-.243-.513-.454-.555-.631a1.653 1.653 0 0 1-.026-.596l-.001.009c.024-.214.068-.378.132-.489.205-.369.568-.749 1.091-1.14.53-.393.993-.637 1.392-.73.206-.048.397-.023.57.078s.279.226.314.374c.018.07-.044.144-.183.222-.125.073-.336.183-.549.288l-.094.042a5.278 5.278 0 0 0-.762.432l.018-.012c-.744.504-1.081.9-1.012 1.19.037.156.556.492 1.558 1.01.385.2.75.454 1.094.76.349.299.558.596.629.893zm2.449.533c.032.134.126.183.282.146.27-.063.58-.215.929-.453.354-.247.552-.376.595-.386.128-.03.208.022.24.156.049.205-.109.491-.471.86-.356.367-.708.592-1.057.673-.341.08-.648.055-.919-.075-.273-.137-.433-.304-.48-.502s-.064-.458-.051-.782c.011-.331.036-.765.073-1.304.043-.547.07-.998.084-1.351-.316.156-.531.248-.644.274s-.241-.002-.381-.089c-.136-.095-.216-.195-.241-.301-.04-.169.383-.441 1.271-.814a7.533 7.533 0 0 0-.179-1.602c-.05-.212-.004-.334.138-.368.12-.028.289.014.503.128.213.107.343.255.388.446.045.191.065.541.058 1.05.229-.083.549-.18.875-.263l.084-.018c.427-.1.661-.059.705.126.025.105-.071.222-.289.347-.211.124-.668.348-1.373.669-.025.79-.064 1.503-.119 2.211l.01-.16c-.058.767-.068 1.229-.031 1.384zm4.769-5.553c.32-.075.654.018 1.001.279.346.255.55.513.612.774.06.255.033.536-.08.847.11.086.175.168.194.245.047.198.082.548.103 1.05.029.5.05.827.065.981a3.374 3.374 0 0 1 .05.637c.014.183-.029.287-.129.31-.128.03-.261-.054-.398-.253a3.17 3.17 0 0 1-.345-.836c-.443.947-.935 1.484-1.475 1.611-.327.077-.684.015-1.069-.185-.38-.209-.605-.462-.676-.759-.101-.424-.069-.983.096-1.678.163-.703.435-1.355.818-1.96s.793-.958 1.234-1.062zm.935 1.75c-.157-.657-.366-.955-.629-.893-.277.065-.554.339-.83.822a5.758 5.758 0 0 0-.615 1.504l-.009.041c-.138.555-.173.977-.104 1.266.028.12.102.207.22.262a.596.596 0 0 0 .381.023l-.004.001c.334-.078.659-.39.972-.933a3.8 3.8 0 0 0 .483-1.848c-.003-.11.042-.188.137-.233l-.002-.011z"/><path fill="#bbf330" style="fill:var(--color3,#bbf330)" d="M31.525 20.209c-.487.12-.876.479-1.073.941-2.087 4.773-6.768 8.048-12.214 8.048h-.028.001a13.284 13.284 0 0 1-8.409-2.977c-.388-.314-.896-.451-1.38-.331-1.085.267-1.487 1.579-.635 2.3a16.001 16.001 0 0 0 10.395 3.811h.031-.002.025c6.712 0 12.464-4.108 14.88-9.946l.039-.107c.417-1.033-.548-2.004-1.631-1.738zM4.193 13.954c.562-.138.982-.598 1.123-1.159 1.441-5.732 6.657-9.993 12.895-9.993 3.94 0 7.473 1.7 9.904 4.397.385.427.966.635 1.525.498.981-.242 1.421-1.382.759-2.145-2.967-3.41-7.314-5.553-12.162-5.553h-.028.001c-7.647 0-14.049 5.304-15.686 12.414-.226.98.691 1.78 1.668 1.54z"/><path fill="#bbf330" style="fill:var(--color3,#bbf330);stroke:var(--color3,#bbf330)" stroke="#bbf330" stroke-linejoin="round" stroke-width="1.031" d="M42.409 5.331c-3.804 7.241-5.473 2.465-10.826 5.271.535-8.405 6.206-3.291 10.826-5.271z"/></symbol><symbol id="icon-touch_new" viewBox="0 0 32 32"><path fill="#7eb101" style="fill:var(--color1,#7eb101)" d="M15.5 1.333c2.023 0 3.75.706 5.184 2.117 1.433 1.411 2.15 3.128 2.15 5.15a7.34 7.34 0 0 1-.75 3.267 7.432 7.432 0 0 1-2.1 2.588l-.017.012h-1.133V12.8a5.181 5.181 0 0 0 1.47-1.836l.013-.031a5.346 5.346 0 0 0 .517-2.31v-.024.001c0-1.467-.523-2.711-1.567-3.733s-2.3-1.534-3.767-1.534c-1.466 0-2.722.511-3.766 1.534S10.167 7.133 10.167 8.6c0 .822.172 1.6.517 2.333a5.188 5.188 0 0 0 1.472 1.859l.011.008v2.4a7.308 7.308 0 0 1-2.915-2.701l-.018-.032a7.266 7.266 0 0 1-1.067-3.812v-.058.003c0-2.022.717-3.739 2.15-5.15s3.161-2.117 5.183-2.117zm-1.266 28a2.66 2.66 0 0 1-1.067-.216 2.764 2.764 0 0 1-.867-.584l-6.866-6.866L7.3 19.733c.311-.31.661-.55 1.05-.716a1.819 1.819 0 0 1 1.23-.081l-.013-.003 2.6.6V8.667c0-.934.322-1.723.967-2.367.644-.644 1.433-.967 2.366-.967.934 0 1.723.323 2.367.967s.967 1.433.967 2.367V14.4h.866c.111 0 .211.022.3.067s.19.088.3.133l4.934 2.4c.533.244.927.639 1.183 1.183.255.545.328 1.106.217 1.684l-1.2 7.266a2.518 2.518 0 0 1-.929 1.58l-.005.004a2.68 2.68 0 0 1-1.714.616h-8.552zm-.267-2h9.367l1.433-8.3-6.1-3.033h-1.833V8.667c0-.4-.123-.723-.367-.967s-.567-.367-.967-.367-.722.123-.966.367c-.245.244-.367.567-.367.967v13.3l-5.133-1.1-.767.766 5.7 5.7zm9.367 0z"/></symbol><symbol id="icon-rocket_new" viewBox="0 0 32 32"><path fill="#7eb101" style="fill:var(--color1,#7eb101)" d="m7.233 13.633 3.534 1.5c.4-.8.827-1.588 1.283-2.366s.939-1.522 1.45-2.234L10.867 10l-3.634 3.633zm5.134 2.7 4.433 4.434a25.986 25.986 0 0 0 3.663-2.027l-.096.06c1.11-.733 2.01-1.444 2.7-2.133 1.8-1.8 3.122-3.645 3.966-5.534s1.3-4.022 1.367-6.4c-2.378.067-4.511.523-6.4 1.367s-3.733 2.167-5.533 3.967c-.69.689-1.4 1.589-2.134 2.7a25.405 25.405 0 0 0-1.899 3.404l-.067.162zm7.633-3.2c-.444-.444-.667-.994-.667-1.65 0-.655.223-1.205.667-1.65s.994-.666 1.65-.666 1.206.222 1.65.666c.444.445.667.995.667 1.65s-.223 1.206-.667 1.65c-.444.445-.994.667-1.65.667s-1.206-.222-1.65-.667zM19.5 25.9l3.633-3.633-.533-2.634c-.711.512-1.456.995-2.233 1.45A40.49 40.49 0 0 1 18 22.367l1.5 3.533zM30.367 2.767c.2 3.022-.178 5.777-1.134 8.266-.955 2.49-2.533 4.834-4.733 7.034l-.067.066-.066.067.733 3.667c.067.333.05.655-.05.966-.1.312-.272.59-.517.834l-5.7 5.733L16 22.8l-5.667-5.667-6.6-2.833 5.734-5.7c.244-.244.522-.417.833-.517s.633-.116.967-.05l3.666.734a.247.247 0 0 1 .066-.049L15 8.717a.26.26 0 0 0 .067-.05c2.2-2.2 4.544-3.784 7.033-4.75s5.244-1.35 8.267-1.15zm-24.4 18.4c.777-.778 1.727-1.173 2.85-1.184 1.122-.01 2.072.373 2.85 1.15.777.778 1.16 1.728 1.15 2.85-.011 1.123-.406 2.073-1.184 2.85-.577.578-1.472 1.056-2.683 1.434S5.922 29 3.5 29.333c.333-2.422.683-4.244 1.05-5.466s.839-2.123 1.417-2.7zm1.4 1.433c-.311.333-.59.856-.834 1.567S6.078 25.789 5.9 26.9c1.111-.178 2.022-.389 2.733-.633.711-.245 1.234-.523 1.567-.834.422-.377.639-.85.65-1.416l.001-.061a2.02 2.02 0 0 0-.584-1.423 2.021 2.021 0 0 0-1.423-.584l-.064.001h.003a1.87 1.87 0 0 0-1.414.648l-.002.002z"/></symbol><symbol id="icon-close" viewBox="0 0 30 32"><path d="m16.219 14.826 4.928-4.923a1.013 1.013 0 0 0-1.431-1.428l.001-.001-4.927 4.874-4.959-4.955a1.014 1.014 0 0 0-1.427 1.429l-.001-.002 4.948 5.006-4.847 4.782a1.013 1.013 0 1 0 1.429 1.43l.001-.001 4.836-4.832 4.806 4.801a1.014 1.014 0 0 0 1.427-1.429l.001.002-4.785-4.751z"/></symbol></defs></svg>