<svg xmlns="http://www.w3.org/2000/svg" width="32" height="32"><path fill="#7eb101" d="M15.5 1.333c2.023 0 3.75.706 5.184 2.117 1.433 1.411 2.15 3.128 2.15 5.15a7.34 7.34 0 0 1-.75 3.267 7.432 7.432 0 0 1-2.1 2.588l-.017.012h-1.133V12.8a5.181 5.181 0 0 0 1.47-1.836l.013-.031a5.346 5.346 0 0 0 .517-2.31v-.024.001c0-1.467-.523-2.711-1.567-3.733s-2.3-1.534-3.767-1.534c-1.466 0-2.722.511-3.766 1.534S10.167 7.133 10.167 8.6c0 .822.172 1.6.517 2.333a5.188 5.188 0 0 0 1.472 1.859l.011.008v2.4a7.308 7.308 0 0 1-2.915-2.701l-.018-.032a7.266 7.266 0 0 1-1.067-3.812v-.058.003c0-2.022.717-3.739 2.15-5.15s3.161-2.117 5.183-2.117zm-1.266 28a2.66 2.66 0 0 1-1.067-.216 2.764 2.764 0 0 1-.867-.584l-6.866-6.866L7.3 19.733c.311-.31.661-.55 1.05-.716a1.819 1.819 0 0 1 1.23-.081l-.013-.003 2.6.6V8.667c0-.934.322-1.723.967-2.367.644-.644 1.433-.967 2.366-.967.934 0 1.723.323 2.367.967s.967 1.433.967 2.367V14.4h.866c.111 0 .211.022.3.067s.19.088.3.133l4.934 2.4c.533.244.927.639 1.183 1.183.255.545.328 1.106.217 1.684l-1.2 7.266a2.518 2.518 0 0 1-.929 1.58l-.005.004a2.68 2.68 0 0 1-1.714.616h-8.552zm-.267-2h9.367l1.433-8.3-6.1-3.033h-1.833V8.667c0-.4-.123-.723-.367-.967s-.567-.367-.967-.367-.722.123-.966.367c-.245.244-.367.567-.367.967v13.3l-5.133-1.1-.767.766 5.7 5.7zm9.367 0z"/></svg>