<svg width="68" height="54" viewBox="0 0 68 54" fill="none" xmlns="http://www.w3.org/2000/svg">
<path d="M23.9467 11.5393C25.595 8.30668 30.2257 8.30668 31.874 11.5393L33.9257 15.5631C34.5707 16.8279 35.7835 17.7085 37.1885 17.9321L41.6721 18.6458C45.2526 19.2157 46.6807 23.5898 44.1231 26.1528L40.8953 29.3875C39.8953 30.3896 39.4344 31.8073 39.6545 33.2039L40.3636 37.7036C40.9276 41.2822 37.1841 43.9888 33.9489 42.3416L29.9323 40.2965C28.6623 39.6499 27.1584 39.6499 25.8884 40.2965L21.8718 42.3416C18.6366 43.9888 14.8931 41.2822 15.4571 37.7036L16.1662 33.2039C16.3863 31.8073 15.9254 30.3896 14.9254 29.3875L11.6976 26.1528C9.14002 23.5898 10.5681 19.2157 14.1486 18.6458L18.6322 17.9321C20.0372 17.7085 21.2501 16.8279 21.895 15.5631L23.9467 11.5393Z" fill="#FFE550"/>
<path d="M2.81671 34.0787L2.78209 34.0869C2.78623 34.2075 2.77971 34.6952 2.76253 35.55C2.75689 36.4021 2.75516 36.9616 2.75734 37.2284C2.7568 37.4838 2.75114 37.6917 2.74037 37.8523C2.74114 38.0101 2.74158 38.1923 2.74169 38.3989C2.73908 38.594 2.72831 38.7545 2.70937 38.8805C2.69925 38.9923 2.68913 39.1041 2.67901 39.2159C2.65605 39.4279 2.60996 39.5421 2.54073 39.5585C2.39075 39.594 2.15651 39.4793 1.83803 39.2143C1.51683 38.9379 1.33174 38.6961 1.28276 38.4889C1.23377 38.2818 1.22242 36.7652 1.24871 33.9394C1.28653 31.1108 1.21221 29.2506 1.02574 28.3589C0.984923 28.1863 0.992648 28.0386 1.04892 27.9159C1.10714 27.6469 1.40667 27.3937 1.94751 27.1564C2.49989 26.9162 3.3241 26.6665 4.42014 26.4071C5.52772 26.145 6.40663 25.9978 7.05686 25.9654C7.71862 25.9303 8.074 26.0164 8.12298 26.2235C8.15564 26.3617 8.0807 26.4827 7.89817 26.5867C7.71565 26.6906 7.55347 26.7776 7.41165 26.8477C7.26711 26.9062 7.07778 26.9814 6.84366 27.0732C6.60682 27.1536 6.38728 27.2298 6.18505 27.302C5.9801 27.3627 5.71442 27.4499 5.388 27.5636C5.07312 27.6745 4.78131 27.7801 4.51258 27.8801C4.24113 27.9687 3.87569 28.0977 3.41626 28.2672C2.95684 28.4367 2.65926 28.5436 2.52354 28.5878C2.54324 28.6196 2.56125 28.6701 2.57758 28.7391C2.70548 29.2801 2.77441 30.5764 2.78435 32.628C3.50783 32.4932 4.27098 32.2944 5.0738 32.0315C5.88816 31.7658 6.38764 31.6111 6.57224 31.5675C7.01065 31.4637 7.25163 31.5039 7.29517 31.6881C7.37953 32.0448 6.94841 32.4629 6.00182 32.9421C5.06675 33.4186 4.00505 33.7975 2.81671 34.0787Z" fill="#2C2C2C"/>
<path d="M14.1146 30.8945C14.0221 30.5032 13.8716 30.1499 13.663 29.8347C13.4517 29.5079 13.2059 29.2926 12.9255 29.1888C12.1812 29.5959 11.6403 30.3741 11.3029 31.5235C10.9743 32.6586 10.9148 33.6693 11.1243 34.5555C11.3339 35.4418 11.6837 35.9424 12.1738 36.0573C12.9664 35.6996 13.5369 34.969 13.8851 33.8657C14.2422 32.7481 14.3187 31.7578 14.1146 30.8945ZM9.59989 32.1271C9.79143 31.1337 10.1422 30.2729 10.6522 29.5445C11.1711 28.8019 11.7709 28.35 12.4516 28.1889C13.1438 28.0251 13.7901 28.1821 14.3903 28.6599C14.9879 29.1261 15.386 29.7794 15.5847 30.6196C15.7806 31.4482 15.7801 32.3477 15.5831 33.318C15.3834 34.2768 14.9939 35.1286 14.4146 35.8734C13.8442 36.6039 13.161 37.0633 12.3649 37.2517C11.7765 37.391 11.2222 37.2366 10.702 36.7884C10.1818 36.3403 9.82379 35.7019 9.62786 34.8732C9.42921 34.033 9.41988 33.1176 9.59989 32.1271Z" fill="#2C2C2C"/>
<path d="M21.9564 29.0387C21.8639 28.6474 21.7133 28.2941 21.5048 27.9788C21.2935 27.6521 21.0477 27.4368 20.7673 27.333C20.0229 27.7401 19.4821 28.5183 19.1447 29.6677C18.8161 30.8028 18.7566 31.8135 18.9661 32.6997C19.1757 33.5859 19.5255 34.0865 20.0156 34.2015C20.8082 33.8437 21.3786 33.1132 21.7269 32.0099C22.084 30.8923 22.1605 29.9019 21.9564 29.0387ZM17.4417 30.2712C17.6332 29.2779 17.984 28.4171 18.494 27.6887C19.0129 26.9461 19.6126 26.4942 20.2933 26.3331C20.9856 26.1693 21.6318 26.3263 22.2321 26.804C22.8297 27.2703 23.2278 27.9235 23.4264 28.7637C23.6224 29.5924 23.6218 30.4919 23.4248 31.4622C23.2251 32.421 22.8357 33.2728 22.2564 34.0175C21.686 34.7481 21.0027 35.2075 20.2067 35.3959C19.6182 35.5352 19.064 35.3807 18.5438 34.9326C18.0236 34.4845 17.6656 33.8461 17.4696 33.0174C17.271 32.1772 17.2617 31.2618 17.4417 30.2712Z" fill="#2C2C2C"/>
<path d="M30.1418 18.8978C30.3264 18.8542 30.5922 18.9736 30.9392 19.256C31.295 19.5243 31.5083 19.808 31.5791 20.1073C31.6498 20.4065 31.707 21.2924 31.7506 22.7648C31.7914 24.2257 31.7984 25.7494 31.7714 27.3357C31.7353 30.8931 31.5846 32.7032 31.3193 32.766C31.1577 32.8042 30.9558 32.7487 30.7134 32.5995C30.4798 32.436 30.3453 32.2794 30.3099 32.1298C30.2746 31.9802 30.2442 31.6714 30.2188 31.2034C29.3603 32.6219 28.5099 33.4309 27.6677 33.6302C27.16 33.7503 26.6441 33.6294 26.1199 33.2673C25.6073 32.9024 25.2924 32.4726 25.1754 31.9777C25.0067 31.2641 24.997 30.3731 25.1465 29.3046C25.3047 28.222 25.652 27.1918 26.1884 26.2141C26.7247 25.2364 27.4025 24.6507 28.2216 24.4568C29.0408 24.2629 29.7275 24.6169 30.2819 25.5188C30.2934 22.9395 30.1606 20.9352 29.8836 19.5059C29.8019 19.1606 29.888 18.9579 30.1418 18.8978ZM30.2424 27.8252C30.0955 27.2037 29.862 26.7059 29.5422 26.3319C29.2338 25.9552 28.9296 25.8024 28.6297 25.8734C28.1336 25.9908 27.698 26.4159 27.3231 27.1488C26.9481 27.8817 26.6988 28.682 26.575 29.5499C26.4601 30.4036 26.4707 31.1181 26.6068 31.6936C26.6557 31.9008 26.7702 32.0499 26.9501 32.141C27.13 32.2321 27.3238 32.2531 27.5315 32.204C27.9815 32.0975 28.511 31.6319 29.12 30.8071C29.7406 29.9797 30.1206 29.0876 30.2599 28.131L30.2628 27.9115L30.2424 27.8252Z" fill="#2C2C2C"/>
<path d="M41.289 26.7787C41.5121 27.7225 41.273 28.6177 40.5716 29.4643C39.8676 30.2994 38.9617 30.848 37.8541 31.1101C36.7581 31.3695 35.7857 31.3018 34.9371 30.9071C34.0857 30.5009 33.6001 30.0446 33.4804 29.5382C33.3988 29.1929 33.4618 28.9957 33.6694 28.9466C33.854 28.9029 34.2828 29.0931 34.9557 29.5172C35.2096 29.6637 35.53 29.7824 35.917 29.8731C36.3154 29.9611 36.7108 29.9587 37.1031 29.8659C37.9107 29.6747 38.577 29.2983 39.1021 28.7365C39.6387 28.172 39.8498 27.648 39.7355 27.1646C39.662 26.8538 39.3605 26.5059 38.8308 26.1208C38.3012 25.7357 37.7322 25.3903 37.1239 25.0846C36.5244 24.7646 35.9584 24.4063 35.4261 24.0097C34.8937 23.6131 34.5935 23.2709 34.5255 22.9832C34.4575 22.6954 34.443 22.3768 34.4822 22.0272C34.5214 21.6776 34.5925 21.4116 34.6956 21.2292C35.0285 20.6278 35.619 20.008 36.4671 19.3698C37.3268 18.7288 38.0796 18.3319 38.7257 18.179C39.0603 18.0998 39.3688 18.1422 39.6513 18.3063C39.9337 18.4704 40.1035 18.6733 40.1607 18.915C40.1879 19.0301 40.0885 19.1508 39.8625 19.2772C39.6366 19.4036 39.2892 19.5831 38.8203 19.8156C38.3602 20.0338 37.9575 20.2628 37.6121 20.5026C36.4051 21.323 35.8573 21.9691 35.9689 22.441C36.0288 22.6942 36.8711 23.2423 38.4958 24.0854C39.1211 24.4114 39.7122 24.8245 40.269 25.3247C40.8347 25.8106 41.1747 26.2953 41.289 26.7787Z" fill="#2C2C2C"/>
<path d="M45.2624 27.6432C45.3142 27.8619 45.4669 27.9412 45.7207 27.8811C46.1592 27.7773 46.6613 27.5309 47.2272 27.1417C47.8018 26.7384 48.1238 26.5285 48.193 26.5121C48.4007 26.4629 48.5304 26.5477 48.5821 26.7664C48.661 27.1002 48.4061 27.5677 47.8172 28.1688C47.2399 28.7673 46.6686 29.1334 46.1033 29.2672C45.5495 29.3983 45.0526 29.3579 44.6127 29.146C44.17 28.9226 43.9106 28.6498 43.8344 28.3275C43.7582 28.0052 43.7308 27.5803 43.7522 27.0526C43.7709 26.5134 43.8106 25.8052 43.8712 24.9279C43.9406 24.0364 43.9864 23.3025 44.0085 22.726C43.4962 22.981 43.1477 23.1303 42.9631 23.174C42.7785 23.2177 42.5721 23.1693 42.344 23.0288C42.1247 22.8741 41.9946 22.7104 41.9538 22.5378C41.8885 22.2615 42.5758 21.8193 44.0158 21.2112C43.9976 20.2067 43.9014 19.3362 43.7273 18.5996C43.6456 18.2543 43.7202 18.0544 43.9509 17.9997C44.1471 17.9533 44.4193 18.0226 44.7676 18.2075C45.1132 18.381 45.3227 18.6231 45.3962 18.9338C45.4696 19.2446 45.5008 19.8145 45.4897 20.6436C46.1338 20.4304 46.6519 20.2774 47.0442 20.1846C47.7364 20.0207 48.1179 20.0884 48.1887 20.3877C48.2295 20.5603 48.0731 20.7493 47.7196 20.9545C47.3776 21.1569 46.6353 21.521 45.4925 22.0467C45.4652 23.0133 45.4058 24.1272 45.3142 25.3886C45.2198 26.6384 45.2026 27.39 45.2624 27.6432Z" fill="#2C2C2C"/>
<path d="M53.0037 18.5919C53.5228 18.469 54.0642 18.6204 54.6278 19.0461C55.1887 19.4603 55.5195 19.8803 55.6202 20.3062C55.7181 20.7205 55.6746 21.1805 55.4896 21.6861C55.6689 21.826 55.7735 21.9592 55.8034 22.0858C55.8796 22.4081 55.9352 22.9783 55.9703 23.7965C56.0169 24.6119 56.0515 25.1445 56.074 25.3944C56.1081 25.6416 56.1312 25.8427 56.1435 25.9978C56.1531 26.1414 56.1569 26.2863 56.155 26.4326C56.1769 26.7313 56.107 26.8997 55.9455 26.938C55.7379 26.9871 55.5226 26.8497 55.2998 26.5256C55.0858 26.1874 54.8992 25.7332 54.7401 25.1632C54.0208 26.7068 53.2227 27.5823 52.3459 27.7899C51.8152 27.9154 51.2372 27.8152 50.6118 27.4892C49.9953 27.149 49.63 26.7372 49.5157 26.2538C49.3524 25.5632 49.4048 24.6514 49.673 23.5184C49.9384 22.3739 50.3811 21.309 51.0009 20.3238C51.6208 19.3385 52.2883 18.7612 53.0037 18.5919ZM54.5182 21.442C54.2651 20.3716 53.9251 19.8869 53.4982 19.988C53.0483 20.0945 52.5995 20.541 52.152 21.3275C51.7017 22.1025 51.3641 22.942 51.1393 23.8459C50.9144 24.7499 50.8578 25.4378 50.9694 25.9097C51.0156 26.1054 51.1345 26.2474 51.3259 26.3358C51.5147 26.4127 51.7186 26.4252 51.9379 26.3733C52.4801 26.245 53.0059 25.7377 53.5151 24.8515C54.0217 23.9538 54.2838 22.9498 54.3015 21.8397C54.2953 21.6588 54.3689 21.532 54.5222 21.4593L54.5182 21.442Z" fill="#2C2C2C"/>
<path d="M50.9694 33.4588C50.4748 33.5812 50.0852 33.9568 49.9227 34.4385C46.8243 43.6232 38.1465 50.2285 27.9385 50.2285C21.747 50.2285 16.1184 47.7985 11.9563 43.8368C11.5871 43.4855 11.0661 43.3345 10.5708 43.4571C9.52999 43.7147 9.13539 44.9719 9.90588 45.7157C14.578 50.2259 20.9346 53 27.9385 53C39.4422 53 49.1995 45.5164 52.6154 35.148C52.9506 34.1307 52.0116 33.2009 50.9694 33.4588Z" fill="#BBF330"/>
<path d="M4.03033 23.9912C4.59389 23.8517 5.01168 23.3831 5.11523 22.8133C7.08462 11.9767 16.5611 3.77153 27.9385 3.77153C35.3374 3.77153 41.9324 7.24161 46.1816 12.6488C46.5401 13.105 47.1293 13.3246 47.6933 13.185C48.6441 12.9497 49.0743 11.8481 48.4751 11.0752C43.7228 4.94518 36.291 1 27.9385 1C15.1287 1 4.48437 10.2794 2.35012 22.4883C2.18176 23.4513 3.07888 24.2267 4.03033 23.9912Z" fill="#BBF330"/>
<path d="M67 9.66363C60.8607 21.4304 58.1656 13.6692 49.5234 18.2283C50.3878 4.56927 59.5409 12.8802 67 9.66363Z" fill="#BBF330"/>
<path d="M23.9467 11.5393L24.3922 11.7664L24.3922 11.7664L23.9467 11.5393ZM31.874 11.5393L31.4286 11.7664L31.4286 11.7664L31.874 11.5393ZM33.9257 15.5631L33.4803 15.7902L33.4803 15.7902L33.9257 15.5631ZM37.1885 17.9321L37.2671 17.4383L37.2671 17.4383L37.1885 17.9321ZM41.6721 18.6458L41.5935 19.1396L41.5935 19.1396L41.6721 18.6458ZM44.1231 26.1528L44.4771 26.506L44.4771 26.506L44.1231 26.1528ZM40.8953 29.3875L41.2493 29.7407L41.2493 29.7407L40.8953 29.3875ZM39.6545 33.2039L40.1484 33.1261L40.1484 33.1261L39.6545 33.2039ZM40.3636 37.7036L40.8575 37.6258L40.8575 37.6258L40.3636 37.7036ZM33.9489 42.3416L33.7221 42.7872L33.7221 42.7872L33.9489 42.3416ZM29.9323 40.2965L29.7054 40.7421L29.7054 40.7421L29.9323 40.2965ZM25.8884 40.2965L26.1153 40.7421L26.1153 40.7421L25.8884 40.2965ZM21.8718 42.3416L21.6449 41.896L21.6449 41.896L21.8718 42.3416ZM15.4571 37.7036L14.9632 37.6258L14.9632 37.6258L15.4571 37.7036ZM16.1662 33.2039L15.6723 33.1261L15.6723 33.1261L16.1662 33.2039ZM14.9254 29.3875L15.2793 29.0343L15.2793 29.0343L14.9254 29.3875ZM11.6976 26.1528L11.3437 26.506L11.3437 26.506L11.6976 26.1528ZM14.1486 18.6458L14.2272 19.1396L14.2272 19.1396L14.1486 18.6458ZM18.6322 17.9321L18.5536 17.4383L18.5536 17.4383L18.6322 17.9321ZM21.895 15.5631L21.4495 15.336L21.4495 15.336L21.895 15.5631ZM2.81671 34.0787L2.93184 34.5653L2.93186 34.5653L2.81671 34.0787ZM2.78209 34.0869L2.66696 33.6004C2.43514 33.6552 2.27422 33.866 2.28239 34.1041L2.78209 34.0869ZM2.76253 35.55L2.26259 35.54L2.26254 35.5467L2.76253 35.55ZM2.75734 37.2284L3.25736 37.2295L3.25732 37.2243L2.75734 37.2284ZM2.74037 37.8523L2.24149 37.8188C2.24069 37.8308 2.24032 37.8427 2.24038 37.8547L2.74037 37.8523ZM2.74169 38.3989L3.24169 38.4056L3.24169 38.3986L2.74169 38.3989ZM2.70937 38.8805L2.21492 38.8062C2.21347 38.8159 2.21229 38.8257 2.21141 38.8354L2.70937 38.8805ZM2.67901 39.2159L3.17618 39.2697L3.17697 39.2609L2.67901 39.2159ZM2.54073 39.5585L2.65588 40.0451L2.54073 39.5585ZM1.83803 39.2143L1.51183 39.5934L1.51828 39.5987L1.83803 39.2143ZM1.24871 33.9394L0.748749 33.9327L0.74873 33.9347L1.24871 33.9394ZM1.02574 28.3589L1.51532 28.2566L1.51233 28.2439L1.02574 28.3589ZM1.04892 27.9159L1.5034 28.1244C1.51848 28.0915 1.52995 28.0571 1.5376 28.0217L1.04892 27.9159ZM1.94751 27.1564L1.74819 26.6978L1.74656 26.6985L1.94751 27.1564ZM4.42014 26.4071L4.30499 25.9205L4.42014 26.4071ZM7.05686 25.9654L7.0817 26.4648L7.08332 26.4647L7.05686 25.9654ZM8.12298 26.2235L7.6364 26.3386L8.12298 26.2235ZM7.41165 26.8477L7.59927 27.3111C7.6107 27.3065 7.62196 27.3014 7.63301 27.296L7.41165 26.8477ZM6.84366 27.0732L7.00431 27.5467C7.0117 27.5442 7.01903 27.5415 7.0263 27.5387L6.84366 27.0732ZM6.18505 27.302L6.32695 27.7815C6.33574 27.7789 6.34446 27.776 6.3531 27.7729L6.18505 27.302ZM5.388 27.5636L5.22351 27.0914L5.22179 27.092L5.388 27.5636ZM4.51258 27.8801L4.66764 28.3555C4.67415 28.3533 4.68062 28.3511 4.68704 28.3487L4.51258 27.8801ZM2.52354 28.5878L2.36848 28.1125C2.22257 28.1601 2.1066 28.2721 2.05392 28.4162C2.00124 28.5604 2.01767 28.7207 2.09851 28.8512L2.52354 28.5878ZM2.57758 28.7391L3.06417 28.6241L2.57758 28.7391ZM2.78435 32.628L2.28436 32.6304C2.28508 32.7786 2.35151 32.9189 2.46574 33.0133C2.57996 33.1078 2.7302 33.1467 2.87591 33.1195L2.78435 32.628ZM5.0738 32.0315L4.91874 31.5561L4.91819 31.5563L5.0738 32.0315ZM6.57224 31.5675L6.45709 31.0809L6.57224 31.5675ZM7.29517 31.6881L7.78176 31.573L7.78176 31.573L7.29517 31.6881ZM6.00182 32.9421L5.77597 32.496L5.77479 32.4966L6.00182 32.9421ZM14.1146 30.8945L13.628 31.0096L14.1146 30.8945ZM13.663 29.8347L13.2431 30.1062L13.246 30.1105L13.663 29.8347ZM12.9255 29.1888L13.0991 28.7199C12.9634 28.6697 12.8126 28.6807 12.6856 28.7501L12.9255 29.1888ZM11.3029 31.5235L10.8231 31.3827L10.8226 31.3845L11.3029 31.5235ZM11.1243 34.5555L11.6109 34.4405L11.1243 34.5555ZM12.1738 36.0573L12.0597 36.5441C12.1668 36.5692 12.2792 36.5583 12.3795 36.513L12.1738 36.0573ZM13.8851 33.8657L13.4089 33.7135L13.4083 33.7152L13.8851 33.8657ZM9.59989 32.1271L9.1089 32.0324L9.10794 32.0377L9.59989 32.1271ZM10.6522 29.5445L11.0618 29.8313L11.0621 29.8309L10.6522 29.5445ZM12.4516 28.1889L12.3364 27.7024L12.4516 28.1889ZM14.3903 28.6599L14.0789 29.0511L14.0828 29.0541L14.3903 28.6599ZM15.5847 30.6196L15.0981 30.7346L15.5847 30.6196ZM15.5831 33.318L16.0726 33.42L16.0731 33.4175L15.5831 33.318ZM14.4146 35.8734L14.8087 36.1811L14.8093 36.1803L14.4146 35.8734ZM12.3649 37.2517L12.48 37.7383L12.3649 37.2517ZM10.702 36.7884L10.3757 37.1673L10.3757 37.1673L10.702 36.7884ZM9.62786 34.8732L10.1144 34.7582L9.62786 34.8732ZM21.9564 29.0387L21.4698 29.1537L21.9564 29.0387ZM21.5048 27.9788L21.0849 28.2503L21.0878 28.2547L21.5048 27.9788ZM20.7673 27.333L20.9409 26.8641C20.8052 26.8139 20.6544 26.8249 20.5274 26.8943L20.7673 27.333ZM19.1447 29.6677L18.6649 29.5268L18.6644 29.5286L19.1447 29.6677ZM18.9661 32.6997L19.4527 32.5847L18.9661 32.6997ZM20.0156 34.2015L19.9015 34.6883C20.0086 34.7134 20.121 34.7025 20.2213 34.6572L20.0156 34.2015ZM21.7269 32.0099L21.2506 31.8577L21.2501 31.8594L21.7269 32.0099ZM17.4417 30.2712L16.9507 30.1766L16.9497 30.1818L17.4417 30.2712ZM18.494 27.6887L18.9036 27.9755L18.9039 27.975L18.494 27.6887ZM20.2933 26.3331L20.1782 25.8465L20.2933 26.3331ZM22.2321 26.804L21.9207 27.1953L21.9245 27.1982L22.2321 26.804ZM23.4264 28.7637L22.9398 28.8788L23.4264 28.7637ZM23.4248 31.4622L23.9143 31.5642L23.9149 31.5617L23.4248 31.4622ZM22.2564 34.0175L22.6505 34.3252L22.6511 34.3245L22.2564 34.0175ZM20.2067 35.3959L20.3218 35.8825L20.2067 35.3959ZM18.5438 34.9326L18.2174 35.3114L18.2174 35.3114L18.5438 34.9326ZM17.4696 33.0174L17.9562 32.9024L17.4696 33.0174ZM30.1418 18.8978L30.257 19.3844L30.1418 18.8978ZM30.9392 19.256L30.6236 19.6438C30.6284 19.6477 30.6333 19.6516 30.6382 19.6553L30.9392 19.256ZM31.7506 22.7648L32.2504 22.7508L32.2503 22.75L31.7506 22.7648ZM31.7714 27.3357L31.2714 27.3272L31.2714 27.3307L31.7714 27.3357ZM31.3193 32.766L31.4344 33.2526L31.3193 32.766ZM30.7134 32.5995L30.4267 33.0091C30.4347 33.0147 30.4429 33.0201 30.4512 33.0252L30.7134 32.5995ZM30.3099 32.1298L29.8234 32.2449L29.8234 32.2449L30.3099 32.1298ZM30.2188 31.2034L30.7181 31.1763C30.7062 30.9573 30.5529 30.7716 30.3401 30.7183C30.1273 30.6651 29.9046 30.7568 29.7911 30.9445L30.2188 31.2034ZM27.6677 33.6302L27.7828 34.1167L27.6677 33.6302ZM26.1199 33.2673L25.83 33.6747L25.8358 33.6787L26.1199 33.2673ZM25.1754 31.9777L25.662 31.8626L25.1754 31.9777ZM25.1465 29.3046L24.6517 29.2323L24.6513 29.2354L25.1465 29.3046ZM26.1884 26.2141L26.6267 26.4546L26.6267 26.4546L26.1884 26.2141ZM28.2216 24.4568L28.3368 24.9434L28.3368 24.9434L28.2216 24.4568ZM30.2819 25.5188L29.8559 25.7806C29.9729 25.9709 30.2018 26.0605 30.4169 26.0002C30.6319 25.94 30.7809 25.7444 30.7819 25.521L30.2819 25.5188ZM29.8836 19.5059L30.3744 19.4107C30.3731 19.4041 30.3717 19.3974 30.3702 19.3908L29.8836 19.5059ZM30.2424 27.8252L30.729 27.7101L30.729 27.7101L30.2424 27.8252ZM29.5422 26.3319L29.1552 26.6487L29.1622 26.6569L29.5422 26.3319ZM28.6297 25.8734L28.5145 25.3868L28.6297 25.8734ZM26.575 29.5499L26.08 29.4794L26.0795 29.4832L26.575 29.5499ZM26.6068 31.6936L26.1202 31.8087L26.1202 31.8087L26.6068 31.6936ZM26.9501 32.141L27.176 31.695L27.176 31.695L26.9501 32.141ZM27.5315 32.204L27.4163 31.7174L27.5315 32.204ZM29.12 30.8071L28.72 30.5071L28.7178 30.5101L29.12 30.8071ZM30.2599 28.131L30.7547 28.203C30.7578 28.1814 30.7596 28.1595 30.7599 28.1376L30.2599 28.131ZM30.2628 27.9115L30.7628 27.9182C30.7633 27.8772 30.7588 27.8363 30.7494 27.7965L30.2628 27.9115ZM41.289 26.7787L40.8024 26.8938L40.8024 26.8938L41.289 26.7787ZM40.5716 29.4643L40.9539 29.7866L40.9567 29.7833L40.5716 29.4643ZM37.8541 31.1101L37.739 30.6235L37.8541 31.1101ZM34.9371 30.9071L34.7218 31.3584L34.7262 31.3605L34.9371 30.9071ZM33.4804 29.5382L32.9938 29.6533L33.4804 29.5382ZM33.6694 28.9466L33.7846 29.4331L33.6694 28.9466ZM34.9557 29.5172L34.689 29.9402C34.6946 29.9437 34.7001 29.9471 34.7058 29.9503L34.9557 29.5172ZM35.917 29.8731L35.8028 30.3599L35.8091 30.3613L35.917 29.8731ZM37.1031 29.8659L36.9879 29.3793L37.1031 29.8659ZM39.1021 28.7365L38.7397 28.392L38.7368 28.3951L39.1021 28.7365ZM39.7355 27.1646L39.2489 27.2796L39.7355 27.1646ZM38.8308 26.1208L38.5368 26.5252L38.5368 26.5252L38.8308 26.1208ZM37.1239 25.0846L36.8884 25.5258L36.8994 25.5313L37.1239 25.0846ZM35.4261 24.0097L35.7248 23.6087L35.7248 23.6087L35.4261 24.0097ZM34.5255 22.9832L34.0389 23.0982L34.0389 23.0982L34.5255 22.9832ZM34.6956 21.2292L35.1309 21.4752L35.133 21.4714L34.6956 21.2292ZM36.4671 19.3698L36.1682 18.9689L36.1665 18.9703L36.4671 19.3698ZM38.7257 18.179L38.6106 17.6924L38.7257 18.179ZM39.6513 18.3063L39.9024 17.874L39.9024 17.874L39.6513 18.3063ZM40.1607 18.915L40.6472 18.7999L40.1607 18.915ZM39.8625 19.2772L39.6184 18.8408L39.6184 18.8408L39.8625 19.2772ZM38.8203 19.8156L39.0346 20.2674L39.0424 20.2635L38.8203 19.8156ZM37.6121 20.5026L37.8932 20.9161L37.8972 20.9133L37.6121 20.5026ZM35.9689 22.441L35.4823 22.5561L35.9689 22.441ZM38.4958 24.0854L38.7269 23.642L38.7261 23.6415L38.4958 24.0854ZM40.269 25.3247L39.9348 25.6967L39.9432 25.7039L40.269 25.3247ZM45.2624 27.6432L44.7759 27.7582L45.2624 27.6432ZM45.7207 27.8811L45.8359 28.3677L45.7207 27.8811ZM47.2272 27.1417L47.5105 27.5537L47.5144 27.551L47.2272 27.1417ZM48.193 26.5121L48.0779 26.0255L48.193 26.5121ZM48.5821 26.7664L49.0687 26.6513L48.5821 26.7664ZM47.8172 28.1688L47.46 27.819L47.4574 27.8217L47.8172 28.1688ZM46.1033 29.2672L45.9881 28.7807L46.1033 29.2672ZM44.6127 29.146L44.3874 29.5925L44.3957 29.5965L44.6127 29.146ZM43.8344 28.3275L44.321 28.2125L43.8344 28.3275ZM43.7522 27.0526L44.2518 27.0729L44.2519 27.0699L43.7522 27.0526ZM43.8712 24.9279L43.3727 24.8891L43.3724 24.8935L43.8712 24.9279ZM44.0085 22.726L44.5081 22.7452C44.5149 22.5688 44.4281 22.4019 44.2798 22.3061C44.1316 22.2103 43.9438 22.1997 43.7857 22.2784L44.0085 22.726ZM42.9631 23.174L43.0783 23.6605L42.9631 23.174ZM42.344 23.0288L42.0558 23.4374C42.0643 23.4434 42.073 23.4491 42.0819 23.4546L42.344 23.0288ZM41.9538 22.5378L42.4404 22.4227L41.9538 22.5378ZM44.0158 21.2112L44.2103 21.6718C44.3985 21.5923 44.5194 21.4064 44.5157 21.2021L44.0158 21.2112ZM43.7273 18.5996L44.2138 18.4845L43.7273 18.5996ZM43.9509 17.9997L43.8358 17.5132L43.9509 17.9997ZM44.7676 18.2075L44.533 18.6493L44.5433 18.6544L44.7676 18.2075ZM45.4897 20.6436L44.9898 20.6369C44.9876 20.7986 45.0638 20.9514 45.1943 21.0469C45.3247 21.1425 45.4933 21.1691 45.6469 21.1183L45.4897 20.6436ZM47.0442 20.1846L47.1593 20.6711L47.0442 20.1846ZM48.1887 20.3877L48.6752 20.2727L48.1887 20.3877ZM47.7196 20.9545L47.4686 20.522L47.4649 20.5242L47.7196 20.9545ZM45.4925 22.0467L45.2836 21.5924C45.1108 21.6719 44.9981 21.8425 44.9927 22.0326L45.4925 22.0467ZM45.3142 25.3886L45.8127 25.4262L45.8128 25.4248L45.3142 25.3886ZM53.0037 18.5919L53.1188 19.0784L53.0037 18.5919ZM54.6278 19.0461L54.3265 19.4451L54.3308 19.4483L54.6278 19.0461ZM55.6202 20.3062L56.1068 20.1911L55.6202 20.3062ZM55.4896 21.6861L55.02 21.5143C54.9455 21.7181 55.0109 21.9468 55.182 22.0803L55.4896 21.6861ZM55.8034 22.0858L56.29 21.9708L55.8034 22.0858ZM55.9703 23.7965L55.4707 23.8179L55.4711 23.825L55.9703 23.7965ZM56.074 25.3944L55.576 25.4393C55.5767 25.4472 55.5776 25.4549 55.5787 25.4627L56.074 25.3944ZM56.1435 25.9978L56.6425 25.9645L56.642 25.9583L56.1435 25.9978ZM56.155 26.4326L55.655 26.4259C55.6548 26.4404 55.6553 26.4548 55.6563 26.4692L56.155 26.4326ZM55.9455 26.938L55.8304 26.4514L55.9455 26.938ZM55.2998 26.5256L54.8773 26.7929C54.8807 26.7983 54.8842 26.8037 54.8878 26.8089L55.2998 26.5256ZM54.7401 25.1632L55.2217 25.0287C55.1654 24.8272 54.9896 24.682 54.781 24.6649C54.5725 24.6477 54.3753 24.7623 54.2869 24.952L54.7401 25.1632ZM52.3459 27.7899L52.461 28.2764L52.3459 27.7899ZM50.6118 27.4892L50.3702 27.9271L50.3807 27.9326L50.6118 27.4892ZM49.5157 26.2538L49.0291 26.3688L49.5157 26.2538ZM49.673 23.5184L50.1596 23.6336L50.1601 23.6314L49.673 23.5184ZM51.0009 20.3238L50.5777 20.0575L51.0009 20.3238ZM54.5182 21.442L55.0047 21.327L55.0047 21.327L54.5182 21.442ZM53.4982 19.988L53.6134 20.4745L53.4982 19.988ZM52.152 21.3275L52.5843 21.5787L52.5865 21.5748L52.152 21.3275ZM51.1393 23.8459L50.6541 23.7253L50.6541 23.7253L51.1393 23.8459ZM50.9694 25.9097L51.4559 25.7947L50.9694 25.9097ZM51.3259 26.3358L51.1164 26.7898C51.1233 26.793 51.1303 26.796 51.1373 26.7989L51.3259 26.3358ZM51.9379 26.3733L51.8227 25.8867L51.9379 26.3733ZM53.5151 24.8515L53.9487 25.1006L53.9506 25.0972L53.5151 24.8515ZM54.3015 21.8397L54.8014 21.8477C54.8016 21.8393 54.8015 21.8309 54.8012 21.8225L54.3015 21.8397ZM54.5222 21.4593L54.7366 21.911C54.9496 21.8099 55.0631 21.5737 55.0088 21.3442L54.5222 21.4593ZM50.9694 33.4588L50.8493 32.9734L50.8493 32.9734L50.9694 33.4588ZM49.9227 34.4385L49.4489 34.2787L49.4489 34.2787L49.9227 34.4385ZM11.9563 43.8368L11.6115 44.199L11.6115 44.199L11.9563 43.8368ZM10.5708 43.4571L10.4506 42.9717L10.4506 42.9717L10.5708 43.4571ZM9.90588 45.7157L9.55862 46.0754L9.55862 46.0754L9.90588 45.7157ZM52.6154 35.148L53.0903 35.3045L53.0903 35.3045L52.6154 35.148ZM4.03033 23.9912L3.91021 23.5058L3.91021 23.5058L4.03033 23.9912ZM5.11523 22.8133L4.62329 22.7239L4.62329 22.7239L5.11523 22.8133ZM46.1816 12.6488L46.5748 12.3399L46.5748 12.3399L46.1816 12.6488ZM47.6933 13.185L47.5732 12.6996L47.5732 12.6996L47.6933 13.185ZM48.4751 11.0752L48.08 11.3816L48.08 11.3816L48.4751 11.0752ZM2.35012 22.4883L2.84265 22.5744L2.84265 22.5744L2.35012 22.4883ZM67 9.66363L67.4433 9.89492C67.5412 9.70731 67.5104 9.4784 67.3663 9.32335C67.2223 9.16831 66.9963 9.12071 66.802 9.2045L67 9.66363ZM49.5234 18.2283L49.0244 18.1967C49.013 18.3772 49.0999 18.5498 49.2518 18.6481C49.4037 18.7463 49.5967 18.7549 49.7567 18.6705L49.5234 18.2283ZM24.3922 11.7664C25.855 8.89764 29.9658 8.89764 31.4286 11.7664L32.3194 11.3122C30.4856 7.71572 25.3351 7.71572 23.5013 11.3122L24.3922 11.7664ZM31.4286 11.7664L33.4803 15.7902L34.3712 15.336L32.3194 11.3122L31.4286 11.7664ZM33.4803 15.7902C34.198 17.1978 35.5474 18.1772 37.1099 18.4259L37.2671 17.4383C36.0196 17.2398 34.9433 16.458 34.3712 15.336L33.4803 15.7902ZM37.1099 18.4259L41.5935 19.1396L41.7507 18.152L37.2671 17.4383L37.1099 18.4259ZM41.5935 19.1396C44.7728 19.6457 46.0372 23.5268 43.7692 25.7996L44.4771 26.506C47.3242 23.6528 45.7324 18.7858 41.7507 18.152L41.5935 19.1396ZM43.7692 25.7996L40.5414 29.0343L41.2493 29.7407L44.4771 26.506L43.7692 25.7996ZM40.5414 29.0343C39.4287 30.1493 38.9156 31.7271 39.1606 33.2818L40.1484 33.1261C39.9532 31.8875 40.3619 30.6299 41.2493 29.7407L40.5414 29.0343ZM39.1606 33.2818L39.8697 37.7815L40.8575 37.6258L40.1484 33.1261L39.1606 33.2818ZM39.8697 37.7815C40.3697 40.9537 37.0499 43.3593 34.1758 41.896L33.7221 42.7872C37.3184 44.6182 41.4855 41.6106 40.8575 37.6258L39.8697 37.7815ZM34.1758 41.896L30.1592 39.851L29.7054 40.7421L33.7221 42.7872L34.1758 41.896ZM30.1592 39.851C28.7466 39.1318 27.0741 39.1318 25.6615 39.851L26.1153 40.7421C27.2427 40.168 28.578 40.168 29.7054 40.7421L30.1592 39.851ZM25.6615 39.851L21.6449 41.896L22.0986 42.7872L26.1153 40.7421L25.6615 39.851ZM21.6449 41.896C18.7709 43.3593 15.4511 40.9537 15.951 37.7814L14.9632 37.6258C14.3352 41.6106 18.5023 44.6182 22.0986 42.7872L21.6449 41.896ZM15.951 37.7814L16.6601 33.2818L15.6723 33.1261L14.9632 37.6258L15.951 37.7814ZM16.6601 33.2818C16.9051 31.7271 16.392 30.1493 15.2793 29.0343L14.5715 29.7407C15.4588 30.6299 15.8675 31.8875 15.6723 33.1261L16.6601 33.2818ZM15.2793 29.0343L12.0515 25.7997L11.3437 26.506L14.5715 29.7407L15.2793 29.0343ZM12.0515 25.7997C9.78354 23.5268 11.0479 19.6457 14.2272 19.1396L14.07 18.152C10.0884 18.7858 8.49649 23.6528 11.3437 26.506L12.0515 25.7997ZM14.2272 19.1396L18.7108 18.4259L18.5536 17.4383L14.07 18.152L14.2272 19.1396ZM18.7108 18.4259C20.2733 18.1772 21.6227 17.1978 22.3404 15.7902L21.4495 15.336C20.8774 16.458 19.8011 17.2398 18.5536 17.4383L18.7108 18.4259ZM22.3404 15.7902L24.3922 11.7664L23.5013 11.3122L21.4495 15.336L22.3404 15.7902ZM2.70157 33.5922L2.66696 33.6004L2.89723 34.5735L2.93184 34.5653L2.70157 33.5922ZM2.28239 34.1041C2.28592 34.2071 2.28001 34.6754 2.26263 35.54L3.26243 35.5601C3.27941 34.715 3.28654 34.2079 3.2818 34.0698L2.28239 34.1041ZM2.26254 35.5467C2.2569 36.398 2.25514 36.9613 2.25736 37.2325L3.25732 37.2243C3.25518 36.9619 3.25687 36.4062 3.26252 35.5533L2.26254 35.5467ZM2.25734 37.2274C2.25681 37.4774 2.25125 37.6734 2.24149 37.8188L3.23925 37.8858C3.25104 37.7101 3.25679 37.4902 3.25734 37.2295L2.25734 37.2274ZM2.24038 37.8547C2.24114 38.0116 2.24158 38.1931 2.24169 38.3992L3.24169 38.3986C3.24158 38.1915 3.24114 38.0086 3.24037 37.8499L2.24038 37.8547ZM2.24173 38.3922C2.23929 38.5752 2.22923 38.711 2.21492 38.8062L3.20382 38.9548C3.22739 38.798 3.23887 38.6127 3.24164 38.4056L2.24173 38.3922ZM2.21141 38.8354C2.20129 38.9472 2.19117 39.059 2.18105 39.1708L3.17697 39.2609C3.18709 39.1492 3.19721 39.0374 3.20733 38.9256L2.21141 38.8354ZM2.18192 39.162C2.17234 39.2505 2.16127 39.2791 2.16355 39.2734C2.1652 39.2694 2.17832 39.2368 2.21352 39.1969C2.25191 39.1534 2.32163 39.0965 2.42558 39.0719L2.65588 40.0451C2.93523 39.9789 3.0508 39.747 3.09089 39.6477C3.13926 39.5278 3.16272 39.3933 3.1761 39.2697L2.18192 39.162ZM2.42558 39.0719C2.47562 39.0601 2.50886 39.0663 2.51342 39.0673C2.51756 39.0681 2.50485 39.0659 2.47249 39.05C2.40565 39.0173 2.30209 38.95 2.15779 38.83L1.51828 39.5987C1.69246 39.7436 1.86525 39.8661 2.03265 39.9481C2.18795 40.0242 2.41315 40.1025 2.65588 40.0451L2.42558 39.0719ZM2.16419 38.8354C1.85678 38.5708 1.77964 38.4174 1.76934 38.3739L0.796172 38.604C0.883839 38.9748 1.17689 39.305 1.51187 39.5933L2.16419 38.8354ZM1.76934 38.3739C1.77108 38.3812 1.76098 38.3051 1.75277 38.0706C1.74546 37.8618 1.74032 37.5698 1.73749 37.1924C1.73185 36.4384 1.73555 35.3561 1.74869 33.944L0.74873 33.9347C0.73558 35.3485 0.731815 36.4374 0.737521 37.1999C0.740371 37.5807 0.745603 37.8833 0.753381 38.1055C0.760254 38.3019 0.769939 38.493 0.796172 38.604L1.76934 38.3739ZM1.74866 33.9461C1.78634 31.1284 1.71488 29.2117 1.51516 28.2566L0.536329 28.4613C0.709537 29.2896 0.786721 31.0932 0.748753 33.9327L1.74866 33.9461ZM1.51233 28.2439C1.50074 28.1949 1.49929 28.1629 1.50024 28.1448C1.5007 28.136 1.50172 28.1305 1.50237 28.1278C1.50271 28.1264 1.50299 28.1255 1.50315 28.125C1.50331 28.1246 1.5034 28.1244 1.5034 28.1244L0.594431 27.7075C0.478962 27.9593 0.480787 28.2271 0.539159 28.474L1.51233 28.2439ZM1.5376 28.0217C1.53529 28.0324 1.53968 27.9909 1.64002 27.9061C1.73949 27.822 1.90221 27.7223 2.14846 27.6142L1.74656 26.6985C1.45197 26.8278 1.19451 26.9733 0.994456 27.1424C0.795262 27.3108 0.620772 27.5305 0.560234 27.8102L1.5376 28.0217ZM2.14684 27.6149C2.65798 27.3927 3.44784 27.151 4.53529 26.8937L4.30499 25.9205C3.20036 26.182 2.34179 26.4398 1.74819 26.6978L2.14684 27.6149ZM4.53529 26.8937C5.63168 26.6342 6.4763 26.4949 7.0817 26.4648L7.03202 25.466C6.33696 25.5006 5.42377 25.6558 4.30499 25.9205L4.53529 26.8937ZM7.08332 26.4647C7.39828 26.448 7.59516 26.4637 7.70205 26.4896C7.75439 26.5023 7.75601 26.5107 7.73527 26.4957C7.70654 26.4748 7.65636 26.423 7.6364 26.3386L8.60957 26.1085C8.51673 25.7159 8.16047 25.5717 7.93738 25.5177C7.68889 25.4575 7.37721 25.4477 7.03039 25.4661L7.08332 26.4647ZM7.6364 26.3386C7.63065 26.3143 7.62767 26.2811 7.63383 26.2434C7.63997 26.2057 7.65326 26.1755 7.66615 26.1547C7.68866 26.1184 7.70139 26.1233 7.65071 26.1522L8.14564 27.0211C8.27749 26.946 8.41895 26.8385 8.51639 26.6811C8.62353 26.5081 8.65656 26.3072 8.60957 26.1085L7.6364 26.3386ZM7.65071 26.1522C7.47416 26.2528 7.32096 26.3348 7.19029 26.3993L7.63301 27.296C7.78599 27.2205 7.95713 27.1285 8.14564 27.0211L7.65071 26.1522ZM7.22403 26.3842C7.08183 26.4418 6.89434 26.5162 6.66102 26.6078L7.0263 27.5387C7.26121 27.4465 7.45239 27.3706 7.59927 27.3111L7.22403 26.3842ZM6.68301 26.5997C6.44408 26.6808 6.22205 26.7579 6.017 26.8311L6.3531 27.7729C6.55251 27.7018 6.76955 27.6264 7.00431 27.5467L6.68301 26.5997ZM6.04316 26.8226C5.82746 26.8864 5.55346 26.9765 5.22351 27.0914L5.55248 28.0357C5.87537 27.9233 6.13274 27.8389 6.32695 27.7815L6.04316 26.8226ZM5.22179 27.092C4.90458 27.2038 4.60999 27.3103 4.33811 27.4116L4.68704 28.3487C4.95263 28.2498 5.24165 28.1453 5.5542 28.0351L5.22179 27.092ZM4.35752 27.4048C4.07726 27.4962 3.70503 27.6277 3.2432 27.7981L3.58933 28.7363C4.04634 28.5677 4.40499 28.4412 4.66764 28.3555L4.35752 27.4048ZM3.2432 27.7981C2.7814 27.9685 2.49335 28.0718 2.36848 28.1125L2.6786 29.0632C2.82517 29.0154 3.13228 28.9049 3.58933 28.7363L3.2432 27.7981ZM2.09851 28.8512C2.09051 28.8383 2.08575 28.8285 2.08353 28.8236C2.08122 28.8186 2.08048 28.8164 2.08097 28.8177C2.08142 28.819 2.08264 28.8226 2.08447 28.8289C2.08629 28.8353 2.0885 28.8436 2.091 28.8542L3.06417 28.6241C3.04447 28.5408 3.01177 28.4265 2.94857 28.3245L2.09851 28.8512ZM2.091 28.8542C2.14365 29.0769 2.1915 29.4965 2.22591 30.1436C2.25977 30.7805 2.2794 31.6086 2.28436 32.6304L3.28435 32.6255C3.27935 31.5957 3.25955 30.7499 3.22449 30.0905C3.18998 29.4414 3.13941 28.9423 3.06417 28.6241L2.091 28.8542ZM2.87591 33.1195C3.62397 32.9802 4.40862 32.7754 5.22941 32.5066L4.91819 31.5563C4.13334 31.8133 3.39169 32.0062 2.69279 32.1364L2.87591 33.1195ZM5.22886 32.5068C6.05219 32.2382 6.52794 32.0918 6.68738 32.054L6.45709 31.0809C6.24734 31.1305 5.72413 31.2934 4.91874 31.5561L5.22886 32.5068ZM6.68738 32.054C6.78111 32.0318 6.85473 32.0197 6.9106 32.0145C6.96814 32.0091 6.99492 32.0122 6.99951 32.013C7.00448 32.0138 6.96548 32.0086 6.91591 31.9695C6.85867 31.9244 6.82243 31.8616 6.80859 31.8031L7.78176 31.573C7.74615 31.4224 7.66346 31.2855 7.53509 31.1843C7.41438 31.0891 7.27958 31.0459 7.16405 31.0266C6.94386 30.9899 6.69564 31.0244 6.45709 31.0809L6.68738 32.054ZM6.80859 31.8031C6.78914 31.7208 6.86008 31.7424 6.68705 31.9102C6.52514 32.0672 6.23317 32.2646 5.77597 32.496L6.22766 33.3882C6.71706 33.1404 7.11395 32.8892 7.38316 32.6281C7.64125 32.3779 7.88557 32.0121 7.78176 31.573L6.80859 31.8031ZM5.77479 32.4966C4.88047 32.9524 3.85726 33.3187 2.70156 33.5922L2.93186 34.5653C4.15284 34.2763 5.25303 33.8849 6.22884 33.3876L5.77479 32.4966ZM14.6012 30.7795C14.496 30.3346 14.3231 29.9262 14.08 29.5588L13.246 30.1105C13.4201 30.3736 13.5482 30.6719 13.628 31.0096L14.6012 30.7795ZM14.0829 29.5632C13.8307 29.1731 13.5076 28.8711 13.0991 28.7199L12.7519 29.6577C12.9043 29.7141 13.0728 29.8427 13.2431 30.1061L14.0829 29.5632ZM12.6856 28.7501C11.7842 29.2431 11.1823 30.1591 10.8231 31.3827L11.7826 31.6643C12.0983 30.5891 12.5782 29.9487 13.1654 29.6275L12.6856 28.7501ZM10.8226 31.3845C10.477 32.5783 10.4033 33.6792 10.6378 34.6706L11.6109 34.4405C11.4262 33.6594 11.4716 32.7389 11.7832 31.6625L10.8226 31.3845ZM10.6378 34.6706C10.8547 35.5883 11.2702 36.359 12.0597 36.5441L12.288 35.5705C12.0972 35.5258 11.813 35.2952 11.6109 34.4405L10.6378 34.6706ZM12.3795 36.513C13.3409 36.0791 13.9857 35.208 14.3619 34.0162L13.4083 33.7152C13.088 34.7301 12.5919 35.32 11.9681 35.6016L12.3795 36.513ZM14.3614 34.0179C14.7375 32.841 14.8319 31.7552 14.6012 30.7795L13.628 31.0096C13.8055 31.7603 13.747 32.6553 13.4089 33.7135L14.3614 34.0179ZM10.0908 32.2217C10.2709 31.288 10.5973 30.4947 11.0618 29.8313L10.2427 29.2577C9.68711 30.0511 9.31196 30.9795 9.10893 32.0324L10.0908 32.2217ZM11.0621 29.8309C11.5319 29.1584 12.0373 28.8008 12.5667 28.6755L12.3364 27.7024C11.5044 27.8993 10.8102 28.4454 10.2424 29.2582L11.0621 29.8309ZM12.5667 28.6755C13.0967 28.5501 13.5879 28.6602 14.079 29.0511L14.7017 28.2686C13.9922 27.704 13.1909 27.5002 12.3364 27.7024L12.5667 28.6755ZM14.0828 29.0541C14.5783 29.4407 14.9218 29.9889 15.0981 30.7346L16.0712 30.5045C15.8502 29.5698 15.3975 28.8115 14.6979 28.2657L14.0828 29.0541ZM15.0981 30.7346C15.2749 31.4823 15.278 32.3077 15.0931 33.2186L16.0731 33.4175C16.2821 32.3878 16.2863 31.4142 16.0712 30.5045L15.0981 30.7346ZM15.0936 33.2161C14.9088 34.1031 14.5506 34.8842 14.02 35.5664L14.8093 36.1803C15.4372 35.373 15.8579 34.4505 16.0726 33.42L15.0936 33.2161ZM14.0206 35.5656C13.5103 36.2191 12.9206 36.6064 12.2497 36.7652L12.48 37.7383C13.4013 37.5203 14.1782 36.9886 14.8087 36.1811L14.0206 35.5656ZM12.2497 36.7652C11.8401 36.8621 11.4461 36.7695 11.0284 36.4096L10.3757 37.1673C10.9983 37.7037 11.7129 37.9199 12.48 37.7383L12.2497 36.7652ZM11.0284 36.4096C10.6056 36.0454 10.292 35.5093 10.1144 34.7582L9.14128 34.9883C9.35556 35.8946 9.75814 36.6353 10.3757 37.1673L11.0284 36.4096ZM10.1144 34.7582C9.93406 33.9953 9.92212 33.1504 10.0918 32.2165L9.10794 32.0377C8.91764 33.0849 8.92435 34.0708 9.14128 34.9883L10.1144 34.7582ZM22.443 28.9237C22.3378 28.4787 22.1648 28.0704 21.9218 27.703L21.0878 28.2547C21.2618 28.5178 21.39 28.816 21.4698 29.1537L22.443 28.9237ZM21.9247 27.7074C21.6725 27.3173 21.3493 27.0153 20.9409 26.8641L20.5937 27.8019C20.746 27.8583 20.9146 27.9869 21.0849 28.2503L21.9247 27.7074ZM20.5274 26.8943C19.6259 27.3873 19.0241 28.3033 18.6649 29.5268L19.6244 29.8085C19.94 28.7333 20.4199 28.0929 21.0072 27.7717L20.5274 26.8943ZM18.6644 29.5286C18.3188 30.7225 18.2451 31.8234 18.4795 32.8148L19.4527 32.5847C19.268 31.8036 19.3134 30.8831 19.6249 29.8067L18.6644 29.5286ZM18.4795 32.8148C18.6965 33.7325 19.112 34.5031 19.9015 34.6883L20.1298 33.7147C19.939 33.6699 19.6548 33.4394 19.4527 32.5847L18.4795 32.8148ZM20.2213 34.6572C21.1827 34.2233 21.8275 33.3522 22.2037 32.1604L21.2501 31.8594C20.9297 32.8742 20.4337 33.4642 19.8099 33.7457L20.2213 34.6572ZM22.2032 32.1621C22.5792 30.9852 22.6737 29.8994 22.443 28.9237L21.4698 29.1537C21.6473 29.9045 21.5888 30.7995 21.2506 31.8577L22.2032 32.1621ZM17.9326 30.3659C18.1127 29.4321 18.4391 28.6388 18.9036 27.9755L18.0844 27.4019C17.5289 28.1953 17.1537 29.1237 16.9507 30.1766L17.9326 30.3659ZM18.9039 27.975C19.3737 27.3026 19.8791 26.945 20.4085 26.8197L20.1782 25.8465C19.3462 26.0434 18.652 26.5895 18.0841 27.4023L18.9039 27.975ZM20.4085 26.8197C20.9385 26.6942 21.4296 26.8044 21.9207 27.1952L22.5435 26.4128C21.834 25.8481 21.0327 25.6443 20.1782 25.8465L20.4085 26.8197ZM21.9245 27.1982C22.4201 27.5849 22.7635 28.133 22.9398 28.8788L23.913 28.6487C23.692 27.714 23.2393 26.9557 22.5397 26.4098L21.9245 27.1982ZM22.9398 28.8788C23.1166 29.6265 23.1198 30.4519 22.9348 31.3627L23.9149 31.5617C24.1239 30.5319 24.1281 29.5583 23.913 28.6487L22.9398 28.8788ZM22.9354 31.3602C22.7506 32.2473 22.3924 33.0283 21.8617 33.7106L22.6511 34.3245C23.279 33.5172 23.6997 32.5947 23.9143 31.5642L22.9354 31.3602ZM21.8623 33.7098C21.352 34.3633 20.7624 34.7506 20.0915 34.9094L20.3218 35.8825C21.2431 35.6644 22.0199 35.1328 22.6505 34.3252L21.8623 33.7098ZM20.0915 34.9094C19.6818 35.0063 19.2878 34.9136 18.8701 34.5538L18.2174 35.3114C18.8401 35.8478 19.5547 36.064 20.3218 35.8825L20.0915 34.9094ZM18.8701 34.5538C18.4473 34.1896 18.1338 33.6534 17.9562 32.9024L16.983 33.1324C17.1973 34.0388 17.5999 34.7794 18.2174 35.3114L18.8701 34.5538ZM17.9562 32.9024C17.7758 32.1394 17.7639 31.2946 17.9336 30.3606L16.9497 30.1818C16.7594 31.2291 16.7661 32.215 16.983 33.1324L17.9562 32.9024ZM30.257 19.3844C30.1983 19.3983 30.1914 19.3733 30.2748 19.4107C30.3527 19.4457 30.4679 19.5171 30.6236 19.6438L31.2549 18.8683C31.0636 18.7125 30.8724 18.5829 30.6845 18.4985C30.502 18.4166 30.27 18.3537 30.0267 18.4113L30.257 19.3844ZM30.6382 19.6553C30.9417 19.8841 31.0584 20.0779 31.0925 20.2223L32.0657 19.9922C31.9583 19.5381 31.6484 19.1645 31.2402 18.8568L30.6382 19.6553ZM31.0925 20.2223C31.1167 20.3246 31.1471 20.5795 31.1761 21.0283C31.2041 21.4629 31.2291 22.046 31.2508 22.7796L32.2503 22.75C32.2285 22.0112 32.2031 21.4151 32.174 20.9639C32.1458 20.5269 32.1122 20.1892 32.0657 19.9922L31.0925 20.2223ZM31.2508 22.7788C31.2914 24.2316 31.2983 25.7477 31.2715 27.3272L32.2713 27.3442C32.2984 25.751 32.2914 24.2198 32.2504 22.7508L31.2508 22.7788ZM31.2714 27.3307C31.2534 29.1064 31.2068 30.4335 31.133 31.3198C31.0959 31.766 31.0532 32.0824 31.0087 32.2829C30.9858 32.3859 30.9676 32.4336 30.9615 32.4465C30.9586 32.4527 30.9674 32.4313 30.9947 32.4008C31.0218 32.3704 31.0895 32.3066 31.2041 32.2794L31.4344 33.2526C31.5822 33.2176 31.6821 33.1323 31.7407 33.0667C31.7993 33.0011 31.8386 32.9309 31.8652 32.8746C31.9183 32.7626 31.9558 32.6308 31.9849 32.4997C32.0444 32.232 32.0914 31.8618 32.1296 31.4028C32.2065 30.4791 32.2533 29.1225 32.2714 27.3408L31.2714 27.3307ZM31.2041 32.2794C31.2236 32.2748 31.22 32.2822 31.1792 32.2709C31.1369 32.2593 31.0698 32.2318 30.9755 32.1737L30.4512 33.0252C30.7311 33.1976 31.078 33.3369 31.4344 33.2526L31.2041 32.2794ZM31.0001 32.1898C30.9055 32.1237 30.8485 32.0708 30.8166 32.0336C30.7844 31.9962 30.7906 31.9898 30.7965 32.0148L29.8234 32.2449C29.9028 32.5808 30.1687 32.8285 30.4267 33.0091L31.0001 32.1898ZM30.7965 32.0148C30.7732 31.916 30.7439 31.6524 30.7181 31.1763L29.7195 31.2305C29.7445 31.6903 29.776 32.0444 29.8234 32.2449L30.7965 32.0148ZM29.7911 30.9445C28.9455 32.3417 28.1867 32.9935 27.5525 33.1436L27.7828 34.1167C28.8331 33.8682 29.7751 32.9022 30.6466 31.4623L29.7911 30.9445ZM27.5525 33.1436C27.2125 33.2241 26.8397 33.1568 26.4041 32.8559L25.8358 33.6787C26.4485 34.1019 27.1076 34.2765 27.7828 34.1167L27.5525 33.1436ZM26.4098 32.8599C25.9717 32.5481 25.7449 32.2133 25.662 31.8626L24.6888 32.0927C24.84 32.7319 25.2429 33.2568 25.83 33.6746L26.4098 32.8599ZM25.662 31.8626C25.5126 31.2308 25.4971 30.4072 25.6417 29.3739L24.6513 29.2354C24.497 30.3389 24.5008 31.2974 24.6888 32.0927L25.662 31.8626ZM25.6412 29.377C25.7907 28.3544 26.1185 27.3811 26.6267 26.4546L25.75 25.9736C25.1855 27.0025 24.8187 28.0896 24.6517 29.2323L25.6412 29.377ZM26.6267 26.4546C27.1183 25.5586 27.6963 25.0949 28.3368 24.9434L28.1065 23.9702C27.1087 24.2064 26.3312 24.9143 25.75 25.9736L26.6267 26.4546ZM28.3368 24.9434C28.6414 24.8713 28.8944 24.904 29.122 25.0213C29.3596 25.1438 29.6095 25.3797 29.8559 25.7806L30.7079 25.257C30.3999 24.756 30.0292 24.364 29.5801 24.1325C29.1209 23.8958 28.621 23.8485 28.1065 23.9702L28.3368 24.9434ZM30.7819 25.521C30.7934 22.9299 30.6607 20.8876 30.3744 19.4107L29.3927 19.601C29.6605 20.9828 29.7933 22.9491 29.7819 25.5166L30.7819 25.521ZM30.3702 19.3908C30.3564 19.3327 30.3536 19.2964 30.3538 19.2777C30.3539 19.2595 30.3568 19.2677 30.3471 19.2904C30.336 19.3165 30.3157 19.3443 30.2887 19.3652C30.2641 19.3842 30.2483 19.3865 30.257 19.3844L30.0267 18.4113C29.7774 18.4703 29.5439 18.6236 29.4267 18.8994C29.3235 19.1425 29.3455 19.403 29.397 19.6209L30.3702 19.3908ZM30.729 27.7101C30.569 27.0334 30.3068 26.4567 29.9221 26.0069L29.1622 26.6569C29.4173 26.9551 29.6219 27.3739 29.7558 27.9402L30.729 27.7101ZM29.9291 26.0152C29.5765 25.5846 29.095 25.2494 28.5145 25.3868L28.7448 26.3599C28.7643 26.3553 28.891 26.3259 29.1552 26.6486L29.9291 26.0152ZM28.5145 25.3868C27.8077 25.5541 27.2793 26.1366 26.8779 26.9211L27.7682 27.3765C28.1168 26.6952 28.4594 26.4275 28.7448 26.3599L28.5145 25.3868ZM26.8779 26.9211C26.4762 27.7063 26.2111 28.5603 26.08 29.4794L27.07 29.6205C27.1865 28.8038 27.42 28.057 27.7682 27.3765L26.8779 26.9211ZM26.0795 29.4832C25.9598 30.3722 25.9652 31.1531 26.1202 31.8087L27.0933 31.5786C26.9762 31.0832 26.9604 30.4349 27.0706 29.6166L26.0795 29.4832ZM26.1202 31.8087C26.2009 32.1501 26.4048 32.4253 26.7242 32.5871L27.176 31.695C27.1356 31.6745 27.1106 31.6515 27.0933 31.5786L26.1202 31.8087ZM26.7242 32.5871C27.0159 32.7348 27.3313 32.7652 27.6466 32.6905L27.4163 31.7174C27.3163 31.7411 27.2441 31.7295 27.176 31.695L26.7242 32.5871ZM27.6466 32.6905C27.9823 32.6111 28.2995 32.4113 28.5963 32.1504C28.8968 31.8861 29.2052 31.5335 29.5222 31.1042L28.7178 30.5101C28.4258 30.9055 28.1649 31.1981 27.9359 31.3994C27.7032 31.6041 27.5306 31.6904 27.4163 31.7174L27.6466 32.6905ZM29.52 31.1071C30.1872 30.2176 30.6025 29.2481 30.7547 28.203L29.7651 28.0589C29.6387 28.9271 29.2941 29.7417 28.72 30.5071L29.52 31.1071ZM30.7599 28.1376L30.7628 27.9182L29.7629 27.9048L29.7599 28.1243L30.7599 28.1376ZM30.7494 27.7965L30.729 27.7101L29.7558 27.9402L29.7762 28.0265L30.7494 27.7965ZM40.8024 26.8938C40.9843 27.6631 40.8032 28.401 40.1866 29.1453L40.9567 29.7833C41.7428 28.8344 42.04 27.7819 41.7756 26.6637L40.8024 26.8938ZM40.1894 29.142C39.5575 29.8915 38.7469 30.385 37.739 30.6235L37.9693 31.5966C39.1765 31.3109 40.1776 30.7072 40.9539 29.7866L40.1894 29.142ZM37.739 30.6235C36.7293 30.8625 35.8752 30.792 35.1479 30.4538L34.7262 31.3605C35.6963 31.8116 36.7869 31.8765 37.9693 31.5966L37.739 30.6235ZM35.1524 30.4559C34.3331 30.065 34.0319 29.6978 33.967 29.4232L32.9938 29.6533C33.1684 30.3915 33.8383 30.9369 34.7218 31.3584L35.1524 30.4559ZM33.967 29.4232C33.952 29.3598 33.9469 29.3164 33.946 29.2899C33.9451 29.2626 33.9489 29.2641 33.9427 29.2835C33.9353 29.3066 33.9165 29.3453 33.8774 29.381C33.8388 29.4161 33.8014 29.4291 33.7846 29.4331L33.5543 28.46C33.2862 28.5235 33.077 28.7073 32.9902 28.9792C32.9177 29.2059 32.9452 29.4477 32.9938 29.6533L33.967 29.4232ZM33.7846 29.4331C33.7202 29.4484 33.6926 29.4332 33.7375 29.444C33.7739 29.4527 33.8353 29.473 33.9267 29.5135C34.109 29.5944 34.3611 29.7335 34.689 29.9402L35.2223 29.0942C34.8774 28.8768 34.5786 28.7088 34.3322 28.5994C34.2092 28.5449 34.0868 28.4993 33.9699 28.4713C33.8614 28.4454 33.711 28.4229 33.5543 28.46L33.7846 29.4331ZM34.7058 29.9503C35.0141 30.1282 35.384 30.2617 35.8028 30.3599L36.0311 29.3863C35.6761 29.3031 35.4051 29.1993 35.2055 29.0841L34.7058 29.9503ZM35.8091 30.3613C36.2802 30.4654 36.7518 30.4628 37.2182 30.3524L36.9879 29.3793C36.6699 29.4546 36.3507 29.4568 36.0248 29.3849L35.8091 30.3613ZM37.2182 30.3524C38.1138 30.1405 38.8697 29.7174 39.4674 29.0779L38.7368 28.3951C38.2844 28.8791 37.7076 29.209 36.9879 29.3793L37.2182 30.3524ZM39.4645 29.0809C40.0485 28.4666 40.3937 27.7753 40.2221 27.0495L39.2489 27.2796C39.3059 27.5207 39.2288 27.8774 38.7397 28.392L39.4645 29.0809ZM40.2221 27.0495C40.1039 26.5498 39.6659 26.1098 39.1249 25.7164L38.5368 26.5252C39.055 26.902 39.2201 27.1578 39.2489 27.2796L40.2221 27.0495ZM39.1249 25.7164C38.5724 25.3147 37.9801 24.9552 37.3484 24.6378L36.8994 25.5313C37.4844 25.8253 38.03 26.1567 38.5368 26.5252L39.1249 25.7164ZM37.3593 24.6434C36.7814 24.335 36.2366 23.9901 35.7248 23.6087L35.1274 24.4106C35.6803 24.8226 36.2674 25.1942 36.8885 25.5257L37.3593 24.6434ZM35.7248 23.6087C35.4752 23.4228 35.2966 23.2616 35.1775 23.1259C35.0549 22.986 35.0198 22.9009 35.0121 22.8681L34.0389 23.0982C34.0992 23.3532 34.2483 23.583 34.4258 23.7853C34.6069 23.9918 34.8446 24.2 35.1274 24.4107L35.7248 23.6087ZM35.0121 22.8681C34.9595 22.6457 34.9451 22.3859 34.9791 22.0829L33.9853 21.9715C33.9409 22.3676 33.9554 22.7451 34.0389 23.0982L35.0121 22.8681ZM34.9791 22.0829C35.0152 21.7609 35.0761 21.5723 35.1309 21.4752L34.2603 20.9833C34.109 21.251 34.0276 21.5944 33.9853 21.9715L34.9791 22.0829ZM35.133 21.4714C35.4185 20.9557 35.9484 20.3859 36.7678 19.7693L36.1665 18.9703C35.2897 19.6301 34.6385 20.2999 34.2581 20.9871L35.133 21.4714ZM36.766 19.7706C37.6006 19.1484 38.2897 18.796 38.8409 18.6655L38.6106 17.6924C37.8696 17.8678 37.053 18.3093 36.1683 18.9689L36.766 19.7706ZM38.8409 18.6655C39.0581 18.6141 39.2346 18.6425 39.4001 18.7387L39.9024 17.874C39.503 17.642 39.0625 17.5855 38.6106 17.6924L38.8409 18.6655ZM39.4001 18.7387C39.603 18.8565 39.6576 18.9604 39.6741 19.03L40.6472 18.7999C40.5494 18.3861 40.2644 18.0842 39.9024 17.874L39.4001 18.7387ZM39.6741 19.03C39.6596 18.9687 39.6634 18.9076 39.6792 18.8561C39.6937 18.8086 39.7144 18.7815 39.7205 18.7741C39.7265 18.7669 39.7244 18.7712 39.7058 18.7853C39.6878 18.799 39.6597 18.8178 39.6184 18.8408L40.1066 19.7136C40.243 19.6373 40.3858 19.5393 40.4926 19.4096C40.6069 19.2708 40.7077 19.0558 40.6472 18.7999L39.6741 19.03ZM39.6184 18.8408C39.4038 18.9609 39.0655 19.1359 38.5982 19.3676L39.0424 20.2635C39.5128 20.0302 39.8694 19.8463 40.1066 19.7136L39.6184 18.8408ZM38.606 19.3638C38.1262 19.5914 37.6989 19.8337 37.327 20.0918L37.8972 20.9133C38.2161 20.692 38.5942 20.4762 39.0346 20.2673L38.606 19.3638ZM37.3311 20.089C36.7129 20.5092 36.2313 20.9055 35.9146 21.2792C35.6127 21.6354 35.3698 22.0801 35.4823 22.5561L36.4555 22.326C36.4553 22.3251 36.454 22.3199 36.4553 22.3073C36.4567 22.2939 36.4612 22.2706 36.4747 22.2361C36.5027 22.1644 36.5627 22.0611 36.6774 21.9258C36.9085 21.6533 37.3043 21.3164 37.8932 20.9161L37.3311 20.089ZM35.4823 22.5561C35.5134 22.6874 35.5812 22.79 35.6341 22.8577C35.6909 22.9304 35.7587 22.9981 35.8285 23.0601C35.968 23.184 36.1531 23.3181 36.3728 23.4611C36.8145 23.7485 37.4483 24.1052 38.2655 24.5292L38.7261 23.6415C37.9185 23.2225 37.3188 22.8836 36.9182 22.6229C36.7168 22.4918 36.5785 22.3888 36.4926 22.3124C36.4496 22.2742 36.429 22.2509 36.422 22.2419C36.411 22.2279 36.4394 22.258 36.4555 22.326L35.4823 22.5561ZM38.2646 24.5287C38.8506 24.8342 39.4073 25.2227 39.9349 25.6966L40.6032 24.9527C40.017 24.4262 39.3916 23.9885 38.7269 23.642L38.2646 24.5287ZM39.9432 25.7039C40.4668 26.1537 40.7219 26.5531 40.8024 26.8938L41.7756 26.6637C41.6275 26.0375 41.2026 25.4676 40.5949 24.9454L39.9432 25.7039ZM44.7759 27.7582C44.8243 27.963 44.943 28.1846 45.1854 28.3104C45.4111 28.4276 45.6503 28.4116 45.8359 28.3677L45.6056 27.3945C45.5374 27.4107 45.5732 27.385 45.6462 27.4229C45.6846 27.4428 45.7139 27.4711 45.7325 27.4982C45.7492 27.5225 45.7511 27.5368 45.749 27.5281L44.7759 27.7582ZM45.8359 28.3677C46.3575 28.2442 46.9176 27.9614 47.5105 27.5537L46.9438 26.7298C46.405 27.1003 45.9608 27.3105 45.6056 27.3945L45.8359 28.3677ZM47.5144 27.551C47.8002 27.3504 48.0189 27.2009 48.1727 27.1006C48.2501 27.0502 48.3063 27.0153 48.3441 26.9935C48.3632 26.9824 48.3727 26.9775 48.3749 26.9765C48.3857 26.9712 48.3566 26.9872 48.3082 26.9987L48.0779 26.0255C48.0121 26.0411 47.9579 26.0672 47.9355 26.0781C47.9047 26.0933 47.8732 26.1106 47.8434 26.1278C47.7833 26.1626 47.7102 26.2085 47.6266 26.2629C47.4584 26.3726 47.2288 26.5297 46.9399 26.7325L47.5144 27.551ZM48.3082 26.9987C48.3304 26.9934 48.2604 27.0148 48.1725 26.9573C48.0901 26.9035 48.0859 26.841 48.0955 26.8814L49.0687 26.6513C49.0265 26.4731 48.9317 26.2589 48.7196 26.1203C48.502 25.978 48.2633 25.9816 48.0779 26.0255L48.3082 26.9987ZM48.0955 26.8814C48.0945 26.8772 48.1108 26.9451 48.0111 27.1279C47.9146 27.3049 47.7386 27.5346 47.46 27.819L48.1744 28.5187C48.4847 28.2019 48.7306 27.8972 48.889 27.6067C49.0442 27.3221 49.1486 26.9894 49.0687 26.6513L48.0955 26.8814ZM47.4574 27.8217C46.9193 28.3795 46.4282 28.6765 45.9881 28.7807L46.2184 29.7538C46.9091 29.5903 47.5606 29.1551 48.1771 28.516L47.4574 27.8217ZM45.9881 28.7807C45.5266 28.8899 45.1497 28.8497 44.8296 28.6955L44.3957 29.5965C44.9556 29.8661 45.5724 29.9067 46.2184 29.7538L45.9881 28.7807ZM44.8379 28.6996C44.4604 28.5091 44.3492 28.3317 44.321 28.2125L43.3478 28.4426C43.472 28.9679 43.8796 29.3361 44.3874 29.5924L44.8379 28.6996ZM44.321 28.2125C44.2596 27.9527 44.2313 27.5786 44.2518 27.0729L43.2526 27.0323C43.2303 27.5819 43.2568 28.0578 43.3478 28.4426L44.321 28.2125ZM44.2519 27.0699C44.2704 26.5389 44.3096 25.837 44.37 24.9624L43.3724 24.8935C43.3116 25.7734 43.2715 26.4879 43.2525 27.0353L44.2519 27.0699ZM44.3697 24.9668C44.4394 24.0718 44.4857 23.3307 44.5081 22.7452L43.5088 22.7069C43.4871 23.2742 43.4419 24.001 43.3727 24.8891L44.3697 24.9668ZM43.7857 22.2784C43.2643 22.5379 42.9671 22.6592 42.848 22.6874L43.0783 23.6605C43.3283 23.6013 43.728 23.4241 44.2312 23.1737L43.7857 22.2784ZM42.848 22.6874C42.8375 22.6899 42.7685 22.703 42.6061 22.603L42.0819 23.4546C42.3757 23.6355 42.7195 23.7454 43.0783 23.6605L42.848 22.6874ZM42.6322 22.6202C42.4631 22.501 42.4418 22.4286 42.4404 22.4227L41.4672 22.6528C41.5475 22.9923 41.7862 23.2472 42.0558 23.4374L42.6322 22.6202ZM42.4404 22.4227C42.4803 22.5915 42.3808 22.6766 42.4239 22.6268C42.4559 22.5898 42.5347 22.5199 42.6908 22.4194C42.9975 22.2221 43.4975 21.9728 44.2103 21.6718L43.8213 20.7506C43.0941 21.0577 42.5304 21.3336 42.1498 21.5785C41.9622 21.6991 41.7914 21.8296 41.6679 21.9722C41.5556 22.102 41.3946 22.3459 41.4672 22.6528L42.4404 22.4227ZM44.5157 21.2021C44.4971 20.1728 44.3984 19.2651 44.2138 18.4845L43.2407 18.7146C43.4044 19.4073 43.4981 20.2407 43.5159 21.2202L44.5157 21.2021ZM44.2138 18.4845C44.1995 18.4238 44.1956 18.3839 44.1953 18.3614C44.195 18.3386 44.1985 18.3438 44.1904 18.3653C44.181 18.3906 44.1609 18.424 44.1273 18.452C44.0956 18.4784 44.0693 18.4855 44.0661 18.4863L43.8358 17.5132C43.5792 17.5739 43.3563 17.7402 43.2534 18.016C43.1656 18.2516 43.1907 18.5031 43.2407 18.7146L44.2138 18.4845ZM44.0661 18.4863C44.0609 18.4875 44.0919 18.4793 44.1789 18.5014C44.2643 18.5232 44.3812 18.5685 44.5331 18.6491L45.0021 17.7659C44.6349 17.571 44.2204 17.4222 43.8358 17.5132L44.0661 18.4863ZM44.5433 18.6544C44.7873 18.7769 44.8773 18.9124 44.9096 19.0489L45.8827 18.8188C45.7681 18.3337 45.439 17.9851 44.9919 17.7607L44.5433 18.6544ZM44.9096 19.0489C44.967 19.2919 45.0009 19.8039 44.9898 20.6369L45.9897 20.6503C46.0007 19.8251 45.9722 19.1973 45.8827 18.8188L44.9096 19.0489ZM45.6469 21.1183C46.285 20.907 46.7875 20.7591 47.1593 20.6711L46.929 19.698C46.5163 19.7957 45.9825 19.9538 45.3326 20.1689L45.6469 21.1183ZM47.1593 20.6711C47.4853 20.594 47.6733 20.589 47.7621 20.6048C47.8006 20.6116 47.7898 20.6173 47.7623 20.5949C47.728 20.5671 47.7083 20.529 47.7021 20.5027L48.6752 20.2727C48.6337 20.0968 48.5397 19.938 48.3924 19.8184C48.2518 19.7043 48.0891 19.6472 47.9369 19.6202C47.6441 19.5682 47.2953 19.6113 46.929 19.698L47.1593 20.6711ZM47.7021 20.5027C47.6899 20.4514 47.6948 20.4031 47.706 20.3681C47.7158 20.3375 47.7265 20.3284 47.7168 20.3401C47.7073 20.3516 47.6851 20.3747 47.642 20.408C47.5996 20.4408 47.5427 20.479 47.4686 20.522L47.9706 21.3869C48.1691 21.2717 48.3545 21.138 48.4872 20.9777C48.6245 20.8118 48.7443 20.5645 48.6752 20.2727L47.7021 20.5027ZM47.4649 20.5242C47.1492 20.7111 46.4312 21.0645 45.2836 21.5924L45.7015 22.5009C46.8393 21.9775 47.6061 21.6027 47.9743 21.3847L47.4649 20.5242ZM44.9927 22.0326C44.9657 22.9899 44.9067 24.0963 44.8155 25.3524L45.8128 25.4248C45.9048 24.1582 45.9648 23.0366 45.9923 22.0608L44.9927 22.0326ZM44.8156 25.351C44.7681 25.9797 44.7395 26.4898 44.7306 26.8782C44.7222 27.2446 44.7289 27.5594 44.7759 27.7582L45.749 27.5281C45.7362 27.4738 45.7215 27.2862 45.7303 26.9011C45.7387 26.5379 45.7659 26.0473 45.8127 25.4262L44.8156 25.351ZM53.1188 19.0784C53.4494 19.0002 53.8406 19.0781 54.3265 19.4451L54.9292 18.6471C54.2878 18.1627 53.5963 17.9378 52.8885 18.1053L53.1188 19.0784ZM54.3308 19.4483C54.8497 19.8315 55.0722 20.1616 55.1336 20.4212L56.1068 20.1911C55.9668 19.599 55.5277 19.0891 54.9248 18.6439L54.3308 19.4483ZM55.1336 20.4212C55.2038 20.718 55.1803 21.0763 55.02 21.5143L55.9591 21.8579C56.1689 21.2847 56.2325 20.723 56.1068 20.1911L55.1336 20.4212ZM55.182 22.0803C55.2498 22.1332 55.2888 22.1737 55.3092 22.1997C55.3297 22.2258 55.3228 22.2261 55.3168 22.2009L56.29 21.9708C56.2205 21.6769 56.0059 21.4548 55.7972 21.2919L55.182 22.0803ZM55.3168 22.2009C55.3809 22.4718 55.4356 22.9987 55.4707 23.8179L56.4698 23.7751C56.4348 22.958 56.3783 22.3445 56.29 21.9708L55.3168 22.2009ZM55.4711 23.825C55.5176 24.6385 55.5526 25.1797 55.576 25.4393L56.572 25.3495C56.5503 25.1093 56.5162 24.5852 56.4695 23.7679L55.4711 23.825ZM55.5787 25.4627C55.6121 25.7053 55.6339 25.8958 55.6451 26.0373L56.642 25.9583C56.6286 25.7896 56.604 25.5779 56.5693 25.3261L55.5787 25.4627ZM55.6447 26.0311C55.6533 26.1611 55.6568 26.2927 55.655 26.4259L56.6549 26.4393C56.6571 26.2799 56.6529 26.1216 56.6424 25.9645L55.6447 26.0311ZM55.6563 26.4692C55.6602 26.5222 55.6591 26.5585 55.6568 26.5812C55.6544 26.6044 55.6516 26.605 55.6571 26.5915C55.6634 26.5763 55.6803 26.5442 55.7164 26.512C55.7538 26.4785 55.7956 26.4596 55.8304 26.4514L56.0607 27.4245C56.3148 27.3644 56.4916 27.19 56.5809 26.9744C56.659 26.7861 56.6671 26.5791 56.6536 26.3961L55.6563 26.4692ZM55.8304 26.4514C55.8507 26.4466 55.8725 26.4466 55.8905 26.4504C55.9067 26.4538 55.9093 26.4579 55.8974 26.4503C55.8683 26.4317 55.8037 26.3759 55.7118 26.2423L54.8878 26.8089C55.1231 27.1511 55.5187 27.5528 56.0607 27.4245L55.8304 26.4514ZM55.7224 26.2583C55.5436 25.9758 55.3734 25.572 55.2217 25.0287L54.2585 25.2976C54.4251 25.8944 54.628 26.3989 54.8773 26.7929L55.7224 26.2583ZM54.2869 24.952C53.579 26.4712 52.8686 27.1523 52.2307 27.3033L52.461 28.2764C53.5768 28.0123 54.4626 26.9424 55.1933 25.3744L54.2869 24.952ZM52.2307 27.3033C51.8477 27.3939 51.3937 27.333 50.843 27.0459L50.3807 27.9326C51.0806 28.2975 51.7826 28.437 52.461 28.2764L52.2307 27.3033ZM50.8534 27.0515C50.3076 26.7502 50.0724 26.4353 50.0022 26.1387L49.0291 26.3688C49.1875 27.039 49.6831 27.5478 50.3702 27.927L50.8534 27.0515ZM50.0022 26.1387C49.8648 25.5574 49.8992 24.7337 50.1595 23.6336L49.1864 23.4033C48.9105 24.5691 48.84 25.569 49.0291 26.3688L50.0022 26.1387ZM50.1601 23.6314C50.413 22.5407 50.8343 21.5277 51.4241 20.59L50.5777 20.0575C49.9279 21.0904 49.4638 22.2072 49.1859 23.4055L50.1601 23.6314ZM51.4241 20.59C52.0134 19.6533 52.5884 19.204 53.1188 19.0784L52.8885 18.1053C51.9883 18.3184 51.2281 19.0237 50.5777 20.0575L51.4241 20.59ZM55.0047 21.327C54.8739 20.7738 54.7082 20.3101 54.4827 19.9886C54.3673 19.8241 54.2187 19.6714 54.0258 19.5749C53.8225 19.4731 53.601 19.4498 53.3831 19.5014L53.6134 20.4745C53.6151 20.4741 53.6092 20.4756 53.5985 20.4744C53.5877 20.4732 53.5803 20.4702 53.5784 20.4692C53.5772 20.4686 53.6094 20.485 53.664 20.5628C53.7785 20.7261 53.9093 21.0399 54.0316 21.5571L55.0047 21.327ZM53.3831 19.5014C52.7152 19.6595 52.1753 20.2754 51.7174 21.0802L52.5865 21.5748C53.0237 20.8065 53.3813 20.5295 53.6134 20.4745L53.3831 19.5014ZM51.7196 21.0763C51.2447 21.8937 50.8899 22.7773 50.6541 23.7253L51.6245 23.9666C51.8384 23.1066 52.1586 22.3113 52.5843 21.5787L51.7196 21.0763ZM50.6541 23.7253C50.4246 24.6478 50.3427 25.4324 50.4828 26.0248L51.4559 25.7947C51.3729 25.4433 51.4043 24.852 51.6245 23.9666L50.6541 23.7253ZM50.4828 26.0248C50.5663 26.3783 50.7933 26.6406 51.1164 26.7898L51.5355 25.8818C51.4757 25.8542 51.4649 25.8325 51.4559 25.7947L50.4828 26.0248ZM51.1373 26.7989C51.4325 26.9191 51.7437 26.933 52.053 26.8598L51.8227 25.8867C51.6935 25.9173 51.5968 25.9062 51.5145 25.8727L51.1373 26.7989ZM52.053 26.8598C52.8058 26.6817 53.423 26.0153 53.9486 25.1006L53.0816 24.6024C52.5887 25.4601 52.1544 25.8082 51.8227 25.8867L52.053 26.8598ZM53.9506 25.0972C54.5012 24.1213 54.7825 23.0346 54.8014 21.8477L53.8016 21.8317C53.7851 22.8651 53.5421 23.7863 53.0797 24.6058L53.9506 25.0972ZM54.8012 21.8225C54.8006 21.804 54.8048 21.8249 54.7845 21.8599C54.7749 21.8764 54.7633 21.8898 54.7524 21.8995C54.7418 21.9087 54.7351 21.9117 54.7366 21.911L54.3079 21.0075C54.1548 21.0802 54.0148 21.1939 53.9196 21.358C53.8257 21.5198 53.7962 21.6945 53.8018 21.8568L54.8012 21.8225ZM55.0088 21.3442L55.0047 21.327L54.0316 21.5571L54.0357 21.5743L55.0088 21.3442ZM50.8493 32.9734C50.1799 33.1391 49.663 33.6442 49.4489 34.2787L50.3965 34.5983C50.5074 34.2694 50.7697 34.0233 51.0895 33.9441L50.8493 32.9734ZM49.4489 34.2787C46.417 43.2664 37.9254 49.7285 27.9385 49.7285V50.7285C38.3677 50.7285 47.2317 43.98 50.3965 34.5983L49.4489 34.2787ZM27.9385 49.7285C21.8804 49.7285 16.3739 47.3514 12.301 43.4747L11.6115 44.199C15.8628 48.2455 21.6135 50.7285 27.9385 50.7285V49.7285ZM12.301 43.4747C11.815 43.0121 11.1208 42.8059 10.4506 42.9717L10.6909 43.9425C11.0113 43.8632 11.3592 43.9588 11.6115 44.199L12.301 43.4747ZM10.4506 42.9717C9.06885 43.3137 8.4757 45.03 9.55862 46.0754L10.2531 45.356C9.79508 44.9138 9.99113 44.1156 10.6909 43.9425L10.4506 42.9717ZM9.55862 46.0754C14.3202 50.672 20.7998 53.5 27.9385 53.5V52.5C21.0693 52.5 14.8359 49.7799 10.2531 45.356L9.55862 46.0754ZM27.9385 53.5C39.6647 53.5 49.609 45.8715 53.0903 35.3045L52.1405 34.9916C48.7901 45.1612 39.2198 52.5 27.9385 52.5V53.5ZM53.0903 35.3045C53.5618 33.8731 52.2311 32.6315 50.8493 32.9734L51.0895 33.9442C51.7922 33.7702 52.3393 34.3882 52.1405 34.9916L53.0903 35.3045ZM4.15045 24.4766C4.91591 24.2871 5.47046 23.655 5.60717 22.9027L4.62329 22.7239C4.55289 23.1113 4.27187 23.4163 3.91021 23.5058L4.15045 24.4766ZM5.60717 22.9027C7.53417 12.2994 16.8073 4.27153 27.9385 4.27153V3.27153C16.3149 3.27153 6.63507 11.6541 4.62329 22.7239L5.60717 22.9027ZM27.9385 4.27153C35.1774 4.27153 41.6299 7.66591 45.7885 12.9578L46.5748 12.3399C42.2349 6.81732 35.4974 3.27153 27.9385 3.27153V4.27153ZM45.7885 12.9578C46.2614 13.5595 47.0477 13.8599 47.8134 13.6704L47.5732 12.6996C47.2109 12.7893 46.8188 12.6504 46.5748 12.3399L45.7885 12.9578ZM47.8134 13.6704C49.0834 13.3561 49.7107 11.8529 48.8703 10.7689L48.08 11.3816C48.438 11.8433 48.2048 12.5433 47.5732 12.6996L47.8134 13.6704ZM48.8703 10.7689C44.0274 4.52201 36.4522 0.5 27.9385 0.5V1.5C36.1298 1.5 43.4182 5.36835 48.08 11.3816L48.8703 10.7689ZM27.9385 0.5C14.8813 0.5 4.0329 9.95842 1.85759 22.4022L2.84265 22.5744C4.93584 10.6004 15.3761 1.5 27.9385 1.5V0.5ZM1.85759 22.4022C1.62144 23.753 2.88027 24.7909 4.15046 24.4766L3.91021 23.5058C3.2775 23.6624 2.74208 23.1497 2.84265 22.5744L1.85759 22.4022ZM66.5567 9.43234C65.0344 12.3501 63.7537 13.9996 62.5827 14.934C61.4354 15.8496 60.3642 16.1021 59.1804 16.1492C56.7808 16.2448 53.7441 15.4364 49.2901 17.7861L49.7567 18.6705C53.9449 16.4611 56.5769 17.2537 59.2202 17.1485C60.5578 17.0952 61.8517 16.7968 63.2064 15.7157C64.5375 14.6535 65.896 12.8606 67.4433 9.89492L66.5567 9.43234ZM50.0224 18.2599C50.236 14.8846 50.958 12.9838 51.9379 11.9185C52.8983 10.8741 54.1893 10.5453 55.7934 10.53C56.5964 10.5224 57.4569 10.5935 58.3715 10.6832C59.2782 10.7721 60.2415 10.8797 61.2145 10.9372C63.1638 11.0523 65.227 10.9727 67.198 10.1228L66.802 9.2045C65.0435 9.96283 63.1653 10.0506 61.2735 9.93891C60.326 9.88297 59.3938 9.77865 58.4691 9.68796C57.5522 9.59803 56.6452 9.52185 55.7839 9.53006C54.0593 9.54649 52.4337 9.90204 51.2018 11.2415C49.9892 12.56 49.243 14.7425 49.0244 18.1967L50.0224 18.2599Z" fill="black"/>
</svg>
