<svg aria-hidden="true" style="position: absolute; width: 0; height: 0; overflow: hidden;" version="1.1" xmlns="http://www.w3.org/2000/svg" xmlns:xlink="http://www.w3.org/1999/xlink">
<defs>

<symbol id="icon-star" viewBox="0 0 36 32">
<path fill="#ffe550" style="fill: var(--color1, #ffe550)" d="M15.777 1.037c0.593-1.383 2.611-1.383 3.204 0l3.498 8.164c0.25 0.583 0.815 0.982 1.463 1.032l9.079 0.707c1.538 0.12 2.162 1.983 0.99 2.958l-6.918 5.752c-0.494 0.411-0.71 1.056-0.559 1.67l2.113 8.6c0.358 1.457-1.275 2.609-2.592 1.828l-7.773-4.609c-0.555-0.329-1.253-0.329-1.809 0l-7.773 4.609c-1.317 0.781-2.95-0.371-2.592-1.828l2.113-8.6c0.151-0.614-0.065-1.259-0.559-1.67l-6.918-5.752c-1.172-0.975-0.548-2.838 0.99-2.958l9.079-0.707c0.649-0.050 1.213-0.449 1.463-1.032l3.498-8.164z"></path>
</symbol>

<symbol id="icon-warning" viewBox="0 0 32 32">
<path fill="none" stroke="#ff705d" style="stroke: var(--color2, #ff705d)" stroke-linejoin="round" stroke-linecap="round" stroke-miterlimit="4" stroke-width="2.2857" d="M16 11.429v6.857"></path>
<path fill="none" stroke="#ff705d" style="stroke: var(--color2, #ff705d)" stroke-linejoin="round" stroke-linecap="round" stroke-miterlimit="4" stroke-width="2.2857" d="M16.002 26.286c0.631 0 1.143-0.512 1.143-1.143s-0.512-1.143-1.143-1.143c-0.631 0-1.143 0.512-1.143 1.143s0.512 1.143 1.143 1.143z"></path>
<path fill="none" stroke="#ff705d" style="stroke: var(--color2, #ff705d)" stroke-linejoin="round" stroke-linecap="round" stroke-miterlimit="4" stroke-width="2.2857" d="M18.036 2.4c-0.192-0.374-0.483-0.689-0.842-0.908s-0.771-0.336-1.192-0.336c-0.421 0-0.833 0.116-1.192 0.336s-0.65 0.534-0.842 0.908l-12.571 25.143c-0.175 0.348-0.259 0.735-0.242 1.124s0.132 0.768 0.336 1.1c0.204 0.332 0.489 0.606 0.829 0.797s0.723 0.291 1.112 0.293h25.143c0.39-0.001 0.772-0.102 1.112-0.293s0.625-0.465 0.829-0.797c0.204-0.332 0.319-0.711 0.336-1.1s-0.067-0.776-0.243-1.124l-12.571-25.143z"></path>
</symbol>

<symbol id="icon-touch" viewBox="0 0 24 32">
<path fill="#7eb101" style="fill: var(--color3, #7eb101)" d="M11.587 0.368c2.231 0 4.138 0.779 5.72 2.336s2.372 3.451 2.372 5.683c0 1.275-0.276 2.477-0.828 3.605s-1.33 2.084-2.336 2.869h-1.251v-1.839c0.711-0.564 1.257-1.251 1.637-2.060s0.57-1.667 0.57-2.575c0-1.618-0.576-2.992-1.729-4.12s-2.538-1.692-4.156-1.692c-1.618 0-3.004 0.564-4.156 1.692s-1.729 2.501-1.729 4.12c0 0.907 0.19 1.766 0.57 2.575s0.926 1.496 1.637 2.060v2.648c-1.373-0.711-2.452-1.717-3.237-3.016s-1.177-2.722-1.177-4.267c0-2.231 0.791-4.126 2.372-5.683s3.488-2.336 5.72-2.336zM10.189 31.264c-0.417 0-0.809-0.080-1.177-0.239s-0.687-0.374-0.956-0.644l-7.577-7.577 2.060-2.133c0.343-0.343 0.73-0.607 1.159-0.791s0.877-0.215 1.343-0.092l2.869 0.662v-11.991c0-1.030 0.356-1.9 1.067-2.611s1.582-1.067 2.612-1.067c1.030 0 1.9 0.356 2.611 1.067s1.067 1.582 1.067 2.611v6.326h0.956c0.123 0 0.233 0.024 0.331 0.073s0.208 0.098 0.331 0.147l5.444 2.648c0.588 0.27 1.024 0.705 1.306 1.306s0.362 1.22 0.239 1.857l-1.324 8.018c-0.123 0.711-0.466 1.293-1.030 1.747s-1.202 0.68-1.913 0.68h-9.416zM9.895 29.057h10.336l1.582-9.159-6.731-3.347h-2.023v-8.092c0-0.441-0.135-0.797-0.405-1.067s-0.625-0.405-1.067-0.405-0.797 0.135-1.067 0.405c-0.27 0.27-0.405 0.625-0.405 1.067v14.676l-5.664-1.214-0.846 0.846 6.29 6.29zM20.23 29.057v0z"></path>
</symbol>

<symbol id="icon-rocket" viewBox="0 0 32 32">
<path fill="#7eb101" style="fill: var(--color3, #7eb101)" d="M4.838 13.295l4.038 1.714c0.457-0.914 0.946-1.816 1.467-2.705s1.073-1.74 1.657-2.552l-3.010-0.61-4.152 4.152zM10.705 16.381l5.067 5.067c1.448-0.66 2.806-1.41 4.076-2.248s2.298-1.651 3.086-2.438c2.057-2.057 3.568-4.165 4.533-6.324s1.486-4.597 1.562-7.314c-2.718 0.076-5.156 0.597-7.314 1.562s-4.267 2.476-6.324 4.533c-0.787 0.787-1.6 1.816-2.438 3.086s-1.587 2.629-2.248 4.076zM19.429 12.724c-0.508-0.508-0.762-1.137-0.762-1.886s0.254-1.378 0.762-1.886 1.136-0.762 1.886-0.762c0.749 0 1.378 0.254 1.886 0.762s0.762 1.136 0.762 1.886c0 0.749-0.254 1.378-0.762 1.886s-1.136 0.762-1.886 0.762-1.378-0.254-1.886-0.762zM18.857 27.314l4.152-4.152-0.61-3.009c-0.813 0.584-1.664 1.136-2.552 1.657s-1.791 1.009-2.705 1.467l1.714 4.038zM31.276 0.876c0.229 3.454-0.203 6.603-1.295 9.448s-2.895 5.524-5.41 8.038l-0.152 0.152 0.838 4.191c0.076 0.381 0.057 0.749-0.057 1.105s-0.311 0.673-0.59 0.952l-6.514 6.552-3.238-7.543-6.476-6.476-7.543-3.238 6.552-6.514c0.279-0.279 0.597-0.476 0.952-0.59s0.724-0.133 1.105-0.057l4.19 0.838c0.025-0.025 0.051-0.044 0.076-0.057s0.051-0.032 0.076-0.057c2.514-2.514 5.194-4.324 8.038-5.429s5.994-1.543 9.448-1.314v0zM3.39 21.905c0.889-0.889 1.975-1.34 3.257-1.352s2.368 0.425 3.257 1.314c0.889 0.889 1.327 1.974 1.314 3.257s-0.463 2.368-1.352 3.257c-0.66 0.66-1.683 1.206-3.067 1.638s-3.46 0.838-6.229 1.219c0.381-2.768 0.781-4.851 1.2-6.248s0.959-2.425 1.619-3.086v0zM4.99 23.543c-0.356 0.381-0.673 0.978-0.952 1.791s-0.521 1.854-0.724 3.124c1.27-0.203 2.311-0.444 3.124-0.724s1.41-0.597 1.79-0.952c0.483-0.432 0.73-0.971 0.743-1.619s-0.21-1.213-0.667-1.695c-0.483-0.457-1.048-0.679-1.695-0.667s-1.187 0.26-1.619 0.743z"></path>
</symbol>

<symbol id="icon-arrow-to" viewBox="0 0 18 32">
<path d="M17.653 15.035l-14.861-14.16c-0.248-0.236-0.577-0.368-0.92-0.368s-0.672 0.132-0.92 0.368l-0.016 0.016c-0.121 0.115-0.217 0.253-0.282 0.405s-0.099 0.318-0.099 0.484c0 0.166 0.034 0.331 0.099 0.484s0.162 0.291 0.282 0.405l13.995 13.333-13.995 13.328c-0.121 0.115-0.217 0.252-0.282 0.405s-0.099 0.317-0.099 0.484 0.034 0.331 0.099 0.484c0.066 0.153 0.162 0.291 0.282 0.405l0.016 0.016c0.248 0.236 0.577 0.368 0.92 0.368s0.672-0.132 0.92-0.368l14.861-14.16c0.131-0.125 0.235-0.274 0.306-0.44s0.108-0.345 0.108-0.525c0-0.181-0.037-0.359-0.108-0.525s-0.175-0.316-0.306-0.44z"></path>
</symbol>

<symbol id="icon-arrow-from" viewBox="0 0 18 32">
<path d="M0.48 16.965l14.861 14.16c0.248 0.236 0.577 0.368 0.92 0.368s0.672-0.132 0.92-0.368l0.016-0.016c0.121-0.115 0.217-0.252 0.282-0.405s0.1-0.317 0.1-0.484-0.034-0.331-0.1-0.484c-0.066-0.153-0.162-0.291-0.282-0.405l-13.995-13.333 13.995-13.328c0.121-0.115 0.217-0.253 0.282-0.405s0.1-0.318 0.1-0.484-0.034-0.331-0.1-0.484c-0.066-0.153-0.162-0.291-0.282-0.405l-0.016-0.016c-0.248-0.236-0.578-0.368-0.92-0.368s-0.672 0.132-0.92 0.368l-14.861 14.16c-0.131 0.125-0.235 0.274-0.306 0.44s-0.108 0.345-0.108 0.525c0 0.181 0.037 0.359 0.108 0.525s0.175 0.316 0.306 0.44z"></path>
</symbol>

<symbol id="icon-page-logo" viewBox="0 0 41 32">
<path fill="#ffe550" style="fill: var(--color1, #ffe550)" d="M14.613 6.456c1.013-1.982 3.846-1.982 4.86 0l1.283 2.51c0.397 0.776 1.141 1.316 2.002 1.453l2.78 0.441c2.202 0.35 3.078 3.049 1.501 4.625l-1.984 1.983c-0.618 0.617-0.902 1.493-0.766 2.356l0.438 2.773c0.348 2.2-1.945 3.868-3.931 2.859l-2.517-1.278c-0.777-0.394-1.695-0.394-2.471 0l-2.517 1.278c-1.986 1.009-4.279-0.659-3.931-2.859l0.438-2.773c0.136-0.863-0.149-1.738-0.766-2.356l-1.984-1.983c-1.577-1.576-0.701-4.275 1.501-4.625l2.78-0.441c0.861-0.137 1.605-0.677 2.002-1.453l1.283-2.51z"></path>
<path fill="#2c2c2c" style="fill: var(--color4, #2c2c2c)" d="M1.593 20.533l-0.021 0.005c0.003 0.074-0.001 0.374-0.011 0.9-0.003 0.524-0.004 0.868-0.002 1.032-0 0.157-0.004 0.285-0.010 0.384 0.001 0.097 0.001 0.209 0.001 0.336-0.001 0.12-0.008 0.219-0.020 0.296-0.006 0.069-0.012 0.137-0.018 0.206-0.014 0.13-0.042 0.201-0.085 0.211-0.092 0.022-0.236-0.049-0.432-0.212-0.197-0.17-0.311-0.319-0.341-0.447s-0.038-1.060-0.024-2.798c0.021-1.74-0.025-2.884-0.141-3.432-0.025-0.106-0.021-0.197 0.014-0.273 0.036-0.165 0.219-0.321 0.551-0.467 0.339-0.147 0.845-0.3 1.518-0.459 0.68-0.161 1.219-0.25 1.619-0.27 0.406-0.021 0.625 0.032 0.655 0.159 0.020 0.085-0.026 0.159-0.138 0.223s-0.212 0.117-0.299 0.16c-0.089 0.036-0.205 0.082-0.349 0.138-0.145 0.049-0.28 0.096-0.404 0.14-0.126 0.037-0.289 0.091-0.489 0.16-0.193 0.068-0.372 0.133-0.537 0.194-0.167 0.054-0.391 0.133-0.673 0.237s-0.465 0.169-0.548 0.197c0.012 0.020 0.023 0.051 0.033 0.093 0.079 0.333 0.122 1.13 0.129 2.392 0.444-0.082 0.913-0.204 1.405-0.365 0.5-0.163 0.806-0.258 0.92-0.284 0.269-0.064 0.417-0.039 0.444 0.075 0.052 0.219-0.212 0.476-0.793 0.77-0.574 0.293-1.226 0.525-1.955 0.697z"></path>
<path fill="#2c2c2c" style="fill: var(--color4, #2c2c2c)" d="M8.528 18.582c-0.057-0.241-0.15-0.458-0.278-0.652-0.13-0.201-0.281-0.334-0.453-0.398-0.457 0.25-0.788 0.728-0.995 1.435-0.201 0.698-0.237 1.32-0.108 1.865s0.344 0.853 0.645 0.924c0.486-0.219 0.836-0.668 1.049-1.347 0.219-0.687 0.265-1.296 0.139-1.827zM5.757 19.337c0.117-0.611 0.332-1.14 0.644-1.588 0.318-0.456 0.686-0.734 1.104-0.833 0.425-0.1 0.822-0.003 1.191 0.291 0.367 0.287 0.612 0.689 0.735 1.206 0.121 0.51 0.121 1.063 0.001 1.66-0.122 0.59-0.361 1.113-0.716 1.571-0.35 0.449-0.769 0.731-1.258 0.846-0.361 0.085-0.702-0.010-1.021-0.286s-0.54-0.669-0.661-1.179c-0.123-0.517-0.129-1.080-0.019-1.689z"></path>
<path fill="#2c2c2c" style="fill: var(--color4, #2c2c2c)" d="M13.342 17.445c-0.057-0.241-0.15-0.458-0.278-0.652-0.13-0.201-0.281-0.334-0.453-0.398-0.457 0.25-0.788 0.728-0.995 1.435-0.201 0.698-0.237 1.32-0.108 1.865s0.344 0.853 0.645 0.924c0.486-0.22 0.836-0.669 1.049-1.347 0.219-0.687 0.265-1.296 0.139-1.827zM10.571 18.201c0.117-0.611 0.332-1.14 0.644-1.588 0.318-0.456 0.686-0.734 1.104-0.833 0.425-0.1 0.822-0.003 1.191 0.291 0.367 0.287 0.612 0.689 0.735 1.206 0.121 0.51 0.121 1.063 0.001 1.66-0.122 0.59-0.361 1.113-0.716 1.571-0.35 0.449-0.769 0.731-1.258 0.846-0.361 0.085-0.702-0.010-1.021-0.286s-0.54-0.669-0.661-1.179c-0.123-0.517-0.129-1.080-0.019-1.689z"></path>
<path fill="#2c2c2c" style="fill: var(--color4, #2c2c2c)" d="M18.361 11.213c0.113-0.027 0.277 0.047 0.49 0.221 0.219 0.165 0.35 0.34 0.393 0.524s0.079 0.729 0.107 1.635c0.026 0.899 0.031 1.836 0.016 2.811-0.020 2.188-0.111 3.301-0.274 3.34-0.099 0.023-0.223-0.011-0.372-0.103-0.144-0.101-0.226-0.197-0.248-0.289s-0.041-0.282-0.057-0.57c-0.526 0.872-1.048 1.369-1.565 1.491-0.312 0.074-0.628-0.001-0.951-0.224-0.315-0.225-0.509-0.489-0.581-0.794-0.104-0.439-0.111-0.987-0.020-1.644 0.097-0.666 0.309-1.299 0.638-1.9s0.744-0.961 1.247-1.080 0.925 0.1 1.266 0.655c0.005-1.586-0.077-2.819-0.248-3.699-0.050-0.212 0.002-0.337 0.158-0.374zM18.429 16.704c-0.091-0.382-0.234-0.689-0.431-0.919-0.19-0.232-0.376-0.326-0.561-0.283-0.305 0.072-0.572 0.333-0.801 0.784s-0.382 0.943-0.458 1.476c-0.070 0.525-0.063 0.965 0.021 1.319 0.030 0.127 0.101 0.219 0.211 0.275s0.23 0.069 0.357 0.039c0.276-0.065 0.601-0.351 0.974-0.858 0.381-0.509 0.613-1.057 0.698-1.645l0.002-0.135-0.013-0.053z"></path>
<path fill="#2c2c2c" style="fill: var(--color4, #2c2c2c)" d="M25.211 16.068c0.138 0.581-0.009 1.131-0.439 1.651-0.432 0.513-0.988 0.85-1.668 1.011-0.673 0.159-1.27 0.117-1.791-0.127-0.523-0.25-0.821-0.531-0.895-0.843-0.050-0.212-0.012-0.334 0.116-0.364 0.113-0.027 0.377 0.091 0.79 0.352 0.156 0.090 0.353 0.163 0.59 0.219 0.245 0.054 0.487 0.053 0.728-0.004 0.496-0.117 0.905-0.348 1.227-0.693 0.329-0.347 0.458-0.669 0.388-0.966-0.045-0.191-0.231-0.405-0.556-0.643s-0.675-0.45-1.049-0.639c-0.368-0.197-0.716-0.418-1.043-0.662s-0.512-0.455-0.554-0.632c-0.042-0.177-0.051-0.373-0.027-0.588s0.067-0.379 0.13-0.491c0.204-0.37 0.566-0.751 1.087-1.143 0.527-0.394 0.989-0.637 1.386-0.731 0.205-0.048 0.395-0.022 0.568 0.079s0.278 0.226 0.313 0.375c0.017 0.071-0.044 0.145-0.183 0.223s-0.352 0.188-0.64 0.33c-0.282 0.134-0.529 0.275-0.741 0.422-0.741 0.504-1.077 0.901-1.008 1.191 0.037 0.156 0.554 0.493 1.553 1.013 0.384 0.201 0.747 0.455 1.090 0.763 0.348 0.299 0.557 0.598 0.627 0.895z"></path>
<path fill="#2c2c2c" style="fill: var(--color4, #2c2c2c)" d="M27.651 16.602c0.032 0.135 0.126 0.183 0.282 0.147 0.269-0.064 0.577-0.215 0.924-0.454 0.353-0.248 0.55-0.377 0.593-0.387 0.128-0.030 0.207 0.022 0.239 0.157 0.049 0.205-0.108 0.493-0.469 0.862-0.354 0.368-0.705 0.593-1.052 0.674-0.34 0.080-0.645 0.055-0.915-0.075-0.272-0.138-0.431-0.306-0.478-0.504s-0.064-0.46-0.051-0.784c0.011-0.332 0.035-0.767 0.072-1.307 0.042-0.548 0.070-1 0.083-1.354-0.314 0.156-0.528 0.248-0.642 0.275s-0.24-0.003-0.38-0.090c-0.135-0.095-0.215-0.196-0.24-0.302-0.040-0.17 0.381-0.441 1.265-0.815-0.012-0.618-0.071-1.153-0.179-1.606-0.050-0.212-0.005-0.335 0.137-0.369 0.12-0.028 0.288 0.014 0.502 0.128 0.212 0.107 0.341 0.256 0.386 0.447s0.065 0.542 0.059 1.052c0.395-0.131 0.713-0.225 0.954-0.281 0.425-0.1 0.659-0.058 0.703 0.126 0.025 0.106-0.071 0.222-0.288 0.348-0.21 0.124-0.665 0.348-1.367 0.67-0.016 0.595-0.052 1.28-0.107 2.055-0.057 0.769-0.067 1.231-0.030 1.387z"></path>
<path fill="#2c2c2c" style="fill: var(--color4, #2c2c2c)" d="M32.399 11.040c0.319-0.075 0.651 0.018 0.998 0.28 0.345 0.255 0.548 0.514 0.61 0.776 0.060 0.255 0.034 0.538-0.079 0.849 0.11 0.086 0.175 0.168 0.193 0.246 0.047 0.198 0.081 0.549 0.104 1.052 0.029 0.502 0.051 0.829 0.065 0.983 0.021 0.152 0.035 0.276 0.043 0.371 0.006 0.088 0.008 0.178 0.007 0.267 0.014 0.184-0.029 0.287-0.128 0.311-0.127 0.030-0.26-0.055-0.397-0.254-0.132-0.208-0.246-0.488-0.345-0.838-0.441 0.949-0.93 1.487-1.468 1.614-0.326 0.077-0.681 0.015-1.065-0.186-0.379-0.21-0.603-0.463-0.674-0.761-0.101-0.425-0.069-0.986 0.095-1.682 0.162-0.704 0.433-1.358 0.813-1.964s0.79-0.96 1.229-1.064zM33.331 12.794c-0.156-0.659-0.365-0.957-0.627-0.895-0.276 0.065-0.551 0.339-0.826 0.823-0.276 0.476-0.483 0.993-0.62 1.548s-0.172 0.979-0.103 1.269c0.029 0.12 0.102 0.208 0.219 0.262 0.116 0.047 0.241 0.055 0.376 0.023 0.333-0.079 0.655-0.39 0.968-0.935 0.31-0.552 0.471-1.169 0.481-1.852-0.004-0.111 0.041-0.189 0.135-0.234l-0.002-0.011z"></path>
<path fill="#bbf330" style="fill: var(--color5, #bbf330)" d="M31.275 19.973c-0.304 0.075-0.543 0.306-0.643 0.602-1.911 5.65-7.264 9.719-13.571 9.719-3.825 0-7.299-1.497-9.867-3.935-0.226-0.215-0.545-0.307-0.848-0.232-0.641 0.158-0.883 0.934-0.408 1.392 2.882 2.774 6.803 4.48 11.122 4.48 7.097 0 13.116-4.605 15.224-10.986 0.207-0.626-0.369-1.199-1.009-1.041z"></path>
<path fill="#bbf330" style="fill: var(--color5, #bbf330)" d="M2.304 14.15c0.346-0.085 0.603-0.374 0.667-0.725 1.214-6.664 7.058-11.72 14.089-11.72 4.571 0 8.641 2.137 11.262 5.464 0.22 0.279 0.58 0.414 0.925 0.328 0.585-0.144 0.85-0.825 0.48-1.301-2.932-3.771-7.516-6.198-12.668-6.198-7.903 0-14.47 5.711-15.786 13.224-0.104 0.592 0.446 1.070 1.030 0.926z"></path>
<path fill="#bbf330" style="fill: var(--color5, #bbf330)" d="M41.158 5.332c-3.787 7.241-5.45 2.465-10.782 5.271 0.533-8.406 6.18-3.291 10.782-5.271z"></path>
</symbol>

<symbol id="icon-burger" viewBox="0 0 43 32">
<path d="M0.592 3.556c0-0.55 0.219-1.078 0.607-1.467s0.917-0.607 1.467-0.607h37.333c0.55 0 1.078 0.219 1.466 0.607s0.607 0.917 0.607 1.467c0 0.55-0.218 1.078-0.607 1.467s-0.916 0.607-1.466 0.607h-37.333c-0.55 0-1.078-0.219-1.467-0.607s-0.607-0.917-0.607-1.467v0zM0.592 16.066c0-0.55 0.219-1.078 0.607-1.467s0.917-0.607 1.467-0.607h37.333c0.55 0 1.078 0.219 1.466 0.607s0.607 0.916 0.607 1.467c0 0.55-0.218 1.078-0.607 1.467s-0.916 0.607-1.466 0.607h-37.333c-0.55 0-1.078-0.218-1.467-0.607s-0.607-0.916-0.607-1.467v0zM2.666 26.503c-0.55 0-1.078 0.219-1.467 0.607s-0.607 0.917-0.607 1.467 0.219 1.078 0.607 1.467c0.389 0.389 0.917 0.607 1.467 0.607h37.333c0.55 0 1.078-0.218 1.467-0.607s0.607-0.917 0.607-1.467c0-0.55-0.218-1.078-0.607-1.467s-0.916-0.607-1.466-0.607h-37.333z"></path>
</symbol>

<symbol id="futer_logo" viewBox="0 0 43 32"  width="69" height="51" >
<path fill="#ffe550" style="fill: var(--color1, #ffe550)" d="M14.733 8.449c1.446-2.817 5.48-2.817 6.926 0 0.567 1.084 1.6 1.857 2.826 2.058l0.022 0.003c3.118 0.493 4.381 4.322 2.144 6.549-0.702 0.699-1.136 1.667-1.136 2.735 0 0.214 0.017 0.423 0.051 0.627l-0.003-0.022c0.494 3.117-2.785 5.468-5.601 4.043-0.514-0.264-1.122-0.419-1.766-0.419s-1.252 0.155-1.788 0.429l0.022-0.010c-2.816 1.424-6.096-0.927-5.601-4.043 0.030-0.182 0.048-0.392 0.048-0.606 0-1.069-0.434-2.036-1.136-2.735l-0-0c-2.237-2.227-0.975-6.057 2.144-6.55 1.248-0.203 2.282-0.976 2.838-2.039l0.010-0.021z"></path>
<path fill="#2c2c2c" style="fill: var(--color2, #2c2c2c)" d="M2.709 20.651l-0.021 0.005c0.002 0.074-0.001 0.373-0.011 0.898-0.004 0.523-0.004 0.866-0.003 1.030 0 0.157-0.004 0.284-0.010 0.383l0.001 0.335c-0.002 0.12-0.008 0.218-0.020 0.296l-0.019 0.206c-0.014 0.131-0.042 0.201-0.085 0.21-0.093 0.022-0.237-0.048-0.433-0.211-0.198-0.169-0.312-0.318-0.343-0.445s-0.038-1.057-0.022-2.792c0.022-1.736-0.024-2.878-0.139-3.425-0.011-0.035-0.017-0.075-0.017-0.116 0-0.056 0.011-0.11 0.032-0.158l-0.001 0.003c0.036-0.165 0.22-0.32 0.553-0.466 0.341-0.147 0.849-0.301 1.525-0.459 0.682-0.161 1.224-0.251 1.625-0.27 0.408-0.021 0.626 0.031 0.657 0.159 0.020 0.085-0.026 0.159-0.139 0.223s-0.213 0.117-0.3 0.16l-0.35 0.138c-0.146 0.049-0.281 0.096-0.406 0.14-0.125 0.038-0.29 0.091-0.491 0.161-0.194 0.068-0.374 0.132-0.54 0.194-0.168 0.054-0.393 0.133-0.676 0.237s-0.467 0.169-0.55 0.196c0.013 0.019 0.023 0.050 0.033 0.093 0.079 0.333 0.122 1.128 0.129 2.386 0.555-0.106 1.029-0.232 1.49-0.388l-0.078 0.023c0.502-0.163 0.809-0.257 0.923-0.284 0.27-0.063 0.418-0.039 0.446 0.075 0.052 0.219-0.213 0.475-0.797 0.769-0.576 0.292-1.23 0.525-1.963 0.696zM9.672 18.701c-0.058-0.247-0.154-0.464-0.283-0.658l0.005 0.007c-0.13-0.201-0.282-0.333-0.455-0.397-0.459 0.25-0.792 0.727-1 1.432-0.202 0.696-0.238 1.316-0.109 1.86s0.345 0.851 0.648 0.922c0.489-0.22 0.84-0.668 1.054-1.345 0.22-0.686 0.267-1.294 0.141-1.823zM6.89 19.456c0.117-0.609 0.333-1.138 0.648-1.584 0.32-0.456 0.689-0.733 1.109-0.831 0.427-0.1 0.825-0.004 1.195 0.29 0.368 0.286 0.614 0.687 0.737 1.203 0.121 0.508 0.121 1.060 0 1.656-0.124 0.601-0.375 1.129-0.726 1.575l0.006-0.008c-0.351 0.449-0.772 0.73-1.262 0.846-0.363 0.085-0.705-0.010-1.025-0.285s-0.542-0.668-0.663-1.176c-0.122-0.516-0.129-1.077-0.018-1.685zM14.505 17.565c-0.058-0.247-0.154-0.464-0.283-0.658l0.005 0.007c-0.13-0.201-0.282-0.333-0.455-0.397-0.459 0.25-0.792 0.727-1 1.432-0.202 0.696-0.238 1.316-0.109 1.86s0.345 0.851 0.648 0.922c0.488-0.22 0.84-0.668 1.054-1.345 0.22-0.686 0.267-1.293 0.141-1.823zM11.723 18.32c0.118-0.609 0.334-1.138 0.648-1.584 0.319-0.456 0.689-0.733 1.109-0.831 0.427-0.1 0.824-0.004 1.195 0.29 0.369 0.286 0.615 0.687 0.737 1.203 0.121 0.508 0.12 1.060 0 1.656-0.124 0.601-0.375 1.129-0.726 1.575l0.006-0.008c-0.351 0.448-0.772 0.73-1.263 0.845-0.363 0.085-0.704-0.010-1.025-0.285-0.32-0.275-0.541-0.667-0.663-1.176-0.122-0.516-0.129-1.077-0.018-1.685zM19.548 11.344c0.113-0.026 0.277 0.047 0.491 0.22 0.22 0.165 0.351 0.339 0.395 0.523s0.078 0.728 0.106 1.631c0.015 0.513 0.024 1.117 0.024 1.723 0 0.38-0.003 0.76-0.010 1.139l0.001-0.057c-0.021 2.183-0.113 3.294-0.277 3.332-0.1 0.024-0.225-0.011-0.374-0.102-0.144-0.1-0.227-0.196-0.248-0.289s-0.041-0.281-0.056-0.568c-0.529 0.87-1.053 1.366-1.572 1.488-0.313 0.073-0.631-0.001-0.954-0.223-0.317-0.224-0.511-0.488-0.584-0.792-0.104-0.438-0.11-0.985-0.019-1.64 0.107-0.71 0.332-1.349 0.656-1.924l-0.014 0.028c0.33-0.6 0.747-0.959 1.252-1.078s0.929 0.099 1.271 0.653c0.006-1.583-0.077-2.813-0.248-3.689-0.050-0.213 0.003-0.337 0.159-0.373zM19.612 16.823c-0.091-0.381-0.235-0.687-0.432-0.917-0.19-0.232-0.378-0.325-0.562-0.282-0.306 0.073-0.574 0.333-0.805 0.783-0.222 0.427-0.384 0.924-0.458 1.449l-0.003 0.024c-0.070 0.523-0.064 0.962 0.020 1.315 0.031 0.127 0.101 0.219 0.212 0.275s0.23 0.069 0.358 0.039c0.277-0.065 0.604-0.351 0.979-0.857 0.383-0.507 0.616-1.054 0.701-1.641l0.002-0.135-0.013-0.053zM26.421 16.184c0.138 0.579-0.009 1.129-0.441 1.648-0.434 0.512-0.991 0.848-1.675 1.009-0.675 0.159-1.274 0.117-1.798-0.125-0.525-0.249-0.824-0.53-0.898-0.841-0.050-0.211-0.012-0.333 0.116-0.363 0.114-0.027 0.378 0.090 0.793 0.351 0.157 0.090 0.355 0.163 0.593 0.218 0.245 0.055 0.489 0.053 0.731-0.004 0.498-0.117 0.909-0.348 1.232-0.693 0.331-0.346 0.461-0.668 0.39-0.964-0.046-0.191-0.232-0.405-0.558-0.641s-0.678-0.449-1.052-0.636c-0.402-0.215-0.745-0.434-1.069-0.676l0.022 0.016c-0.328-0.243-0.513-0.454-0.555-0.631-0.026-0.111-0.041-0.239-0.041-0.371 0-0.076 0.005-0.151 0.015-0.225l-0.001 0.009c0.024-0.214 0.068-0.378 0.132-0.489 0.205-0.369 0.568-0.749 1.091-1.14 0.53-0.393 0.993-0.637 1.392-0.73 0.206-0.048 0.397-0.023 0.57 0.078s0.279 0.226 0.314 0.374c0.018 0.070-0.044 0.144-0.183 0.222-0.125 0.073-0.336 0.183-0.549 0.288l-0.094 0.042c-0.287 0.134-0.531 0.274-0.762 0.432l0.018-0.012c-0.744 0.504-1.081 0.9-1.012 1.19 0.037 0.156 0.556 0.492 1.558 1.010 0.385 0.2 0.75 0.454 1.094 0.76 0.349 0.299 0.558 0.596 0.629 0.893zM28.87 16.717c0.032 0.134 0.126 0.183 0.282 0.146 0.27-0.063 0.58-0.215 0.929-0.453 0.354-0.247 0.552-0.376 0.595-0.386 0.128-0.030 0.208 0.022 0.24 0.156 0.049 0.205-0.109 0.491-0.471 0.86-0.356 0.367-0.708 0.592-1.057 0.673-0.341 0.080-0.648 0.055-0.919-0.075-0.273-0.137-0.433-0.304-0.48-0.502s-0.064-0.458-0.051-0.782c0.011-0.331 0.036-0.765 0.073-1.304 0.043-0.547 0.070-0.998 0.084-1.351-0.316 0.156-0.531 0.248-0.644 0.274s-0.241-0.002-0.381-0.089c-0.136-0.095-0.216-0.195-0.241-0.301-0.040-0.169 0.383-0.441 1.271-0.814-0.011-0.616-0.071-1.151-0.179-1.602-0.050-0.212-0.004-0.334 0.138-0.368 0.12-0.028 0.289 0.014 0.503 0.128 0.213 0.107 0.343 0.255 0.388 0.446 0.045 0.191 0.065 0.541 0.058 1.050 0.229-0.083 0.549-0.18 0.875-0.263l0.084-0.018c0.427-0.1 0.661-0.059 0.705 0.126 0.025 0.105-0.071 0.222-0.289 0.347-0.211 0.124-0.668 0.348-1.373 0.669-0.025 0.79-0.064 1.503-0.119 2.211l0.010-0.16c-0.058 0.767-0.068 1.229-0.031 1.384zM33.639 11.164c0.32-0.075 0.654 0.018 1.001 0.279 0.346 0.255 0.55 0.513 0.612 0.774 0.060 0.255 0.033 0.536-0.080 0.847 0.11 0.086 0.175 0.168 0.194 0.245 0.047 0.198 0.082 0.548 0.103 1.050 0.029 0.5 0.050 0.827 0.065 0.981 0.021 0.152 0.035 0.275 0.043 0.37 0.006 0.088 0.008 0.177 0.007 0.267 0.014 0.183-0.029 0.287-0.129 0.31-0.128 0.030-0.261-0.054-0.398-0.253-0.132-0.208-0.247-0.486-0.345-0.836-0.443 0.947-0.935 1.484-1.475 1.611-0.327 0.077-0.684 0.015-1.069-0.185-0.38-0.209-0.605-0.462-0.676-0.759-0.101-0.424-0.069-0.983 0.096-1.678 0.163-0.703 0.435-1.355 0.818-1.96s0.793-0.958 1.234-1.062zM34.574 12.914c-0.157-0.657-0.366-0.955-0.629-0.893-0.277 0.065-0.554 0.339-0.83 0.822-0.263 0.445-0.477 0.959-0.615 1.504l-0.009 0.041c-0.138 0.555-0.173 0.977-0.104 1.266 0.028 0.12 0.102 0.207 0.22 0.262 0.066 0.027 0.143 0.043 0.224 0.043 0.054 0 0.107-0.007 0.157-0.020l-0.004 0.001c0.334-0.078 0.659-0.39 0.972-0.933 0.312-0.551 0.473-1.167 0.483-1.848-0.003-0.11 0.042-0.188 0.137-0.233l-0.002-0.011z"></path>
<path fill="#bbf330" style="fill: var(--color3, #bbf330)" d="M31.525 20.209c-0.487 0.12-0.876 0.479-1.073 0.941-2.087 4.773-6.768 8.048-12.214 8.048-0.009 0-0.019 0-0.028-0h0.001c-3.194 0-6.121-1.117-8.409-2.977-0.388-0.314-0.896-0.451-1.38-0.331-1.085 0.267-1.487 1.579-0.635 2.3 2.784 2.369 6.421 3.811 10.395 3.811 0.010 0 0.021 0 0.031-0h-0.002c0.007 0 0.016 0 0.025 0 6.712 0 12.464-4.108 14.88-9.946l0.039-0.107c0.417-1.033-0.548-2.004-1.631-1.738zM4.193 13.954c0.562-0.138 0.982-0.598 1.123-1.159 1.441-5.732 6.657-9.993 12.895-9.993 3.94 0 7.473 1.7 9.904 4.397 0.385 0.427 0.966 0.635 1.525 0.498 0.981-0.242 1.421-1.382 0.759-2.145-2.967-3.41-7.314-5.553-12.162-5.553-0.009 0-0.019 0-0.028 0h0.001c-7.647 0-14.049 5.304-15.686 12.414-0.226 0.98 0.691 1.78 1.668 1.54z"></path>
<path fill="#bbf330" style="fill: var(--color3, #bbf330); stroke: var(--color3, #bbf330)" stroke="#bbf330" stroke-linejoin="round" stroke-linecap="butt" stroke-miterlimit="4" stroke-width="1.0309" d="M42.409 5.331c-3.804 7.241-5.473 2.465-10.826 5.271 0.535-8.405 6.206-3.291 10.826-5.271z"></path>
</symbol>

<symbol id="icon-touch_new" viewBox="0 0 32 32">
<path fill="#7eb101" style="fill: var(--color1, #7eb101)" d="M15.5 1.333c2.023 0 3.75 0.706 5.184 2.117 1.433 1.411 2.15 3.128 2.15 5.15 0 1.156-0.25 2.244-0.75 3.267-0.515 1.040-1.229 1.91-2.1 2.588l-0.017 0.012h-1.133v-1.667c0.627-0.495 1.128-1.12 1.47-1.836l0.013-0.031c0.326-0.677 0.517-1.471 0.517-2.31 0-0.008-0-0.016-0-0.024v0.001c0-1.467-0.523-2.711-1.567-3.733s-2.3-1.534-3.767-1.534c-1.466 0-2.722 0.511-3.766 1.534s-1.567 2.266-1.567 3.733c0 0.822 0.172 1.6 0.517 2.333 0.355 0.747 0.856 1.372 1.472 1.859l0.011 0.008v2.4c-1.227-0.632-2.223-1.564-2.915-2.701l-0.018-0.032c-0.67-1.086-1.067-2.403-1.067-3.812 0-0.019 0-0.039 0-0.058l-0 0.003c0-2.022 0.717-3.739 2.15-5.15s3.161-2.117 5.183-2.117zM14.234 29.333c-0.378 0-0.734-0.072-1.067-0.216-0.337-0.145-0.624-0.342-0.867-0.584l-6.866-6.866 1.866-1.934c0.311-0.31 0.661-0.55 1.050-0.716 0.214-0.095 0.464-0.151 0.727-0.151 0.174 0 0.343 0.024 0.503 0.070l-0.013-0.003 2.6 0.6v-10.866c0-0.934 0.322-1.723 0.967-2.367 0.644-0.644 1.433-0.967 2.366-0.967 0.934 0 1.723 0.323 2.367 0.967s0.967 1.433 0.967 2.367v5.733h0.866c0.111 0 0.211 0.022 0.3 0.067s0.19 0.088 0.3 0.133l4.934 2.4c0.533 0.244 0.927 0.639 1.183 1.183 0.255 0.545 0.328 1.106 0.217 1.684l-1.2 7.266c-0.106 0.647-0.446 1.2-0.929 1.58l-0.005 0.004c-0.462 0.383-1.061 0.616-1.714 0.616-0.007 0-0.013-0-0.020-0h-8.532zM13.967 27.333h9.367l1.433-8.3-6.1-3.033h-1.833v-7.333c0-0.4-0.123-0.723-0.367-0.967s-0.567-0.367-0.967-0.367-0.722 0.123-0.966 0.367c-0.245 0.244-0.367 0.567-0.367 0.967v13.3l-5.133-1.1-0.767 0.766 5.7 5.7zM23.334 27.333v0z"></path>
</symbol>

<symbol id="icon-rocket_new" viewBox="0 0 32 32">
<path fill="#7eb101" style="fill: var(--color1, #7eb101)" d="M7.233 13.633l3.534 1.5c0.4-0.8 0.827-1.588 1.283-2.366s0.939-1.522 1.45-2.234l-2.633-0.533-3.634 3.633zM12.367 16.333l4.433 4.434c1.383-0.632 2.553-1.289 3.663-2.027l-0.096 0.060c1.11-0.733 2.010-1.444 2.7-2.133 1.8-1.8 3.122-3.645 3.966-5.534s1.3-4.022 1.367-6.4c-2.378 0.067-4.511 0.523-6.4 1.367s-3.733 2.167-5.533 3.967c-0.69 0.689-1.4 1.589-2.134 2.7-0.678 1.014-1.334 2.183-1.899 3.404l-0.067 0.162zM20 13.133c-0.444-0.444-0.667-0.994-0.667-1.65 0-0.655 0.223-1.205 0.667-1.65s0.994-0.666 1.65-0.666 1.206 0.222 1.65 0.666c0.444 0.445 0.667 0.995 0.667 1.65s-0.223 1.206-0.667 1.65c-0.444 0.445-0.994 0.667-1.65 0.667s-1.206-0.222-1.65-0.667zM19.5 25.9l3.633-3.633-0.533-2.634c-0.711 0.512-1.456 0.995-2.233 1.45-0.778 0.456-1.567 0.884-2.367 1.284l1.5 3.533zM30.367 2.767c0.2 3.022-0.178 5.777-1.134 8.266-0.955 2.49-2.533 4.834-4.733 7.034l-0.067 0.066-0.066 0.067 0.733 3.667c0.067 0.333 0.050 0.655-0.050 0.966-0.1 0.312-0.272 0.59-0.517 0.834l-5.7 5.733-2.833-6.6-5.667-5.667-6.6-2.833 5.734-5.7c0.244-0.244 0.522-0.417 0.833-0.517s0.633-0.116 0.967-0.050l3.666 0.734c0.019-0.020 0.041-0.036 0.066-0.049l0.001-0.001c0.026-0.014 0.048-0.030 0.067-0.050l0-0c2.2-2.2 4.544-3.784 7.033-4.75s5.244-1.35 8.267-1.15zM5.967 21.167c0.777-0.778 1.727-1.173 2.85-1.184 1.122-0.010 2.072 0.373 2.85 1.15 0.777 0.778 1.16 1.728 1.15 2.85-0.011 1.123-0.406 2.073-1.184 2.85-0.577 0.578-1.472 1.056-2.683 1.434s-3.028 0.733-5.45 1.066c0.333-2.422 0.683-4.244 1.050-5.466s0.839-2.123 1.417-2.7zM7.367 22.6c-0.311 0.333-0.59 0.856-0.834 1.567s-0.455 1.622-0.633 2.733c1.111-0.178 2.022-0.389 2.733-0.633 0.711-0.245 1.234-0.523 1.567-0.834 0.422-0.377 0.639-0.85 0.65-1.416 0.001-0.018 0.001-0.040 0.001-0.061 0-0.555-0.223-1.057-0.584-1.423l0 0c-0.366-0.361-0.869-0.584-1.423-0.584-0.021 0-0.043 0-0.064 0.001l0.003-0c-0.565 0.001-1.071 0.252-1.414 0.648l-0.002 0.002z"></path>
</symbol>

<symbol id="icon-close" viewBox="0 0 30 32">
<path d="M16.219 14.826l4.928-4.923c0.156-0.177 0.252-0.412 0.252-0.668 0-0.559-0.453-1.013-1.013-1.013-0.257 0-0.492 0.096-0.67 0.253l0.001-0.001-4.927 4.874-4.959-4.955c-0.175-0.146-0.402-0.235-0.649-0.235-0.56 0-1.014 0.454-1.014 1.014 0 0.247 0.089 0.474 0.236 0.65l-0.001-0.002 4.948 5.006-4.847 4.782c-0.211 0.187-0.344 0.458-0.344 0.76 0 0.559 0.454 1.013 1.013 1.013 0.303 0 0.574-0.133 0.76-0.343l0.001-0.001 4.836-4.832 4.806 4.801c0.175 0.146 0.402 0.235 0.649 0.235 0.56 0 1.014-0.454 1.014-1.014 0-0.247-0.089-0.474-0.236-0.65l0.001 0.002-4.785-4.751z"></path>
</symbol>

</defs>
</svg>
