<svg width="69" height="51" fill="none" xmlns="http://www.w3.org/2000/svg"><path d="M23.48 13.465c2.305-4.49 8.733-4.49 11.038 0a6.198 6.198 0 0 0 4.54 3.284c4.97.785 6.983 6.888 3.417 10.438a6.153 6.153 0 0 0-1.735 5.324c.788 4.967-4.438 8.714-8.926 6.444a6.267 6.267 0 0 0-5.63 0c-4.488 2.27-9.715-1.477-8.927-6.444a6.153 6.153 0 0 0-1.734-5.324c-3.566-3.55-1.554-9.653 3.417-10.439a6.198 6.198 0 0 0 4.54-3.283Z" fill="#FFE550"/><path d="m4.318 32.913-.034.008c.004.118-.002.595-.018 1.431-.006.834-.007 1.38-.005 1.642 0 .25-.006.453-.016.61l.002.534c-.003.191-.013.348-.032.471l-.03.328c-.022.208-.067.32-.135.335-.148.035-.378-.077-.69-.337-.316-.27-.498-.507-.547-.71-.048-.202-.06-1.685-.035-4.449.035-2.766-.039-4.586-.222-5.458a.656.656 0 0 1 .022-.433c.057-.263.351-.51.882-.742.543-.235 1.353-.479 2.43-.732 1.087-.256 1.95-.4 2.59-.43.65-.034.998.05 1.047.253.032.135-.042.253-.221.355-.18.101-.339.186-.478.255l-.558.22c-.232.078-.448.153-.647.223-.2.06-.462.145-.782.256-.31.108-.596.211-.86.309-.267.086-.626.212-1.077.378-.451.165-.744.27-.877.313.02.031.037.08.053.148.126.53.195 1.797.205 3.803a17.67 17.67 0 0 0 2.25-.582c.8-.26 1.29-.41 1.471-.453.43-.101.667-.062.71.119.083.349-.34.757-1.27 1.225-.918.466-1.96.836-3.128 1.11ZM15.415 29.805a3.191 3.191 0 0 0-.444-1.037c-.208-.32-.45-.53-.725-.632-.731.398-1.262 1.159-1.593 2.283-.322 1.11-.38 2.098-.174 2.965.207.867.55 1.357 1.032 1.47.779-.35 1.339-1.064 1.68-2.143.35-1.093.425-2.062.224-2.906Zm-4.434 1.203c.187-.971.531-1.813 1.032-2.525.51-.726 1.098-1.168 1.767-1.325.68-.16 1.315-.006 1.905.462.587.456.978 1.095 1.174 1.917.193.81.193 1.69 0 2.639a5.986 5.986 0 0 1-1.147 2.498c-.56.715-1.23 1.164-2.012 1.348-.578.135-1.123-.016-1.634-.454-.511-.439-.864-1.064-1.057-1.874-.195-.822-.205-1.717-.028-2.686ZM23.118 27.994a3.191 3.191 0 0 0-.444-1.037c-.208-.32-.45-.53-.725-.632-.731.398-1.262 1.159-1.593 2.283-.322 1.11-.38 2.098-.174 2.965.206.867.55 1.357 1.032 1.47.778-.35 1.338-1.064 1.68-2.143.35-1.093.425-2.061.224-2.906Zm-4.435 1.203c.188-.971.532-1.813 1.033-2.525.509-.726 1.098-1.168 1.767-1.325.68-.16 1.314-.006 1.904.462.588.456.98 1.095 1.175 1.917.193.81.192 1.69 0 2.64a5.987 5.987 0 0 1-1.147 2.498c-.56.714-1.23 1.163-2.013 1.347-.578.136-1.122-.016-1.634-.454-.51-.439-.863-1.063-1.056-1.874-.195-.822-.205-1.717-.029-2.686ZM31.154 18.08c.18-.042.442.075.783.351.35.263.56.54.63.833.069.293.125 1.16.169 2.6a99.21 99.21 0 0 1 .023 4.47c-.034 3.479-.18 5.25-.441 5.31-.16.038-.358-.017-.596-.163-.23-.16-.362-.313-.396-.46-.035-.146-.065-.448-.09-.905-.843 1.386-1.678 2.177-2.505 2.372-.499.117-1.006-.002-1.52-.356-.505-.357-.814-.778-.93-1.262-.166-.698-.176-1.57-.03-2.614a8.883 8.883 0 0 1 1.023-3.022c.526-.956 1.191-1.529 1.996-1.718.805-.189 1.48.158 2.025 1.04.01-2.523-.122-4.483-.395-5.88-.08-.339.004-.537.254-.595Zm.103 8.732c-.145-.608-.374-1.095-.689-1.461-.303-.369-.602-.518-.896-.45-.488.116-.915.531-1.283 1.248a7.382 7.382 0 0 0-.734 2.348c-.112.834-.102 1.533.032 2.096.049.203.161.349.338.438.177.09.367.11.571.062.442-.104.962-.56 1.56-1.366.61-.808.982-1.68 1.118-2.616l.003-.215-.02-.084ZM42.108 25.794c.22.923-.014 1.799-.703 2.626-.691.816-1.58 1.352-2.669 1.608-1.076.253-2.031.187-2.865-.2-.837-.397-1.314-.844-1.432-1.34-.08-.337-.019-.53.185-.578.182-.043.603.144 1.264.559.25.143.565.26.945.348.391.087.78.085 1.165-.006.793-.186 1.448-.554 1.963-1.104.527-.551.734-1.064.622-1.536-.073-.304-.37-.645-.89-1.022s-1.08-.715-1.677-1.014a13.173 13.173 0 0 1-1.669-1.052c-.523-.388-.818-.723-.885-1.005a2.72 2.72 0 0 1-.043-.935c.038-.341.108-.602.21-.78.326-.588.906-1.194 1.739-1.817.844-.627 1.583-1.015 2.218-1.164.328-.077.632-.036.909.125.278.16.445.36.5.596.028.112-.07.23-.292.354a25.5 25.5 0 0 1-1.024.526 8.386 8.386 0 0 0-1.186.67c-1.185.803-1.723 1.434-1.613 1.896.059.248.886.784 2.483 1.61.614.319 1.195.723 1.743 1.212.556.476.89.95 1.002 1.423ZM46.012 26.642c.051.213.201.291.45.232.431-.1.924-.342 1.48-.722.564-.394.88-.6.949-.615.204-.048.331.035.382.249.078.326-.173.783-.75 1.371-.568.585-1.129.943-1.684 1.073-.544.128-1.032.088-1.464-.12-.435-.218-.69-.485-.765-.8-.075-.315-.102-.73-.082-1.247.018-.527.057-1.22.116-2.078.068-.872.112-1.59.134-2.153-.503.249-.846.395-1.027.437-.181.043-.384-.004-.608-.142-.216-.151-.344-.311-.384-.48-.064-.27.61-.703 2.025-1.297-.018-.982-.113-1.834-.285-2.554-.08-.338-.007-.533.22-.587.192-.045.46.023.802.204.34.17.546.407.618.71.072.305.103.862.093 1.673a19.228 19.228 0 0 1 1.527-.448c.68-.16 1.054-.094 1.124.2.04.168-.113.353-.46.553-.336.198-1.065.554-2.188 1.067a74.621 74.621 0 0 1-.173 3.268c-.092 1.223-.109 1.958-.05 2.206ZM53.612 17.793c.51-.12 1.042.029 1.596.445.551.406.876.817.976 1.233.096.406.053.855-.128 1.35.176.137.279.267.309.39.075.316.13.874.164 1.674.046.797.08 1.318.103 1.563.034.242.056.438.069.59.01.14.013.282.011.425.022.292-.047.457-.205.494-.204.048-.416-.086-.635-.403-.21-.331-.394-.775-.55-1.333-.706 1.51-1.49 2.365-2.351 2.568-.521.122-1.09.024-1.704-.295-.606-.333-.965-.736-1.077-1.21-.161-.675-.11-1.566.153-2.674.26-1.12.694-2.16 1.303-3.124.608-.963 1.264-1.527 1.966-1.693Zm1.49 2.789c-.25-1.047-.584-1.522-1.003-1.423-.442.104-.883.54-1.322 1.31a9.35 9.35 0 0 0-.994 2.462c-.22.884-.275 1.557-.165 2.018.045.192.162.33.35.417a.971.971 0 0 0 .601.037c.533-.125 1.05-.621 1.549-1.487.497-.878.754-1.86.77-2.946-.005-.176.067-.3.218-.371l-.004-.017Z" fill="#2C2C2C"/><path fill-rule="evenodd" clip-rule="evenodd" d="M50.243 32.208c-.776.191-1.396.764-1.71 1.5a21.184 21.184 0 0 1-19.508 12.826c-5.09 0-9.755-1.78-13.402-4.745-.618-.501-1.428-.718-2.2-.528-1.729.425-2.37 2.516-1.012 3.666A25.633 25.633 0 0 0 29.025 51a25.655 25.655 0 0 0 23.817-16.022c.664-1.647-.874-3.194-2.599-2.77ZM6.683 22.24c.896-.22 1.565-.953 1.79-1.847 2.296-9.135 10.61-15.926 20.552-15.926 6.28 0 11.91 2.71 15.785 7.008.613.68 1.54 1.012 2.43.794 1.563-.385 2.265-2.203 1.21-3.419A25.65 25.65 0 0 0 29.025 0c-12.188 0-22.391 8.454-25 19.785-.36 1.562 1.102 2.837 2.658 2.454Z" fill="#BBF330"/><path d="M67.59 8.497c-6.062 11.54-8.722 3.928-17.254 8.4.853-13.396 9.89-5.245 17.254-8.4Z" fill="#BBF330" stroke="#BBF330" stroke-width="1.643" stroke-linejoin="round"/></svg>